<?xml version="1.0" standalone="no"?>
 <!DOCTYPE svg PUBLIC "-//W3C//DTD SVG 1.1//EN" 
 "http://www.w3.org/Graphics/SVG/1.1/DTD/svg11.dtd"> 
<svg
  xmlns:svg="http://www.w3.org/2000/svg"
  xmlns="http://www.w3.org/2000/svg"
  xmlns:xlink="http://www.w3.org/1999/xlink"
  version="1.1"
  width="356.7684mm" height="151.7904mm" viewBox="0.0000 0.0000 356.7684 151.7904">
<title>SVG Image created as plates-Edge_Cuts.svg date 2025/05/04 00:52:03 </title>
  <desc>Image generated by PCBNEW </desc>
<g style="fill:#000000; fill-opacity:1.0000;stroke:#000000; stroke-opacity:1.0000;
stroke-linecap:round; stroke-linejoin:round;"
 transform="translate(0 0) scale(1 1)">
</g>
<g style="fill:none; 
stroke:#000000; stroke-width:0.0500; stroke-opacity:1; 
stroke-linecap:round; stroke-linejoin:round;">
<circle cx="202.1786" cy="28.5743" r="1.6000" /> 
<circle cx="248.0586" cy="9.4543" r="1.6000" /> 
<circle cx="314.2686" cy="15.2443" r="1.6000" /> 
<circle cx="351.2486" cy="95.3743" r="1.6000" /> 
<circle cx="286.2986" cy="125.6743" r="1.6000" /> 
<circle cx="202.4486" cy="146.1743" r="1.6000" /> 
<circle cx="155.3136" cy="146.1743" r="1.6000" /> 
<circle cx="71.4636" cy="125.6743" r="1.6000" /> 
<circle cx="6.5136" cy="95.3743" r="1.6000" /> 
<circle cx="155.5836" cy="28.5743" r="1.6000" /> 
<circle cx="109.7036" cy="9.4543" r="1.6000" /> 
<circle cx="43.4936" cy="15.2443" r="1.6000" /> 
<path d="M319.5385 13.6254 A5.0000 5.0000 0.0 0 0 316.5506 10.2711" />
<path d="M180.6977 23.6950
L198.4004 23.6950
" />
<path d="M250.3815 4.3896 A5.0001 5.0001 0.0 0 0 246.9203 4.0659" />
<path d="M299.6330 3.5681
L316.5506 10.2711
" />
<path d="M250.3815 4.3896
L257.3051 7.7194
" />
<path d="M253.9294 126.9148
L206.1184 150.7340
" />
<path d="M100.4611,7.7194 C103.9229,6.0545 107.3847,4.3896 107.3847,4.3896" />
<path d="M319.5385 13.6254
L322.3575 24.1459
" />
<path d="M284.0098 130.9758
L260.4230 126.0747
" />
<path d="M73.7564,130.9758 C71.2596,131.4947 68.8192,130.7544 68.8192,130.7544" />
<path d="M2.6970,99.2357 C0.0250,96.8693 1.3951,93.5734 1.3951,93.5734" />
<path d="M355.0692 99.2357
L336.2042 115.9434
" />
<path d="M103.8368,126.9148 C100.7355,125.3698 97.3431,126.0747 97.3431,126.0747" />
<path d="M330.7064 31.8333
L356.3711 93.5734
" />
<path d="M1.3951,93.5734 C14.2274,62.7034 27.0598,31.8333 27.0598,31.8333" />
<path d="M21.5620,115.9434 C12.1295,107.5896 2.6970,99.2357 2.6970,99.2357" />
<path d="M65.5378,0.6344 C67.0758,0.0250 68.6737,0.4532 68.6737,0.4532" />
<path d="M355.0692 99.2358 A5.0000 5.0000 0.0 0 0 356.3711 93.5734" />
<path d="M23.4257,116.9850 C22.3801,116.6679 21.5620,115.9434 21.5620,115.9434" />
<path d="M201.6592 151.7833
L178.8831 151.7833
" />
<path d="M27.0598,31.8333 C27.7125,30.2630 29.1873,29.4164 29.1873,29.4164" />
<path d="M257.3051 7.7194 A4.9998 4.9998 0.0 0 0 260.7663 8.0431" />
<path d="M201.3797 22.7105
L214.2057 13.1944
" />
<path d="M110.8459,4.0659 C126.3606,8.2231 141.8754,12.3802 141.8754,12.3802" />
<path d="M141.8754,12.3802 C142.7955,12.6268 143.5605,13.1944 143.5605,13.1944" />
<path d="M284.0098 130.9758 A9.9998 9.9998 0.0 0 0 288.9470 130.7544" />
<path d="M201.6592 151.7833 A9.9996 9.9996 0.0 0 0 206.1184 150.7340" />
<path d="M151.6478,150.7340 C127.7423,138.8244 103.8368,126.9148 103.8368,126.9148" />
<path d="M215.8908 12.3802
L246.9203 4.0659
" />
<path d="M68.8192,130.7544 C46.1225,123.8697 23.4257,116.9850 23.4257,116.9850" />
<path d="M159.3658 23.6950
L180.6977 23.6950
" />
<path d="M41.2155 10.2711
L58.1332 3.5681
" />
<path d="M260.7663 8.0431
L289.0925 0.4532
" />
<path d="M260.4230 126.0747 A9.9999 9.9999 0.0 0 0 253.9294 126.9148" />
<path d="M33.0686,27.1880 C34.8708,26.1533 35.4087,24.1459 35.4087,24.1459" />
<path d="M156.3865,22.7105 C157.7135,23.6950 159.3658,23.6950 159.3658,23.6950" />
<path d="M38.2277,13.6254 C38.8783,11.1971 41.2155,10.2711 41.2155,10.2711" />
<path d="M58.1332 3.5681
L65.5378 0.6344
" />
<path d="M292.2283 0.6344
L299.6330 3.5681
" />
<path d="M107.3847,4.3896 C109.0553,3.5861 110.8459,4.0659 110.8459,4.0659" />
<path d="M29.1873,29.4164 C31.1279,28.3022 33.0686,27.1880 33.0686,27.1880" />
<path d="M198.4004 23.6950 A4.9999 4.9999 0.0 0 0 201.3797 22.7105" />
<path d="M178.8831 151.7833
L156.1070 151.7833
" />
<path d="M96.9999,8.0431 C98.7905,8.5229 100.4611,7.7194 100.4611,7.7194" />
<path d="M334.3405 116.9850
L288.9470 130.7544
" />
<path d="M330.7064 31.8333 A5.0001 5.0001 0.0 0 0 328.5789 29.4164" />
<path d="M292.2284 0.6343 A4.9999 4.9999 0.0 0 0 289.0925 0.4532" />
<path d="M215.8908 12.3803 A5.0001 5.0001 0.0 0 0 214.2057 13.1944" />
<path d="M97.3431,126.0747 C85.5498,128.5253 73.7564,130.9758 73.7564,130.9758" />
<path d="M322.3575 24.1459 A4.9999 4.9999 0.0 0 0 324.6976 27.1880" />
<path d="M324.6976 27.1880
L328.5789 29.4164
" />
<path d="M35.4087,24.1459 C36.8182,18.8857 38.2277,13.6254 38.2277,13.6254" />
<path d="M156.1070,151.7833 C153.7539,151.7833 151.6478,150.7340 151.6478,150.7340" />
<path d="M334.3405 116.9850 A4.9997 4.9997 0.0 0 0 336.2042 115.9434" />
<path d="M68.6737,0.4532 C82.8368,4.2481 96.9999,8.0431 96.9999,8.0431" />
<path d="M143.5605,13.1944 C149.9735,17.9524 156.3865,22.7105 156.3865,22.7105" />
<circle cx="202.1786" cy="28.5743" r="1.6000" /> 
<circle cx="248.0586" cy="9.4543" r="1.6000" /> 
<circle cx="314.2686" cy="15.2443" r="1.6000" /> 
<circle cx="351.2486" cy="95.3743" r="1.6000" /> 
<circle cx="286.2986" cy="125.6743" r="1.6000" /> 
<circle cx="202.4486" cy="146.1743" r="1.6000" /> 
<circle cx="155.3136" cy="146.1743" r="1.6000" /> 
<circle cx="71.4636" cy="125.6743" r="1.6000" /> 
<circle cx="6.5136" cy="95.3743" r="1.6000" /> 
<circle cx="155.5836" cy="28.5743" r="1.6000" /> 
<circle cx="109.7036" cy="9.4543" r="1.6000" /> 
<circle cx="43.4936" cy="15.2443" r="1.6000" /> 
<path d="M319.5385 13.6254 A5.0000 5.0000 0.0 0 0 316.5506 10.2711" />
<path d="M180.6977 23.6950
L198.4004 23.6950
" />
<path d="M250.3815 4.3896 A5.0001 5.0001 0.0 0 0 246.9203 4.0659" />
<path d="M299.6330 3.5681
L316.5506 10.2711
" />
<path d="M250.3815 4.3896
L257.3051 7.7194
" />
<path d="M253.9294 126.9148
L206.1184 150.7340
" />
<path d="M100.4611,7.7194 C103.9229,6.0545 107.3847,4.3896 107.3847,4.3896" />
<path d="M319.5385 13.6254
L322.3575 24.1459
" />
<path d="M284.0098 130.9758
L260.4230 126.0747
" />
<path d="M73.7564,130.9758 C71.2596,131.4947 68.8192,130.7544 68.8192,130.7544" />
<path d="M2.6970,99.2357 C0.0250,96.8693 1.3951,93.5734 1.3951,93.5734" />
<path d="M355.0692 99.2357
L336.2042 115.9434
" />
<path d="M103.8368,126.9148 C100.7355,125.3698 97.3431,126.0747 97.3431,126.0747" />
<path d="M330.7064 31.8333
L356.3711 93.5734
" />
<path d="M1.3951,93.5734 C14.2274,62.7034 27.0598,31.8333 27.0598,31.8333" />
<path d="M21.5620,115.9434 C12.1295,107.5896 2.6970,99.2357 2.6970,99.2357" />
<path d="M65.5378,0.6344 C67.0758,0.0250 68.6737,0.4532 68.6737,0.4532" />
<path d="M355.0692 99.2358 A5.0000 5.0000 0.0 0 0 356.3711 93.5734" />
<path d="M23.4257,116.9850 C22.3801,116.6679 21.5620,115.9434 21.5620,115.9434" />
<path d="M201.6592 151.7833
L178.8831 151.7833
" />
<path d="M27.0598,31.8333 C27.7125,30.2630 29.1873,29.4164 29.1873,29.4164" />
<path d="M257.3051 7.7194 A4.9998 4.9998 0.0 0 0 260.7663 8.0431" />
<path d="M201.3797 22.7105
L214.2057 13.1944
" />
<path d="M110.8459,4.0659 C126.3606,8.2231 141.8754,12.3802 141.8754,12.3802" />
<path d="M141.8754,12.3802 C142.7955,12.6268 143.5605,13.1944 143.5605,13.1944" />
<path d="M284.0098 130.9758 A9.9998 9.9998 0.0 0 0 288.9470 130.7544" />
<path d="M201.6592 151.7833 A9.9996 9.9996 0.0 0 0 206.1184 150.7340" />
<path d="M151.6478,150.7340 C127.7423,138.8244 103.8368,126.9148 103.8368,126.9148" />
<path d="M215.8908 12.3802
L246.9203 4.0659
" />
<path d="M68.8192,130.7544 C46.1225,123.8697 23.4257,116.9850 23.4257,116.9850" />
<path d="M159.3658 23.6950
L180.6977 23.6950
" />
<path d="M41.2155 10.2711
L58.1332 3.5681
" />
<path d="M260.7663 8.0431
L289.0925 0.4532
" />
<path d="M260.4230 126.0747 A9.9999 9.9999 0.0 0 0 253.9294 126.9148" />
<path d="M33.0686,27.1880 C34.8708,26.1533 35.4087,24.1459 35.4087,24.1459" />
<path d="M156.3865,22.7105 C157.7135,23.6950 159.3658,23.6950 159.3658,23.6950" />
<path d="M38.2277,13.6254 C38.8783,11.1971 41.2155,10.2711 41.2155,10.2711" />
<path d="M58.1332 3.5681
L65.5378 0.6344
" />
<path d="M292.2283 0.6344
L299.6330 3.5681
" />
<path d="M107.3847,4.3896 C109.0553,3.5861 110.8459,4.0659 110.8459,4.0659" />
<path d="M29.1873,29.4164 C31.1279,28.3022 33.0686,27.1880 33.0686,27.1880" />
<path d="M198.4004 23.6950 A4.9999 4.9999 0.0 0 0 201.3797 22.7105" />
<path d="M178.8831 151.7833
L156.1070 151.7833
" />
<path d="M96.9999,8.0431 C98.7905,8.5229 100.4611,7.7194 100.4611,7.7194" />
<path d="M334.3405 116.9850
L288.9470 130.7544
" />
<path d="M330.7064 31.8333 A5.0001 5.0001 0.0 0 0 328.5789 29.4164" />
<path d="M292.2284 0.6343 A4.9999 4.9999 0.0 0 0 289.0925 0.4532" />
<path d="M215.8908 12.3803 A5.0001 5.0001 0.0 0 0 214.2057 13.1944" />
<path d="M97.3431,126.0747 C85.5498,128.5253 73.7564,130.9758 73.7564,130.9758" />
<path d="M322.3575 24.1459 A4.9999 4.9999 0.0 0 0 324.6976 27.1880" />
<path d="M324.6976 27.1880
L328.5789 29.4164
" />
<path d="M35.4087,24.1459 C36.8182,18.8857 38.2277,13.6254 38.2277,13.6254" />
<path d="M156.1070,151.7833 C153.7539,151.7833 151.6478,150.7340 151.6478,150.7340" />
<path d="M334.3405 116.9850 A4.9997 4.9997 0.0 0 0 336.2042 115.9434" />
<path d="M68.6737,0.4532 C82.8368,4.2481 96.9999,8.0431 96.9999,8.0431" />
<path d="M143.5605,13.1944 C149.9735,17.9524 156.3865,22.7105 156.3865,22.7105" />
</g> 
</svg>
