<?xml version="1.0" standalone="no"?>
 <!DOCTYPE svg PUBLIC "-//W3C//DTD SVG 1.1//EN" 
 "http://www.w3.org/Graphics/SVG/1.1/DTD/svg11.dtd"> 
<svg
  xmlns:svg="http://www.w3.org/2000/svg"
  xmlns="http://www.w3.org/2000/svg"
  xmlns:xlink="http://www.w3.org/1999/xlink"
  version="1.1"
  width="299.2628mm" height="117.0178mm" viewBox="0.0000 0.0000 299.2628 117.0178">
<title>SVG Image created as metallali-User_Eco1.svg date 2025/05/01 01:14:59 </title>
  <desc>Image generated by PCBNEW </desc>
<g style="fill:#000000; fill-opacity:1.0000;stroke:#000000; stroke-opacity:1.0000;
stroke-linecap:round; stroke-linejoin:round;"
 transform="translate(0 0) scale(1 1)">
<path style="fill:none; 
stroke:#000000; stroke-width:0.1200; stroke-opacity:1; 
stroke-linecap:round; stroke-linejoin:round;fill:none"
d="M 299.2088,87.4642
280.8079,92.3947
275.8774,73.9938
294.2783,69.0633
Z" /> 
<path style="fill:none; 
stroke:#000000; stroke-width:0.1200; stroke-opacity:1; 
stroke-linecap:round; stroke-linejoin:round;fill:none"
d="M 280.8079,92.3947
262.4070,97.3252
257.4765,78.9243
275.8774,73.9938
Z" /> 
<path style="fill:none; 
stroke:#000000; stroke-width:0.1200; stroke-opacity:1; 
stroke-linecap:round; stroke-linejoin:round;fill:none"
d="M 41.7923,78.9243
36.8618,97.3252
18.4609,92.3947
23.3914,73.9938
Z" /> 
<path style="fill:none; 
stroke:#000000; stroke-width:0.1200; stroke-opacity:1; 
stroke-linecap:round; stroke-linejoin:round;fill:none"
d="M 23.3914,73.9938
18.4609,92.3947
0.0600,87.4642
4.9905,69.0633
Z" /> 
<path style="fill:none; 
stroke:#000000; stroke-width:0.1200; stroke-opacity:1; 
stroke-linecap:round; stroke-linejoin:round;fill:none"
d="M 188.2372,104.7033
173.6441,116.9484
161.3990,102.3553
175.9921,90.1102
Z" /> 
<path style="fill:none; 
stroke:#000000; stroke-width:0.1200; stroke-opacity:1; 
stroke-linecap:round; stroke-linejoin:round;fill:none"
d="M 138.0154,102.3876
125.7703,116.9807
111.1771,104.7356
123.4222,90.1425
Z" /> 
<path style="fill:none; 
stroke:#000000; stroke-width:0.1200; stroke-opacity:1; 
stroke-linecap:round; stroke-linejoin:round;fill:none"
d="M 208.3588,94.9502
191.0937,103.0010
183.0428,85.7359
200.3079,77.6850
Z" /> 
<path style="fill:none; 
stroke:#000000; stroke-width:0.1200; stroke-opacity:1; 
stroke-linecap:round; stroke-linejoin:round;fill:none"
d="M 116.2858,85.7411
108.2349,103.0063
90.9698,94.9554
99.0206,77.6902
Z" /> 
<path style="fill:none; 
stroke:#000000; stroke-width:0.1200; stroke-opacity:1; 
stroke-linecap:round; stroke-linejoin:round;fill:none"
d="M 229.8752,88.8201
211.4743,93.7506
206.5438,75.3497
224.9447,70.4192
Z" /> 
<path style="fill:none; 
stroke:#000000; stroke-width:0.1200; stroke-opacity:1; 
stroke-linecap:round; stroke-linejoin:round;fill:none"
d="M 92.7250,75.3497
87.7945,93.7506
69.3936,88.8201
74.3241,70.4192
Z" /> 
<path style="fill:none; 
stroke:#000000; stroke-width:0.1200; stroke-opacity:1; 
stroke-linecap:round; stroke-linejoin:round;fill:none"
d="M 296.4132,58.6303
278.0123,63.5608
273.0818,45.1599
291.4827,40.2294
Z" /> 
<path style="fill:none; 
stroke:#000000; stroke-width:0.1200; stroke-opacity:1; 
stroke-linecap:round; stroke-linejoin:round;fill:none"
d="M 278.0123,63.5608
259.6115,68.4913
254.6810,50.0904
273.0818,45.1599
Z" /> 
<path style="fill:none; 
stroke:#000000; stroke-width:0.1200; stroke-opacity:1; 
stroke-linecap:round; stroke-linejoin:round;fill:none"
d="M 44.5878,50.0904
39.6573,68.4913
21.2564,63.5608
26.1869,45.1599
Z" /> 
<path style="fill:none; 
stroke:#000000; stroke-width:0.1200; stroke-opacity:1; 
stroke-linecap:round; stroke-linejoin:round;fill:none"
d="M 26.1869,45.1599
21.2564,63.5608
2.8555,58.6303
7.7860,40.2294
Z" /> 
<path style="fill:none; 
stroke:#000000; stroke-width:0.1200; stroke-opacity:1; 
stroke-linecap:round; stroke-linejoin:round;fill:none"
d="M 252.5460,60.5234
234.1451,65.4539
229.2146,47.0531
247.6155,42.1226
Z" /> 
<path style="fill:none; 
stroke:#000000; stroke-width:0.1200; stroke-opacity:1; 
stroke-linecap:round; stroke-linejoin:round;fill:none"
d="M 197.3433,75.3150
178.9424,80.2455
174.0119,61.8446
192.4128,56.9141
Z" /> 
<path style="fill:none; 
stroke:#000000; stroke-width:0.1200; stroke-opacity:1; 
stroke-linecap:round; stroke-linejoin:round;fill:none"
d="M 125.2568,61.8446
120.3263,80.2455
101.9254,75.3150
106.8559,56.9141
Z" /> 
<path style="fill:none; 
stroke:#000000; stroke-width:0.1200; stroke-opacity:1; 
stroke-linecap:round; stroke-linejoin:round;fill:none"
d="M 70.0542,47.0531
65.1237,65.4539
46.7228,60.5234
51.6533,42.1226
Z" /> 
<path style="fill:none; 
stroke:#000000; stroke-width:0.1200; stroke-opacity:1; 
stroke-linecap:round; stroke-linejoin:round;fill:none"
d="M 214.5116,65.7842
196.1107,70.7147
191.1802,52.3138
209.5811,47.3833
Z" /> 
<path style="fill:none; 
stroke:#000000; stroke-width:0.1200; stroke-opacity:1; 
stroke-linecap:round; stroke-linejoin:round;fill:none"
d="M 108.0886,52.3138
103.1581,70.7147
84.7572,65.7842
89.6877,47.3833
Z" /> 
<path style="fill:none; 
stroke:#000000; stroke-width:0.1200; stroke-opacity:1; 
stroke-linecap:round; stroke-linejoin:round;fill:none"
d="M 291.4827,40.2294
273.0818,45.1599
268.1513,26.7590
286.5522,21.8285
Z" /> 
<path style="fill:none; 
stroke:#000000; stroke-width:0.1200; stroke-opacity:1; 
stroke-linecap:round; stroke-linejoin:round;fill:none"
d="M 273.0818,45.1599
254.6810,50.0904
249.7505,31.6895
268.1513,26.7590
Z" /> 
<path style="fill:none; 
stroke:#000000; stroke-width:0.1200; stroke-opacity:1; 
stroke-linecap:round; stroke-linejoin:round;fill:none"
d="M 231.6798,56.2535
213.2790,61.1840
208.3485,42.7831
226.7493,37.8526
Z" /> 
<path style="fill:none; 
stroke:#000000; stroke-width:0.1200; stroke-opacity:1; 
stroke-linecap:round; stroke-linejoin:round;fill:none"
d="M 90.9203,42.7831
85.9898,61.1840
67.5889,56.2535
72.5194,37.8526
Z" /> 
<path style="fill:none; 
stroke:#000000; stroke-width:0.1200; stroke-opacity:1; 
stroke-linecap:round; stroke-linejoin:round;fill:none"
d="M 49.5183,31.6895
44.5878,50.0904
26.1869,45.1599
31.1174,26.7590
Z" /> 
<path style="fill:none; 
stroke:#000000; stroke-width:0.1200; stroke-opacity:1; 
stroke-linecap:round; stroke-linejoin:round;fill:none"
d="M 31.1174,26.7590
26.1869,45.1599
7.7860,40.2294
12.7165,21.8285
Z" /> 
<path style="fill:none; 
stroke:#000000; stroke-width:0.1200; stroke-opacity:1; 
stroke-linecap:round; stroke-linejoin:round;fill:none"
d="M 247.6155,42.1226
229.2146,47.0531
224.2841,28.6522
242.6850,23.7217
Z" /> 
<path style="fill:none; 
stroke:#000000; stroke-width:0.1200; stroke-opacity:1; 
stroke-linecap:round; stroke-linejoin:round;fill:none"
d="M 192.4128,56.9141
174.0119,61.8446
169.0814,43.4437
187.4823,38.5132
Z" /> 
<path style="fill:none; 
stroke:#000000; stroke-width:0.1200; stroke-opacity:1; 
stroke-linecap:round; stroke-linejoin:round;fill:none"
d="M 130.1873,43.4437
125.2568,61.8446
106.8559,56.9141
111.7864,38.5132
Z" /> 
<path style="fill:none; 
stroke:#000000; stroke-width:0.1200; stroke-opacity:1; 
stroke-linecap:round; stroke-linejoin:round;fill:none"
d="M 74.9847,28.6522
70.0542,47.0531
51.6533,42.1226
56.5838,23.7217
Z" /> 
<path style="fill:none; 
stroke:#000000; stroke-width:0.1200; stroke-opacity:1; 
stroke-linecap:round; stroke-linejoin:round;fill:none"
d="M 209.5811,47.3833
191.1802,52.3138
186.2497,33.9130
204.6506,28.9825
Z" /> 
<path style="fill:none; 
stroke:#000000; stroke-width:0.1200; stroke-opacity:1; 
stroke-linecap:round; stroke-linejoin:round;fill:none"
d="M 113.0191,33.9130
108.0886,52.3138
89.6877,47.3833
94.6182,28.9825
Z" /> 
<path style="fill:none; 
stroke:#000000; stroke-width:0.1200; stroke-opacity:1; 
stroke-linecap:round; stroke-linejoin:round;fill:none"
d="M 226.7493,37.8526
208.3485,42.7831
203.4180,24.3822
221.8188,19.4517
Z" /> 
<path style="fill:none; 
stroke:#000000; stroke-width:0.1200; stroke-opacity:1; 
stroke-linecap:round; stroke-linejoin:round;fill:none"
d="M 95.8508,24.3822
90.9203,42.7831
72.5194,37.8526
77.4499,19.4517
Z" /> 
<path style="fill:none; 
stroke:#000000; stroke-width:0.1200; stroke-opacity:1; 
stroke-linecap:round; stroke-linejoin:round;fill:none"
d="M 280.7194,18.4609
262.3185,23.3914
257.3880,4.9905
275.7889,0.0600
Z" /> 
<path style="fill:none; 
stroke:#000000; stroke-width:0.1200; stroke-opacity:1; 
stroke-linecap:round; stroke-linejoin:round;fill:none"
d="M 262.3185,23.3914
243.9176,28.3219
238.9871,9.9210
257.3880,4.9905
Z" /> 
<path style="fill:none; 
stroke:#000000; stroke-width:0.1200; stroke-opacity:1; 
stroke-linecap:round; stroke-linejoin:round;fill:none"
d="M 60.2817,9.9210
55.3512,28.3219
36.9503,23.3914
41.8808,4.9905
Z" /> 
<path style="fill:none; 
stroke:#000000; stroke-width:0.1200; stroke-opacity:1; 
stroke-linecap:round; stroke-linejoin:round;fill:none"
d="M 41.8808,4.9905
36.9503,23.3914
18.5494,18.4609
23.4799,0.0600
Z" /> 
<path style="fill:none; 
stroke:#000000; stroke-width:0.1200; stroke-opacity:1; 
stroke-linecap:round; stroke-linejoin:round;fill:none"
d="M 242.6850,23.7217
224.2841,28.6522
219.3536,10.2513
237.7545,5.3208
Z" /> 
<path style="fill:none; 
stroke:#000000; stroke-width:0.1200; stroke-opacity:1; 
stroke-linecap:round; stroke-linejoin:round;fill:none"
d="M 187.4823,38.5132
169.0814,43.4437
164.1509,25.0428
182.5518,20.1123
Z" /> 
<path style="fill:none; 
stroke:#000000; stroke-width:0.1200; stroke-opacity:1; 
stroke-linecap:round; stroke-linejoin:round;fill:none"
d="M 135.1178,25.0428
130.1873,43.4437
111.7864,38.5132
116.7169,20.1123
Z" /> 
<path style="fill:none; 
stroke:#000000; stroke-width:0.1200; stroke-opacity:1; 
stroke-linecap:round; stroke-linejoin:round;fill:none"
d="M 79.9152,10.2513
74.9847,28.6522
56.5838,23.7217
61.5143,5.3208
Z" /> 
<path style="fill:none; 
stroke:#000000; stroke-width:0.1200; stroke-opacity:1; 
stroke-linecap:round; stroke-linejoin:round;fill:none"
d="M 204.6506,28.9825
186.2497,33.9130
181.3192,15.5121
199.7201,10.5816
Z" /> 
<path style="fill:none; 
stroke:#000000; stroke-width:0.1200; stroke-opacity:1; 
stroke-linecap:round; stroke-linejoin:round;fill:none"
d="M 117.9496,15.5121
113.0191,33.9130
94.6182,28.9825
99.5487,10.5816
Z" /> 
<path style="fill:none; 
stroke:#000000; stroke-width:0.1200; stroke-opacity:1; 
stroke-linecap:round; stroke-linejoin:round;fill:none"
d="M 221.8188,19.4517
203.4180,24.3822
198.4875,5.9813
216.8883,1.0508
Z" /> 
<path style="fill:none; 
stroke:#000000; stroke-width:0.1200; stroke-opacity:1; 
stroke-linecap:round; stroke-linejoin:round;fill:none"
d="M 100.7813,5.9813
95.8508,24.3822
77.4499,19.4517
82.3804,1.0508
Z" /> 
</g> 
</svg>
