  0
SECTION
  2
HEADER
  9
$ACADVER
  1
AC1027
  9
$ACADMAINTVER
 70
   125
  9
$DWGCODEPAGE
  3
ANSI_949
  9
$LASTSAVEDBY
  1
junkibeom
  9
$REQUIREDVERSIONS
160
                 0
  9
$INSBASE
 10
0.0
 20
0.0
 30
0.0
  9
$EXTMIN
 10
0.5399722950102407
 20
-0.2794227725860449
 30
-0.00000001
  9
$EXTMAX
 10
357.3000366559451
 20
151.5941933587946
 30
0.00000001
  9
$LIMMIN
 10
0.0
 20
0.0
  9
$LIMMAX
 10
12.0
 20
9.0
  9
$ORTHOMODE
 70
     0
  9
$REGENMODE
 70
     1
  9
$FILLMODE
 70
     1
  9
$QTEXTMODE
 70
     0
  9
$MIRRTEXT
 70
     0
  9
$LTSCALE
 40
1.0
  9
$ATTMODE
 70
     1
  9
$TEXTSIZE
 40
0.2
  9
$TRACEWID
 40
0.05
  9
$TEXTSTYLE
  7
Standard
  9
$CLAYER
  8
0
  9
$CELTYPE
  6
ByLayer
  9
$CECOLOR
 62
   256
  9
$CELTSCALE
 40
1.0
  9
$DISPSILH
 70
     0
  9
$DIMSCALE
 40
1.0
  9
$DIMASZ
 40
0.18
  9
$DIMEXO
 40
0.0625
  9
$DIMDLI
 40
0.38
  9
$DIMRND
 40
0.0
  9
$DIMDLE
 40
0.0
  9
$DIMEXE
 40
0.18
  9
$DIMTP
 40
0.0
  9
$DIMTM
 40
0.0
  9
$DIMTXT
 40
0.18
  9
$DIMCEN
 40
0.09
  9
$DIMTSZ
 40
0.0
  9
$DIMTOL
 70
     0
  9
$DIMLIM
 70
     0
  9
$DIMTIH
 70
     1
  9
$DIMTOH
 70
     1
  9
$DIMSE1
 70
     0
  9
$DIMSE2
 70
     0
  9
$DIMTAD
 70
     0
  9
$DIMZIN
 70
     0
  9
$DIMBLK
  1

  9
$DIMASO
 70
     1
  9
$DIMSHO
 70
     1
  9
$DIMPOST
  1

  9
$DIMAPOST
  1

  9
$DIMALT
 70
     0
  9
$DIMALTD
 70
     2
  9
$DIMALTF
 40
25.4
  9
$DIMLFAC
 40
1.0
  9
$DIMTOFL
 70
     0
  9
$DIMTVP
 40
0.0
  9
$DIMTIX
 70
     0
  9
$DIMSOXD
 70
     0
  9
$DIMSAH
 70
     0
  9
$DIMBLK1
  1

  9
$DIMBLK2
  1

  9
$DIMSTYLE
  2
Standard
  9
$DIMCLRD
 70
     0
  9
$DIMCLRE
 70
     0
  9
$DIMCLRT
 70
     0
  9
$DIMTFAC
 40
1.0
  9
$DIMGAP
 40
0.09
  9
$DIMJUST
 70
     0
  9
$DIMSD1
 70
     0
  9
$DIMSD2
 70
     0
  9
$DIMTOLJ
 70
     1
  9
$DIMTZIN
 70
     0
  9
$DIMALTZ
 70
     0
  9
$DIMALTTZ
 70
     0
  9
$DIMUPT
 70
     0
  9
$DIMDEC
 70
     4
  9
$DIMTDEC
 70
     4
  9
$DIMALTU
 70
     2
  9
$DIMALTTD
 70
     2
  9
$DIMTXSTY
  7
Standard
  9
$DIMAUNIT
 70
     0
  9
$DIMADEC
 70
     0
  9
$DIMALTRND
 40
0.0
  9
$DIMAZIN
 70
     0
  9
$DIMDSEP
 70
    46
  9
$DIMATFIT
 70
     3
  9
$DIMFRAC
 70
     0
  9
$DIMLDRBLK
  1

  9
$DIMLUNIT
 70
     2
  9
$DIMLWD
 70
    -2
  9
$DIMLWE
 70
    -2
  9
$DIMTMOVE
 70
     0
  9
$DIMFXL
 40
1.0
  9
$DIMFXLON
 70
     0
  9
$DIMJOGANG
 40
0.7853981633974483
  9
$DIMTFILL
 70
     0
  9
$DIMTFILLCLR
 70
     0
  9
$DIMARCSYM
 70
     0
  9
$DIMLTYPE
  6

  9
$DIMLTEX1
  6

  9
$DIMLTEX2
  6

  9
$DIMTXTDIRECTION
 70
     0
  9
$LUNITS
 70
     2
  9
$LUPREC
 70
     4
  9
$SKETCHINC
 40
0.1
  9
$FILLETRAD
 40
0.0
  9
$AUNITS
 70
     0
  9
$AUPREC
 70
     0
  9
$MENU
  1
.
  9
$ELEVATION
 40
0.0
  9
$PELEVATION
 40
0.0
  9
$THICKNESS
 40
0.0
  9
$LIMCHECK
 70
     0
  9
$CHAMFERA
 40
0.0
  9
$CHAMFERB
 40
0.0
  9
$CHAMFERC
 40
0.0
  9
$CHAMFERD
 40
0.0
  9
$SKPOLY
 70
     0
  9
$TDCREATE
 40
2460800.636307871
  9
$TDUCREATE
 40
2460800.261307871
  9
$TDUPDATE
 40
2460800.637731481
  9
$TDUUPDATE
 40
2460800.262731481
  9
$TDINDWG
 40
0.0003935185
  9
$TDUSRTIMER
 40
0.0003935185
  9
$USRTIMER
 70
     1
  9
$ANGBASE
 50
0.0
  9
$ANGDIR
 70
     0
  9
$PDMODE
 70
     0
  9
$PDSIZE
 40
0.0
  9
$PLINEWID
 40
0.0
  9
$SPLFRAME
 70
     0
  9
$SPLINETYPE
 70
     6
  9
$SPLINESEGS
 70
     8
  9
$HANDSEED
  5
1C5
  9
$SURFTAB1
 70
     6
  9
$SURFTAB2
 70
     6
  9
$SURFTYPE
 70
     6
  9
$SURFU
 70
     6
  9
$SURFV
 70
     6
  9
$UCSBASE
  2

  9
$UCSNAME
  2

  9
$UCSORG
 10
0.0
 20
0.0
 30
0.0
  9
$UCSXDIR
 10
1.0
 20
0.0
 30
0.0
  9
$UCSYDIR
 10
0.0
 20
1.0
 30
0.0
  9
$UCSORTHOREF
  2

  9
$UCSORTHOVIEW
 70
     0
  9
$UCSORGTOP
 10
0.0
 20
0.0
 30
0.0
  9
$UCSORGBOTTOM
 10
0.0
 20
0.0
 30
0.0
  9
$UCSORGLEFT
 10
0.0
 20
0.0
 30
0.0
  9
$UCSORGRIGHT
 10
0.0
 20
0.0
 30
0.0
  9
$UCSORGFRONT
 10
0.0
 20
0.0
 30
0.0
  9
$UCSORGBACK
 10
0.0
 20
0.0
 30
0.0
  9
$PUCSBASE
  2

  9
$PUCSNAME
  2

  9
$PUCSORG
 10
0.0
 20
0.0
 30
0.0
  9
$PUCSXDIR
 10
1.0
 20
0.0
 30
0.0
  9
$PUCSYDIR
 10
0.0
 20
1.0
 30
0.0
  9
$PUCSORTHOREF
  2

  9
$PUCSORTHOVIEW
 70
     0
  9
$PUCSORGTOP
 10
0.0
 20
0.0
 30
0.0
  9
$PUCSORGBOTTOM
 10
0.0
 20
0.0
 30
0.0
  9
$PUCSORGLEFT
 10
0.0
 20
0.0
 30
0.0
  9
$PUCSORGRIGHT
 10
0.0
 20
0.0
 30
0.0
  9
$PUCSORGFRONT
 10
0.0
 20
0.0
 30
0.0
  9
$PUCSORGBACK
 10
0.0
 20
0.0
 30
0.0
  9
$USERI1
 70
     0
  9
$USERI2
 70
     0
  9
$USERI3
 70
     0
  9
$USERI4
 70
     0
  9
$USERI5
 70
     0
  9
$USERR1
 40
0.0
  9
$USERR2
 40
0.0
  9
$USERR3
 40
0.0
  9
$USERR4
 40
0.0
  9
$USERR5
 40
0.0
  9
$WORLDVIEW
 70
     1
  9
$SHADEDGE
 70
     3
  9
$SHADEDIF
 70
    70
  9
$TILEMODE
 70
     1
  9
$MAXACTVP
 70
    64
  9
$PINSBASE
 10
0.0
 20
0.0
 30
0.0
  9
$PLIMCHECK
 70
     0
  9
$PEXTMIN
 10
1.000000000000000E+20
 20
1.000000000000000E+20
 30
1.000000000000000E+20
  9
$PEXTMAX
 10
-1.000000000000000E+20
 20
-1.000000000000000E+20
 30
-1.000000000000000E+20
  9
$PLIMMIN
 10
0.0
 20
0.0
  9
$PLIMMAX
 10
12.0
 20
9.0
  9
$UNITMODE
 70
     0
  9
$VISRETAIN
 70
     1
  9
$PLINEGEN
 70
     0
  9
$PSLTSCALE
 70
     1
  9
$TREEDEPTH
 70
  3020
  9
$CMLSTYLE
  2
Standard
  9
$CMLJUST
 70
     0
  9
$CMLSCALE
 40
1.0
  9
$PROXYGRAPHICS
 70
     1
  9
$MEASUREMENT
 70
     0
  9
$CELWEIGHT
370
    -1
  9
$ENDCAPS
280
     0
  9
$JOINSTYLE
280
     0
  9
$LWDISPLAY
290
     1
  9
$INSUNITS
 70
     4
  9
$HYPERLINKBASE
  1

  9
$STYLESHEET
  1

  9
$XEDIT
290
     1
  9
$CEPSNTYPE
380
     0
  9
$PSTYLEMODE
290
     1
  9
$FINGERPRINTGUID
  2
{D4065018-BCBA-EB47-A8EC-460DBE5892B0}
  9
$VERSIONGUID
  2
{EDBE66E6-381B-8D4B-85E7-BA23C457DA37}
  9
$EXTNAMES
290
     1
  9
$PSVPSCALE
 40
0.0
  9
$OLESTARTUP
290
     0
  9
$SORTENTS
280
   127
  9
$INDEXCTL
280
     0
  9
$HIDETEXT
280
     1
  9
$XCLIPFRAME
280
     2
  9
$HALOGAP
280
     0
  9
$OBSCOLOR
 70
   257
  9
$OBSLTYPE
280
     0
  9
$INTERSECTIONDISPLAY
280
     0
  9
$INTERSECTIONCOLOR
 70
   257
  9
$DIMASSOC
280
     2
  9
$PROJECTNAME
  1

  9
$CAMERADISPLAY
290
     0
  9
$LENSLENGTH
 40
50.0
  9
$CAMERAHEIGHT
 40
0.0
  9
$STEPSPERSEC
 40
2.0
  9
$STEPSIZE
 40
6.0
  9
$3DDWFPREC
 40
2.0
  9
$PSOLWIDTH
 40
0.25
  9
$PSOLHEIGHT
 40
4.0
  9
$LOFTANG1
 40
1.570796326794896
  9
$LOFTANG2
 40
1.570796326794896
  9
$LOFTMAG1
 40
0.0
  9
$LOFTMAG2
 40
0.0
  9
$LOFTPARAM
 70
     7
  9
$LOFTNORMALS
280
     1
  9
$LATITUDE
 40
37.795
  9
$LONGITUDE
 40
-122.394
  9
$NORTHDIRECTION
 40
0.0
  9
$TIMEZONE
 70
 -8000
  9
$LIGHTGLYPHDISPLAY
280
     1
  9
$TILEMODELIGHTSYNCH
280
     1
  9
$CMATERIAL
347
11
  9
$SOLIDHIST
280
     0
  9
$SHOWHIST
280
     1
  9
$DWFFRAME
280
     2
  9
$DGNFRAME
280
     0
  9
$REALWORLDSCALE
290
     1
  9
$INTERFERECOLOR
 62
     1
  9
$INTERFEREOBJVS
345
33
  9
$INTERFEREVPVS
346
30
  9
$CSHADOW
280
     0
  9
$SHADOWPLANELOCATION
 40
0.0
  0
ENDSEC
  0
SECTION
  2
CLASSES
  0
CLASS
  1
ACDBDICTIONARYWDFLT
  2
AcDbDictionaryWithDefault
  3
ObjectDBX Classes
 90
        0
 91
        1
280
     0
281
     0
  0
CLASS
  1
MATERIAL
  2
AcDbMaterial
  3
ObjectDBX Classes
 90
     1153
 91
        3
280
     0
281
     0
  0
CLASS
  1
VISUALSTYLE
  2
AcDbVisualStyle
  3
ObjectDBX Classes
 90
     4095
 91
       24
280
     0
281
     0
  0
CLASS
  1
SCALE
  2
AcDbScale
  3
ObjectDBX Classes
 90
     1153
 91
       17
280
     0
281
     0
  0
CLASS
  1
TABLESTYLE
  2
AcDbTableStyle
  3
ObjectDBX Classes
 90
     4095
 91
        1
280
     0
281
     0
  0
CLASS
  1
MLEADERSTYLE
  2
AcDbMLeaderStyle
  3
ACDB_MLEADERSTYLE_CLASS
 90
     4095
 91
        1
280
     0
281
     0
  0
CLASS
  1
ACDBSECTIONVIEWSTYLE
  2
AcDbSectionViewStyle
  3
ObjectDBX Classes
 90
     1025
 91
        1
280
     0
281
     0
  0
CLASS
  1
ACDBDETAILVIEWSTYLE
  2
AcDbDetailViewStyle
  3
ObjectDBX Classes
 90
     1025
 91
        1
280
     0
281
     0
  0
CLASS
  1
DICTIONARYVAR
  2
AcDbDictionaryVar
  3
ObjectDBX Classes
 90
        0
 91
        5
280
     0
281
     0
  0
CLASS
  1
CELLSTYLEMAP
  2
AcDbCellStyleMap
  3
ObjectDBX Classes
 90
     1152
 91
        2
280
     0
281
     0
  0
CLASS
  1
SOLID_BACKGROUND
  2
AcDbSolidBackground
  3
SCENEOE
 90
     4095
 91
        1
280
     0
281
     0
  0
CLASS
  1
NPOCOLLECTION
  2
AcDbImpNonPersistentObjectsCollection
  3
ObjectDBX Classes
 90
     1153
 91
        1
280
     0
281
     0
  0
CLASS
  1
SORTENTSTABLE
  2
AcDbSortentsTable
  3
ObjectDBX Classes
 90
        0
 91
        1
280
     0
281
     0
  0
ENDSEC
  0
SECTION
  2
TABLES
  0
TABLE
  2
VPORT
  5
8
330
0
100
AcDbSymbolTable
 70
     1
1001
ACAD
1000
DbSaveVer
1071
      316
  0
VPORT
  5
57
330
8
100
AcDbSymbolTableRecord
100
AcDbViewportTableRecord
  2
*Active
 70
     0
 10
0.0
 20
0.0
 11
1.0
 21
1.0
 12
0.0
 22
0.0
 13
0.0
 23
0.0
 14
1.0
 24
1.0
 15
0.0
 25
0.0
 16
-0.0000000000001705
 26
0.0
 36
792.2377181786814
 17
178.8911656141281
 27
75.75321417045779
 37
0.0
 40
386.6112677178293
 41
1.336609336609336
 42
50.0
 43
0.0
 44
0.0
 50
0.0
 51
0.0
 71
     0
 72
   100
 73
     1
 74
     0
 75
     1
 76
     0
 77
     0
 78
     0
281
     0
 65
     1
110
0.0
120
0.0
130
0.0
111
1.0
121
0.0
131
0.0
112
0.0
122
1.0
132
0.0
 79
     0
146
0.0
348
2F
 60
     3
 61
     5
292
     1
282
     1
141
0.0
142
0.0
 63
   250
421
  3355443
1001
ACAD_NAV_VCDISPLAY
1070
     3
  0
ENDTAB
  0
TABLE
  2
LTYPE
  5
5
330
0
100
AcDbSymbolTable
 70
     1
  0
LTYPE
  5
5B
330
5
100
AcDbSymbolTableRecord
100
AcDbLinetypeTableRecord
  2
ByBlock
 70
     0
  3

 72
    65
 73
     0
 40
0.0
  0
LTYPE
  5
5C
330
5
100
AcDbSymbolTableRecord
100
AcDbLinetypeTableRecord
  2
ByLayer
 70
     0
  3

 72
    65
 73
     0
 40
0.0
  0
LTYPE
  5
5D
330
5
100
AcDbSymbolTableRecord
100
AcDbLinetypeTableRecord
  2
Continuous
 70
     0
  3
Solid line
 72
    65
 73
     0
 40
0.0
  0
ENDTAB
  0
TABLE
  2
LAYER
  5
2
102
{ACAD_XDICTIONARY
360
1B0
102
}
330
0
100
AcDbSymbolTable
 70
     2
  0
LAYER
  5
54
330
2
100
AcDbSymbolTableRecord
100
AcDbLayerTableRecord
  2
0
 70
     0
 62
     7
  6
Continuous
370
    -3
390
F
347
21
348
0
  0
LAYER
  5
78
330
2
100
AcDbSymbolTableRecord
100
AcDbLayerTableRecord
  2
레이어 1
 70
     0
 62
     7
  6
Continuous
370
     0
390
F
347
21
348
0
  0
ENDTAB
  0
TABLE
  2
STYLE
  5
3
330
0
100
AcDbSymbolTable
 70
     2
  0
STYLE
  5
55
330
3
100
AcDbSymbolTableRecord
100
AcDbTextStyleTableRecord
  2
Standard
 70
     0
 40
0.0
 41
1.0
 50
0.0
 71
     0
 42
0.2
  3
txt
  4

  0
STYLE
  5
5A
330
3
100
AcDbSymbolTableRecord
100
AcDbTextStyleTableRecord
  2
Annotative
 70
     0
 40
0.0
 41
1.0
 50
0.0
 71
     0
 42
0.2
  3
txt
  4

1001
AcadAnnotative
1000
AnnotativeData
1002
{
1070
     1
1070
     1
1002
}
  0
ENDTAB
  0
TABLE
  2
VIEW
  5
6
330
0
100
AcDbSymbolTable
 70
     1
  0
ENDTAB
  0
TABLE
  2
UCS
  5
7
330
0
100
AcDbSymbolTable
 70
     0
  0
ENDTAB
  0
TABLE
  2
APPID
  5
9
330
0
100
AcDbSymbolTable
 70
     3
  0
APPID
  5
56
330
9
100
AcDbSymbolTableRecord
100
AcDbRegAppTableRecord
  2
ACAD
 70
     0
  0
APPID
  5
5E
330
9
100
AcDbSymbolTableRecord
100
AcDbRegAppTableRecord
  2
AcadAnnotative
 70
     0
  0
APPID
  5
1B6
330
9
100
AcDbSymbolTableRecord
100
AcDbRegAppTableRecord
  2
ACAD_NAV_VCDISPLAY
 70
     0
  0
ENDTAB
  0
TABLE
  2
DIMSTYLE
  5
A
330
0
100
AcDbSymbolTable
 70
     2
100
AcDbDimStyleTable
 71
     0
  0
DIMSTYLE
105
58
330
A
100
AcDbSymbolTableRecord
100
AcDbDimStyleTableRecord
  2
Standard
 70
     0
340
55
  0
DIMSTYLE
105
59
330
A
100
AcDbSymbolTableRecord
100
AcDbDimStyleTableRecord
  2
Annotative
 70
     0
340
55
1001
AcadAnnotative
1000
AnnotativeData
1002
{
1070
     1
1070
     1
1002
}
  0
ENDTAB
  0
TABLE
  2
BLOCK_RECORD
  5
1
330
0
100
AcDbSymbolTable
 70
     4
  0
BLOCK_RECORD
  5
70
102
{ACAD_XDICTIONARY
360
1AA
102
}
330
1
100
AcDbSymbolTableRecord
100
AcDbBlockTableRecord
  2
*Model_Space
340
73
 70
     0
280
     1
281
     0
  0
BLOCK_RECORD
  5
6C
330
1
100
AcDbSymbolTableRecord
100
AcDbBlockTableRecord
  2
*Paper_Space
340
6F
 70
     0
280
     1
281
     0
  0
BLOCK_RECORD
  5
74
330
1
100
AcDbSymbolTableRecord
100
AcDbBlockTableRecord
  2
*Paper_Space0
340
77
 70
     0
280
     1
281
     0
  0
BLOCK_RECORD
  5
79
330
1
100
AcDbSymbolTableRecord
100
AcDbBlockTableRecord
  2
Block_0
340
0
102
{BLKREFS
331
7A
102
}
 70
     0
280
     1
281
     0
  0
BLOCK_RECORD
  5
7D
330
1
100
AcDbSymbolTableRecord
100
AcDbBlockTableRecord
  2
Block_1
340
0
102
{BLKREFS
331
7E
102
}
 70
     0
280
     1
281
     0
  0
BLOCK_RECORD
  5
81
330
1
100
AcDbSymbolTableRecord
100
AcDbBlockTableRecord
  2
Block_2
340
0
 70
     0
280
     1
281
     0
  0
ENDTAB
  0
ENDSEC
  0
SECTION
  2
BLOCKS
  0
BLOCK
  5
71
330
70
100
AcDbEntity
  8
0
100
AcDbBlockBegin
  2
*Model_Space
 70
     0
 10
0.0
 20
0.0
 30
0.0
  3
*Model_Space
  1

  0
ENDBLK
  5
72
330
70
100
AcDbEntity
  8
0
100
AcDbBlockEnd
  0
BLOCK
  5
6D
330
6C
100
AcDbEntity
 67
     1
  8
0
100
AcDbBlockBegin
  2
*Paper_Space
 70
     0
 10
0.0
 20
0.0
 30
0.0
  3
*Paper_Space
  1

  0
ENDBLK
  5
6E
330
6C
100
AcDbEntity
 67
     1
  8
0
100
AcDbBlockEnd
  0
BLOCK
  5
75
330
74
100
AcDbEntity
 67
     1
  8
0
100
AcDbBlockBegin
  2
*Paper_Space0
 70
     0
 10
0.0
 20
0.0
 30
0.0
  3
*Paper_Space0
  1

  0
ENDBLK
  5
76
330
74
100
AcDbEntity
 67
     1
  8
0
100
AcDbBlockEnd
  0
BLOCK
  5
7B
330
79
100
AcDbEntity
  8
0
100
AcDbBlockBegin
  2
Block_0
 70
     0
 10
0.0
 20
0.0
 30
0.0
  3
Block_0
  1

  0
ENDBLK
  5
7C
330
79
100
AcDbEntity
  8
0
100
AcDbBlockEnd
  0
BLOCK
  5
7F
330
7D
100
AcDbEntity
  8
0
100
AcDbBlockBegin
  2
Block_1
 70
     0
 10
0.0
 20
0.0
 30
0.0
  3
Block_1
  1

  0
ENDBLK
  5
80
330
7D
100
AcDbEntity
  8
0
100
AcDbBlockEnd
  0
BLOCK
  5
83
330
81
100
AcDbEntity
  8
0
100
AcDbBlockBegin
  2
Block_2
 70
     0
 10
0.0
 20
0.0
 30
0.0
  3
Block_2
  1

  0
CIRCLE
  5
85
330
81
100
AcDbEntity
  8
레이어 1
 62
    18
420
        0
370
     5
100
AcDbCircle
 10
202.178592694136
 20
123.2161019313908
 30
0.0
 40
1.60000315202321
  0
CIRCLE
  5
86
330
81
100
AcDbEntity
  8
레이어 1
 62
    18
420
        0
370
     5
100
AcDbCircle
 10
248.0585797239546
 20
142.3361015703075
 30
0.0
 40
1.600003092418556
  0
CIRCLE
  5
87
330
81
100
AcDbEntity
  8
레이어 1
 62
    18
420
        0
370
     5
100
AcDbCircle
 10
314.2685674353029
 20
136.5461022934679
 30
0.0
 40
1.6000027943954
  0
CIRCLE
  5
88
330
81
100
AcDbEntity
  8
레이어 1
 62
    18
420
        0
370
     5
100
AcDbCircle
 10
351.24857633066
 20
56.41610837876961
 30
0.0
 40
1.600002198348988
  0
CIRCLE
  5
89
330
81
100
AcDbEntity
  8
레이어 1
 62
    18
420
        0
370
     5
100
AcDbCircle
 10
286.2985983136917
 20
26.11610704027324
 30
0.0
 40
1.600002198348988
  0
CIRCLE
  5
8A
330
81
100
AcDbEntity
  8
레이어 1
 62
    18
420
        0
370
     5
100
AcDbCircle
 10
202.4485816925418
 20
5.616108199410381
 30
0.0
 40
1.600006013046038
  0
CIRCLE
  5
8B
330
81
100
AcDbEntity
  8
레이어 1
 62
    18
420
        0
370
     5
100
AcDbCircle
 10
155.3135898508729
 20
5.616108199410381
 30
0.0
 40
1.600006013046038
  0
CIRCLE
  5
8C
330
81
100
AcDbEntity
  8
레이어 1
 62
    18
420
        0
370
     5
100
AcDbCircle
 10
71.46359611790535
 20
26.11610704027324
 30
0.0
 40
1.599998383651939
  0
CIRCLE
  5
8D
330
81
100
AcDbEntity
  8
레이어 1
 62
    18
420
        0
370
     5
100
AcDbCircle
 10
6.513599504288959
 20
56.41610837876961
 30
0.0
 40
1.599999098907654
  0
CIRCLE
  5
8E
330
81
100
AcDbEntity
  8
레이어 1
 62
    18
420
        0
370
     5
100
AcDbCircle
 10
155.5835941080669
 20
123.2161019313908
 30
0.0
 40
1.60000315202321
  0
CIRCLE
  5
8F
330
81
100
AcDbEntity
  8
레이어 1
 62
    18
420
        0
370
     5
100
AcDbCircle
 10
109.7035918194601
 20
142.3361015703075
 30
0.0
 40
1.599999277721506
  0
CIRCLE
  5
90
330
81
100
AcDbEntity
  8
레이어 1
 62
    18
420
        0
370
     5
100
AcDbCircle
 10
43.49359647871772
 20
136.5461022934679
 30
0.0
 40
1.599998979698351
  0
SPLINE
  5
91
330
81
100
AcDbEntity
  8
레이어 1
 62
    18
420
        0
370
     5
100
AcDbSpline
210
0.0
220
0.0
230
1.0
 70
     8
 71
     3
 72
     8
 73
     4
 74
     0
 42
0.000000001
 43
0.0000000001
 40
0.0
 40
0.0
 40
0.0
 40
0.0
 40
1.0
 40
1.0
 40
1.0
 40
1.0
 10
319.5384951158396
 20
138.1650022625836
 30
0.0
 10
319.1291018284411
 20
139.6927512377843
 30
0.0
 10
318.021039146954
 20
140.9367182237206
 30
0.0
 10
316.5505802457236
 20
141.5193016182088
 30
0.0
  0
SPLINE
  5
92
330
81
100
AcDbEntity
  8
레이어 1
 62
    18
420
        0
370
     5
100
AcDbSpline
210
0.0
220
0.0
230
1.0
 70
    24
 71
     3
 72
     8
 73
     4
 74
     0
 42
0.000000001
 43
0.0000000001
 40
0.0
 40
0.0
 40
0.0
 40
0.0
 40
1.0
 40
1.0
 40
1.0
 40
1.0
 10
180.6976826538543
 20
128.0954027266662
 30
0.0
 10
180.6976826538543
 20
128.0954027266662
 30
0.0
 10
198.4003946655801
 20
128.0954027266662
 30
0.0
 10
198.4003946655801
 20
128.0954027266662
 30
0.0
  0
SPLINE
  5
93
330
81
100
AcDbEntity
  8
레이어 1
 62
    18
420
        0
370
     5
100
AcDbSpline
210
0.0
220
0.0
230
1.0
 70
     8
 71
     3
 72
     8
 73
     4
 74
     0
 42
0.000000001
 43
0.0000000001
 40
0.0
 40
0.0
 40
0.0
 40
0.0
 40
1.0
 40
1.0
 40
1.0
 40
1.0
 10
250.3814860867505
 20
147.4008015297901
 30
0.0
 10
249.3036052883224
 20
147.91920145432
 30
0.0
 10
248.0756085315855
 20
148.0340472005423
 30
0.0
 10
246.9202893830438
 20
147.7245014626589
 30
0.0
  0
SPLINE
  5
94
330
81
100
AcDbEntity
  8
레이어 1
 62
    18
420
        0
370
     5
100
AcDbSpline
210
0.0
220
0.0
230
1.0
 70
    24
 71
     3
 72
     8
 73
     4
 74
     0
 42
0.000000001
 43
0.0000000001
 40
0.0
 40
0.0
 40
0.0
 40
0.0
 40
1.0
 40
1.0
 40
1.0
 40
1.0
 10
299.6329786632377
 20
148.2223013078636
 30
0.0
 10
299.6329786632377
 20
148.2223013078636
 30
0.0
 10
316.5505802457236
 20
141.5193016182088
 30
0.0
 10
316.5505802457236
 20
141.5193016182088
 30
0.0
  0
SPLINE
  5
95
330
81
100
AcDbEntity
  8
레이어 1
 62
    18
420
        0
370
     5
100
AcDbSpline
210
0.0
220
0.0
230
1.0
 70
    24
 71
     3
 72
     8
 73
     4
 74
     0
 42
0.000000001
 43
0.0000000001
 40
0.0
 40
0.0
 40
0.0
 40
0.0
 40
1.0
 40
1.0
 40
1.0
 40
1.0
 10
250.3814860867505
 20
147.4008015297901
 30
0.0
 10
250.3814860867505
 20
147.4008015297901
 30
0.0
 10
257.3051001972197
 20
144.071001589131
 30
0.0
 10
257.3051001972197
 20
144.071001589131
 30
0.0
  0
SPLINE
  5
96
330
81
100
AcDbEntity
  8
레이어 1
 62
    18
420
        0
370
     5
100
AcDbSpline
210
0.0
220
0.0
230
1.0
 70
    24
 71
     3
 72
     8
 73
     4
 74
     0
 42
0.000000001
 43
0.0000000001
 40
0.0
 40
0.0
 40
0.0
 40
0.0
 40
1.0
 40
1.0
 40
1.0
 40
1.0
 10
253.9293832250079
 20
24.87560570660666
 30
0.0
 10
253.9293832250079
 20
24.87560570660666
 30
0.0
 10
206.1183812897268
 20
1.056416074417824
 30
0.0
 10
206.1183812897268
 20
1.056416074417824
 30
0.0
  0
SPLINE
  5
97
330
81
100
AcDbEntity
  8
레이어 1
 62
    18
420
        0
370
     5
100
AcDbSpline
210
0.0
220
0.0
230
1.0
 70
     8
 71
     3
 72
     8
 73
     4
 74
     0
 42
0.000000001
 43
0.0000000001
 40
0.0
 40
0.0
 40
0.0
 40
0.0
 40
1.0
 40
1.0
 40
1.0
 40
1.0
 10
100.4610920368856
 20
144.071001589131
 30
0.0
 10
103.9228914627261
 20
145.7359013210421
 30
0.0
 10
107.3846908885667
 20
147.4008015297901
 30
0.0
 10
107.3846908885667
 20
147.4008015297901
 30
0.0
  0
SPLINE
  5
98
330
81
100
AcDbEntity
  8
레이어 1
 62
    18
420
        0
370
     5
100
AcDbSpline
210
0.0
220
0.0
230
1.0
 70
    24
 71
     3
 72
     8
 73
     4
 74
     0
 42
0.000000001
 43
0.0000000001
 40
0.0
 40
0.0
 40
0.0
 40
0.0
 40
1.0
 40
1.0
 40
1.0
 40
1.0
 10
319.5384951158396
 20
138.1650022625836
 30
0.0
 10
319.5384951158396
 20
138.1650022625836
 30
0.0
 10
322.3574952005847
 20
127.6445017206675
 30
0.0
 10
322.3574952005847
 20
127.6445017206675
 30
0.0
  0
SPLINE
  5
99
330
81
100
AcDbEntity
  8
레이어 1
 62
    18
420
        0
370
     5
100
AcDbSpline
210
0.0
220
0.0
230
1.0
 70
    24
 71
     3
 72
     8
 73
     4
 74
     0
 42
0.000000001
 43
0.0000000001
 40
0.0
 40
0.0
 40
0.0
 40
0.0
 40
1.0
 40
1.0
 40
1.0
 40
1.0
 10
284.0097800837341
 20
20.81460892695139
 30
0.0
 10
284.0097800837341
 20
20.81460892695139
 30
0.0
 10
260.4229894252209
 20
25.71570880851853
 30
0.0
 10
260.4229894252209
 20
25.71570880851853
 30
0.0
  0
SPLINE
  5
9A
330
81
100
AcDbEntity
  8
레이어 1
 62
    18
420
        0
370
     5
100
AcDbSpline
210
0.0
220
0.0
230
1.0
 70
     8
 71
     3
 72
     8
 73
     4
 74
     0
 42
0.000000001
 43
0.0000000001
 40
0.0
 40
0.0
 40
0.0
 40
0.0
 40
1.0
 40
1.0
 40
1.0
 40
1.0
 10
73.75639689158321
 20
20.81460892695139
 30
0.0
 10
71.25959374906924
 20
20.29570331664357
 30
0.0
 10
68.81919471713553
 20
21.03601394372929
 30
0.0
 10
68.81919471713553
 20
21.03601394372929
 30
0.0
  0
SPLINE
  5
9B
330
81
100
AcDbEntity
  8
레이어 1
 62
    18
420
        0
370
     5
100
AcDbSpline
210
0.0
220
0.0
230
1.0
 70
     8
 71
     3
 72
     8
 73
     4
 74
     0
 42
0.000000001
 43
0.0000000001
 40
0.0
 40
0.0
 40
0.0
 40
0.0
 40
1.0
 40
1.0
 40
1.0
 40
1.0
 10
2.696999874205705
 20
52.55470417816077
 30
0.0
 10
0.0249999989589244
 20
54.92110571671994
 30
0.0
 10
1.395099918636933
 20
58.21700396785905
 30
0.0
 10
1.395099918636933
 20
58.21700396785905
 30
0.0
  0
SPLINE
  5
9C
330
81
100
AcDbEntity
  8
레이어 1
 62
    18
420
        0
370
     5
100
AcDbSpline
210
0.0
220
0.0
230
1.0
 70
    24
 71
     3
 72
     8
 73
     4
 74
     0
 42
0.000000001
 43
0.0000000001
 40
0.0
 40
0.0
 40
0.0
 40
0.0
 40
1.0
 40
1.0
 40
1.0
 40
1.0
 10
355.0691937904111
 20
52.55470417816077
 30
0.0
 10
355.0691937904111
 20
52.55470417816077
 30
0.0
 10
336.204174105148
 20
35.84701011554435
 30
0.0
 10
336.204174105148
 20
35.84701011554435
 30
0.0
  0
SPLINE
  5
9D
330
81
100
AcDbEntity
  8
레이어 1
 62
    18
420
        0
370
     5
100
AcDbSpline
210
0.0
220
0.0
230
1.0
 70
     8
 71
     3
 72
     8
 73
     4
 74
     0
 42
0.000000001
 43
0.0000000001
 40
0.0
 40
0.0
 40
0.0
 40
0.0
 40
1.0
 40
1.0
 40
1.0
 40
1.0
 10
103.8367937503092
 20
24.87560570660666
 30
0.0
 10
100.7354908250811
 20
26.42061141758681
 30
0.0
 10
97.34309599736704
 20
25.71570880851853
 30
0.0
 10
97.34309599736704
 20
25.71570880851853
 30
0.0
  0
SPLINE
  5
9E
330
81
100
AcDbEntity
  8
레이어 1
 62
    18
420
        0
370
     5
100
AcDbSpline
210
0.0
220
0.0
230
1.0
 70
    24
 71
     3
 72
     8
 73
     4
 74
     0
 42
0.000000001
 43
0.0000000001
 40
0.0
 40
0.0
 40
0.0
 40
0.0
 40
1.0
 40
1.0
 40
1.0
 40
1.0
 10
330.7063716816368
 20
119.9571032448159
 30
0.0
 10
330.7063716816368
 20
119.9571032448159
 30
0.0
 10
356.3710735996111
 20
58.21700396785905
 30
0.0
 10
356.3710735996111
 20
58.21700396785905
 30
0.0
  0
SPLINE
  5
9F
330
81
100
AcDbEntity
  8
레이어 1
 62
    18
420
        0
370
     5
100
AcDbSpline
210
0.0
220
0.0
230
1.0
 70
     8
 71
     3
 72
     8
 73
     4
 74
     0
 42
0.000000001
 43
0.0000000001
 40
0.0
 40
0.0
 40
0.0
 40
0.0
 40
1.0
 40
1.0
 40
1.0
 40
1.0
 10
1.395099918636933
 20
58.21700396785905
 30
0.0
 10
14.22739902158618
 20
89.08700496895002
 30
0.0
 10
27.05979766428626
 20
119.9571032448159
 30
0.0
 10
27.05979766428626
 20
119.9571032448159
 30
0.0
  0
SPLINE
  5
A0
330
81
100
AcDbEntity
  8
레이어 1
 62
    18
420
        0
370
     5
100
AcDbSpline
210
0.0
220
0.0
230
1.0
 70
     8
 71
     3
 72
     8
 73
     4
 74
     0
 42
0.000000001
 43
0.0000000001
 40
0.0
 40
0.0
 40
0.0
 40
0.0
 40
1.0
 40
1.0
 40
1.0
 40
1.0
 10
21.56199905547208
 20
35.84701011554435
 30
0.0
 10
12.12949970325752
 20
44.20080755579091
 30
0.0
 10
2.696999874205705
 20
52.55470417816077
 30
0.0
 10
2.696999874205705
 20
52.55470417816077
 30
0.0
  0
SPLINE
  5
A1
330
81
100
AcDbEntity
  8
레이어 1
 62
    18
420
        0
370
     5
100
AcDbSpline
210
0.0
220
0.0
230
1.0
 70
     8
 71
     3
 72
     8
 73
     4
 74
     0
 42
0.000000001
 43
0.0000000001
 40
0.0
 40
0.0
 40
0.0
 40
0.0
 40
1.0
 40
1.0
 40
1.0
 40
1.0
 10
65.53779994418025
 20
151.1560011074597
 30
0.0
 10
67.07579424198264
 20
151.7654010827385
 30
0.0
 10
68.67369454225711
 20
151.3372010948776
 30
0.0
 10
68.67369454225711
 20
151.3372010948776
 30
0.0
  0
SPLINE
  5
A2
330
81
100
AcDbEntity
  8
레이어 1
 62
    18
420
        0
370
     5
100
AcDbSpline
210
0.0
220
0.0
230
1.0
 70
     8
 71
     3
 72
     8
 73
     4
 74
     0
 42
0.000000001
 43
0.0000000001
 40
0.0
 40
0.0
 40
0.0
 40
0.0
 40
1.0
 40
1.0
 40
1.0
 40
1.0
 10
355.0691937904111
 20
52.55460499603746
 30
0.0
 10
356.6677959949428
 20
53.9704145473306
 30
0.0
 10
357.1908062192763
 20
56.24518706275047
 30
0.0
 10
356.3710735996111
 20
58.21700396785905
 30
0.0
  0
SPLINE
  5
A3
330
81
100
AcDbEntity
  8
레이어 1
 62
    18
420
        0
370
     5
100
AcDbSpline
210
0.0
220
0.0
230
1.0
 70
     8
 71
     3
 72
     8
 73
     4
 74
     0
 42
0.000000001
 43
0.0000000001
 40
0.0
 40
0.0
 40
0.0
 40
0.0
 40
1.0
 40
1.0
 40
1.0
 40
1.0
 10
23.42569790944286
 20
34.8054070860611
 30
0.0
 10
22.38009898479996
 20
35.12250759303353
 30
0.0
 10
21.56199905547208
 20
35.84701011554435
 30
0.0
 10
21.56199905547208
 20
35.84701011554435
 30
0.0
  0
SPLINE
  5
A4
330
81
100
AcDbEntity
  8
레이어 1
 62
    18
420
        0
370
     5
100
AcDbSpline
210
0.0
220
0.0
230
1.0
 70
    24
 71
     3
 72
     8
 73
     4
 74
     0
 42
0.000000001
 43
0.0000000001
 40
0.0
 40
0.0
 40
0.0
 40
0.0
 40
1.0
 40
1.0
 40
1.0
 40
1.0
 10
201.6591835438176
 20
0.0071149862878123
 30
0.0
 10
201.6591835438176
 20
0.0071149862878123
 30
0.0
 10
178.8830923023555
 20
0.0071149862878123
 30
0.0
 10
178.8830923023555
 20
0.0071149862878123
 30
0.0
  0
SPLINE
  5
A5
330
81
100
AcDbEntity
  8
레이어 1
 62
    18
420
        0
370
     5
100
AcDbSpline
210
0.0
220
0.0
230
1.0
 70
     8
 71
     3
 72
     8
 73
     4
 74
     0
 42
0.000000001
 43
0.0000000001
 40
0.0
 40
0.0
 40
0.0
 40
0.0
 40
1.0
 40
1.0
 40
1.0
 40
1.0
 10
27.05979766428626
 20
119.9571032448159
 30
0.0
 10
27.71249805157494
 20
121.5274023045854
 30
0.0
 10
29.18729807804819
 20
122.3740018355733
 30
0.0
 10
29.18729807804819
 20
122.3740018355733
 30
0.0
  0
SPLINE
  5
A6
330
81
100
AcDbEntity
  8
레이어 1
 62
    18
420
        0
370
     5
100
AcDbSpline
210
0.0
220
0.0
230
1.0
 70
     8
 71
     3
 72
     8
 73
     4
 74
     0
 42
0.000000001
 43
0.0000000001
 40
0.0
 40
0.0
 40
0.0
 40
0.0
 40
1.0
 40
1.0
 40
1.0
 40
1.0
 10
257.3051001972197
 20
144.071001589131
 30
0.0
 10
258.3829809956478
 20
143.5525790148371
 30
0.0
 10
259.6109777523846
 20
143.4377327917776
 30
0.0
 10
260.7662816421381
 20
143.7473011794253
 30
0.0
  0
SPLINE
  5
A7
330
81
100
AcDbEntity
  8
레이어 1
 62
    18
420
        0
370
     5
100
AcDbSpline
210
0.0
220
0.0
230
1.0
 70
    24
 71
     3
 72
     8
 73
     4
 74
     0
 42
0.000000001
 43
0.0000000001
 40
0.0
 40
0.0
 40
0.0
 40
0.0
 40
1.0
 40
1.0
 40
1.0
 40
1.0
 10
201.3796883203634
 20
129.0799016486604
 30
0.0
 10
201.3796883203634
 20
129.0799016486604
 30
0.0
 10
214.2056916234594
 20
138.5960019940728
 30
0.0
 10
214.2056916234594
 20
138.5960019940728
 30
0.0
  0
SPLINE
  5
A8
330
81
100
AcDbEntity
  8
레이어 1
 62
    18
420
        0
370
     5
100
AcDbSpline
210
0.0
220
0.0
230
1.0
 70
     8
 71
     3
 72
     8
 73
     4
 74
     0
 42
0.000000001
 43
0.0000000001
 40
0.0
 40
0.0
 40
0.0
 40
0.0
 40
1.0
 40
1.0
 40
1.0
 40
1.0
 10
110.8458952216674
 20
147.7245014626589
 30
0.0
 10
126.3605961876771
 20
143.5673018381015
 30
0.0
 10
141.875388706416
 20
139.4102013956673
 30
0.0
 10
141.875388706416
 20
139.4102013956673
 30
0.0
  0
SPLINE
  5
A9
330
81
100
AcDbEntity
  8
레이어 1
 62
    18
420
        0
370
     5
100
AcDbSpline
210
0.0
220
0.0
230
1.0
 70
     8
 71
     3
 72
     8
 73
     4
 74
     0
 42
0.000000001
 43
0.0000000001
 40
0.0
 40
0.0
 40
0.0
 40
0.0
 40
1.0
 40
1.0
 40
1.0
 40
1.0
 10
141.875388706416
 20
139.4102013956673
 30
0.0
 10
142.795493634859
 20
139.163602212223
 30
0.0
 10
143.5604929812518
 20
138.5960019940728
 30
0.0
 10
143.5604929812518
 20
138.5960019940728
 30
0.0
  0
SPLINE
  5
AA
330
81
100
AcDbEntity
  8
레이어 1
 62
    18
420
        0
370
     5
100
AcDbSpline
210
0.0
220
0.0
230
1.0
 70
     8
 71
     3
 72
     8
 73
     4
 74
     0
 42
0.000000001
 43
0.0000000001
 40
0.0
 40
0.0
 40
0.0
 40
0.0
 40
1.0
 40
1.0
 40
1.0
 40
1.0
 10
284.0097800837341
 20
20.81460892695139
 30
0.0
 10
285.6481161727377
 20
20.47415484463927
 30
0.0
 10
287.3456868775327
 20
20.55028093896767
 30
0.0
 10
288.9469746287876
 20
21.03601394372929
 30
0.0
  0
SPLINE
  5
AB
330
81
100
AcDbEntity
  8
레이어 1
 62
    18
420
        0
370
     5
100
AcDbSpline
210
0.0
220
0.0
230
1.0
 70
     8
 71
     3
 72
     8
 73
     4
 74
     0
 42
0.000000001
 43
0.0000000001
 40
0.0
 40
0.0
 40
0.0
 40
0.0
 40
1.0
 40
1.0
 40
1.0
 40
1.0
 10
201.6591835438176
 20
0.0071149862878123
 30
0.0
 10
203.2067603606094
 20
0.0071149862878123
 30
0.0
 10
204.7332037557446
 20
0.3663068605091761
 30
0.0
 10
206.1183812897268
 20
1.056416074417824
 30
0.0
  0
SPLINE
  5
AC
330
81
100
AcDbEntity
  8
레이어 1
 62
    18
420
        0
370
     5
100
AcDbSpline
210
0.0
220
0.0
230
1.0
 70
     8
 71
     3
 72
     8
 73
     4
 74
     0
 42
0.000000001
 43
0.0000000001
 40
0.0
 40
0.0
 40
0.0
 40
0.0
 40
1.0
 40
1.0
 40
1.0
 40
1.0
 10
151.6477880561962
 20
1.056416074417824
 30
0.0
 10
127.7422947179498
 20
12.96600707581519
 30
0.0
 10
103.8367937503092
 20
24.87560570660666
 30
0.0
 10
103.8367937503092
 20
24.87560570660666
 30
0.0
  0
SPLINE
  5
AD
330
81
100
AcDbEntity
  8
레이어 1
 62
    18
420
        0
370
     5
100
AcDbSpline
210
0.0
220
0.0
230
1.0
 70
    24
 71
     3
 72
     8
 73
     4
 74
     0
 42
0.000000001
 43
0.0000000001
 40
0.0
 40
0.0
 40
0.0
 40
0.0
 40
1.0
 40
1.0
 40
1.0
 40
1.0
 10
215.8907806395071
 20
139.4102013956673
 30
0.0
 10
215.8907806395071
 20
139.4102013956673
 30
0.0
 10
246.9202893830438
 20
147.7245014626589
 30
0.0
 10
246.9202893830438
 20
147.7245014626589
 30
0.0
  0
SPLINE
  5
AE
330
81
100
AcDbEntity
  8
레이어 1
 62
    18
420
        0
370
     5
100
AcDbSpline
210
0.0
220
0.0
230
1.0
 70
     8
 71
     3
 72
     8
 73
     4
 74
     0
 42
0.000000001
 43
0.0000000001
 40
0.0
 40
0.0
 40
0.0
 40
0.0
 40
1.0
 40
1.0
 40
1.0
 40
1.0
 10
68.81919471713553
 20
21.03601394372929
 30
0.0
 10
46.1224987653737
 20
27.9207105148952
 30
0.0
 10
23.42569790944286
 20
34.8054070860611
 30
0.0
 10
23.42569790944286
 20
34.8054070860611
 30
0.0
  0
SPLINE
  5
AF
330
81
100
AcDbEntity
  8
레이어 1
 62
    18
420
        0
370
     5
100
AcDbSpline
210
0.0
220
0.0
230
1.0
 70
    24
 71
     3
 72
     8
 73
     4
 74
     0
 42
0.000000001
 43
0.0000000001
 40
0.0
 40
0.0
 40
0.0
 40
0.0
 40
1.0
 40
1.0
 40
1.0
 40
1.0
 10
159.365789939131
 20
128.0954027266662
 30
0.0
 10
159.365789939131
 20
128.0954027266662
 30
0.0
 10
180.6976826538543
 20
128.0954027266662
 30
0.0
 10
180.6976826538543
 20
128.0954027266662
 30
0.0
  0
SPLINE
  5
B0
330
81
100
AcDbEntity
  8
레이어 1
 62
    18
420
        0
370
     5
100
AcDbSpline
210
0.0
220
0.0
230
1.0
 70
    24
 71
     3
 72
     8
 73
     4
 74
     0
 42
0.000000001
 43
0.0000000001
 40
0.0
 40
0.0
 40
0.0
 40
0.0
 40
1.0
 40
1.0
 40
1.0
 40
1.0
 10
41.21549754747031
 20
141.5193016182088
 30
0.0
 10
41.21549754747031
 20
141.5193016182088
 30
0.0
 10
58.13319831207945
 20
148.2223013078636
 30
0.0
 10
58.13319831207945
 20
148.2223013078636
 30
0.0
  0
SPLINE
  5
B1
330
81
100
AcDbEntity
  8
레이어 1
 62
    18
420
        0
370
     5
100
AcDbSpline
210
0.0
220
0.0
230
1.0
 70
    24
 71
     3
 72
     8
 73
     4
 74
     0
 42
0.000000001
 43
0.0000000001
 40
0.0
 40
0.0
 40
0.0
 40
0.0
 40
1.0
 40
1.0
 40
1.0
 40
1.0
 10
260.7662816421381
 20
143.7473011794253
 30
0.0
 10
260.7662816421381
 20
143.7473011794253
 30
0.0
 10
289.0924824330601
 20
151.3372010948776
 30
0.0
 10
289.0924824330601
 20
151.3372010948776
 30
0.0
  0
SPLINE
  5
B2
330
81
100
AcDbEntity
  8
레이어 1
 62
    18
420
        0
370
     5
100
AcDbSpline
210
0.0
220
0.0
230
1.0
 70
     8
 71
     3
 72
     8
 73
     4
 74
     0
 42
0.000000001
 43
0.0000000001
 40
0.0
 40
0.0
 40
0.0
 40
0.0
 40
1.0
 40
1.0
 40
1.0
 40
1.0
 10
260.4229894252209
 20
25.71570880851853
 30
0.0
 10
258.2255103014268
 20
26.17233567478919
 30
0.0
 10
255.9383095030182
 20
25.87642962462616
 30
0.0
 10
253.9293832250079
 20
24.87560570660666
 30
0.0
  0
SPLINE
  5
B3
330
81
100
AcDbEntity
  8
레이어 1
 62
    18
420
        0
370
     5
100
AcDbSpline
210
0.0
220
0.0
230
1.0
 70
     8
 71
     3
 72
     8
 73
     4
 74
     0
 42
0.000000001
 43
0.0000000001
 40
0.0
 40
0.0
 40
0.0
 40
0.0
 40
1.0
 40
1.0
 40
1.0
 40
1.0
 10
33.06859783112079
 20
124.6024028936543
 30
0.0
 10
34.8707980466013
 20
125.6371032288258
 30
0.0
 10
35.40869703352071
 20
127.6445017206675
 30
0.0
 10
35.40869703352071
 20
127.6445017206675
 30
0.0
  0
SPLINE
  5
B4
330
81
100
AcDbEntity
  8
레이어 1
 62
    18
420
        0
370
     5
100
AcDbSpline
210
0.0
220
0.0
230
1.0
 70
     8
 71
     3
 72
     8
 73
     4
 74
     0
 42
0.000000001
 43
0.0000000001
 40
0.0
 40
0.0
 40
0.0
 40
0.0
 40
1.0
 40
1.0
 40
1.0
 40
1.0
 10
156.3864962843479
 20
129.0799016486604
 30
0.0
 10
157.7134920589245
 20
128.0954027266662
 30
0.0
 10
159.365789939131
 20
128.0954027266662
 30
0.0
 10
159.365789939131
 20
128.0954027266662
 30
0.0
  0
SPLINE
  5
B5
330
81
100
AcDbEntity
  8
레이어 1
 62
    18
420
        0
370
     5
100
AcDbSpline
210
0.0
220
0.0
230
1.0
 70
     8
 71
     3
 72
     8
 73
     4
 74
     0
 42
0.000000001
 43
0.0000000001
 40
0.0
 40
0.0
 40
0.0
 40
0.0
 40
1.0
 40
1.0
 40
1.0
 40
1.0
 10
38.22769711826583
 20
138.1650022625836
 30
0.0
 10
38.87829751482835
 20
140.5933020291494
 30
0.0
 10
41.21549754747031
 20
141.5193016182088
 30
0.0
 10
41.21549754747031
 20
141.5193016182088
 30
0.0
  0
SPLINE
  5
B6
330
81
100
AcDbEntity
  8
레이어 1
 62
    18
420
        0
370
     5
100
AcDbSpline
210
0.0
220
0.0
230
1.0
 70
    24
 71
     3
 72
     8
 73
     4
 74
     0
 42
0.000000001
 43
0.0000000001
 40
0.0
 40
0.0
 40
0.0
 40
0.0
 40
1.0
 40
1.0
 40
1.0
 40
1.0
 10
58.13319831207945
 20
148.2223013078636
 30
0.0
 10
58.13319831207945
 20
148.2223013078636
 30
0.0
 10
65.53779994418025
 20
151.1560011074597
 30
0.0
 10
65.53779994418025
 20
151.1560011074597
 30
0.0
  0
SPLINE
  5
B7
330
81
100
AcDbEntity
  8
레이어 1
 62
    18
420
        0
370
     5
100
AcDbSpline
210
0.0
220
0.0
230
1.0
 70
    24
 71
     3
 72
     8
 73
     4
 74
     0
 42
0.000000001
 43
0.0000000001
 40
0.0
 40
0.0
 40
0.0
 40
0.0
 40
1.0
 40
1.0
 40
1.0
 40
1.0
 10
292.2282854784076
 20
151.1560011074597
 30
0.0
 10
292.2282854784076
 20
151.1560011074597
 30
0.0
 10
299.6329786632377
 20
148.2223013078636
 30
0.0
 10
299.6329786632377
 20
148.2223013078636
 30
0.0
  0
SPLINE
  5
B8
330
81
100
AcDbEntity
  8
레이어 1
 62
    18
420
        0
370
     5
100
AcDbSpline
210
0.0
220
0.0
230
1.0
 70
     8
 71
     3
 72
     8
 73
     4
 74
     0
 42
0.000000001
 43
0.0000000001
 40
0.0
 40
0.0
 40
0.0
 40
0.0
 40
1.0
 40
1.0
 40
1.0
 40
1.0
 10
107.3846908885667
 20
147.4008015297901
 30
0.0
 10
109.0552916852187
 20
148.2043011829964
 30
0.0
 10
110.8458952216674
 20
147.7245014626589
 30
0.0
 10
110.8458952216674
 20
147.7245014626589
 30
0.0
  0
SPLINE
  5
B9
330
81
100
AcDbEntity
  8
레이어 1
 62
    18
420
        0
370
     5
100
AcDbSpline
210
0.0
220
0.0
230
1.0
 70
     8
 71
     3
 72
     8
 73
     4
 74
     0
 42
0.000000001
 43
0.0000000001
 40
0.0
 40
0.0
 40
0.0
 40
0.0
 40
1.0
 40
1.0
 40
1.0
 40
1.0
 10
29.18729807804819
 20
122.3740018355733
 30
0.0
 10
31.1278974098485
 20
123.4882023646138
 30
0.0
 10
33.06859783112079
 20
124.6024028936543
 30
0.0
 10
33.06859783112079
 20
124.6024028936543
 30
0.0
  0
SPLINE
  5
BA
330
81
100
AcDbEntity
  8
레이어 1
 62
    18
420
        0
370
     5
100
AcDbSpline
210
0.0
220
0.0
230
1.0
 70
     8
 71
     3
 72
     8
 73
     4
 74
     0
 42
0.000000001
 43
0.0000000001
 40
0.0
 40
0.0
 40
0.0
 40
0.0
 40
1.0
 40
1.0
 40
1.0
 40
1.0
 10
198.4003946655801
 20
128.0954027266662
 30
0.0
 10
199.4734079105725
 20
128.0953798384839
 30
0.0
 10
200.5179635155725
 20
128.4405488863497
 30
0.0
 10
201.3796883203634
 20
129.0799016486604
 30
0.0
  0
SPLINE
  5
BB
330
81
100
AcDbEntity
  8
레이어 1
 62
    18
420
        0
370
     5
100
AcDbSpline
210
0.0
220
0.0
230
1.0
 70
    24
 71
     3
 72
     8
 73
     4
 74
     0
 42
0.000000001
 43
0.0000000001
 40
0.0
 40
0.0
 40
0.0
 40
0.0
 40
1.0
 40
1.0
 40
1.0
 40
1.0
 10
178.8830923023555
 20
0.0071149862878123
 30
0.0
 10
178.8830923023555
 20
0.0071149862878123
 30
0.0
 10
156.1069858021054
 20
0.0071149862878123
 30
0.0
 10
156.1069858021054
 20
0.0071149862878123
 30
0.0
  0
SPLINE
  5
BC
330
81
100
AcDbEntity
  8
레이어 1
 62
    18
420
        0
370
     5
100
AcDbSpline
210
0.0
220
0.0
230
1.0
 70
     8
 71
     3
 72
     8
 73
     4
 74
     0
 42
0.000000001
 43
0.0000000001
 40
0.0
 40
0.0
 40
0.0
 40
0.0
 40
1.0
 40
1.0
 40
1.0
 40
1.0
 10
96.99989533317896
 20
143.7473011794253
 30
0.0
 10
98.7904912402336
 20
143.2675019359246
 30
0.0
 10
100.4610920368856
 20
144.071001589131
 30
0.0
 10
100.4610920368856
 20
144.071001589131
 30
0.0
  0
SPLINE
  5
BD
330
81
100
AcDbEntity
  8
레이어 1
 62
    18
420
        0
370
     5
100
AcDbSpline
210
0.0
220
0.0
230
1.0
 70
    24
 71
     3
 72
     8
 73
     4
 74
     0
 42
0.000000001
 43
0.0000000001
 40
0.0
 40
0.0
 40
0.0
 40
0.0
 40
1.0
 40
1.0
 40
1.0
 40
1.0
 10
334.3404962320109
 20
34.8054070860611
 30
0.0
 10
334.3404962320109
 20
34.8054070860611
 30
0.0
 10
288.9469746287876
 20
21.03601394372929
 30
0.0
 10
288.9469746287876
 20
21.03601394372929
 30
0.0
  0
SPLINE
  5
BE
330
81
100
AcDbEntity
  8
레이어 1
 62
    18
420
        0
370
     5
100
AcDbSpline
210
0.0
220
0.0
230
1.0
 70
     8
 71
     3
 72
     8
 73
     4
 74
     0
 42
0.000000001
 43
0.0000000001
 40
0.0
 40
0.0
 40
0.0
 40
0.0
 40
1.0
 40
1.0
 40
1.0
 40
1.0
 10
330.7063716816368
 20
119.9571032448159
 30
0.0
 10
330.2830928969767
 20
120.9752840344126
 30
0.0
 10
329.5351376170029
 20
121.8249925434962
 30
0.0
 10
328.5788693605265
 20
122.3740018355733
 30
0.0
  0
SPLINE
  5
BF
330
81
100
AcDbEntity
  8
레이어 1
 62
    18
420
        0
370
     5
100
AcDbSpline
210
0.0
220
0.0
230
1.0
 70
     8
 71
     3
 72
     8
 73
     4
 74
     0
 42
0.000000001
 43
0.0000000001
 40
0.0
 40
0.0
 40
0.0
 40
0.0
 40
1.0
 40
1.0
 40
1.0
 40
1.0
 10
292.2283770311369
 20
151.1561011240478
 30
0.0
 10
291.2296893434654
 20
151.5517732143785
 30
0.0
 10
290.1300800306409
 20
151.615274732733
 30
0.0
 10
289.0924824330601
 20
151.3372010948776
 30
0.0
  0
SPLINE
  5
C0
330
81
100
AcDbEntity
  8
레이어 1
 62
    18
420
        0
370
     5
100
AcDbSpline
210
0.0
220
0.0
230
1.0
 70
     8
 71
     3
 72
     8
 73
     4
 74
     0
 42
0.000000001
 43
0.0000000001
 40
0.0
 40
0.0
 40
0.0
 40
0.0
 40
1.0
 40
1.0
 40
1.0
 40
1.0
 10
215.8907806395071
 20
139.410102213544
 30
0.0
 10
215.2828552588421
 20
139.2472070201179
 30
0.0
 10
214.7111389825751
 20
138.9710029265436
 30
0.0
 10
214.2056916234594
 20
138.5960019940728
 30
0.0
  0
SPLINE
  5
C1
330
81
100
AcDbEntity
  8
레이어 1
 62
    18
420
        0
370
     5
100
AcDbSpline
210
0.0
220
0.0
230
1.0
 70
     8
 71
     3
 72
     8
 73
     4
 74
     0
 42
0.000000001
 43
0.0000000001
 40
0.0
 40
0.0
 40
0.0
 40
0.0
 40
1.0
 40
1.0
 40
1.0
 40
1.0
 10
97.34309599736704
 20
25.71570880851853
 30
0.0
 10
85.5497922208397
 20
23.26510927667331
 30
0.0
 10
73.75639689158321
 20
20.81460892695139
 30
0.0
 10
73.75639689158321
 20
20.81460892695139
 30
0.0
  0
SPLINE
  5
C2
330
81
100
AcDbEntity
  8
레이어 1
 62
    18
420
        0
370
     5
100
AcDbSpline
210
0.0
220
0.0
230
1.0
 70
     8
 71
     3
 72
     8
 73
     4
 74
     0
 42
0.000000001
 43
0.0000000001
 40
0.0
 40
0.0
 40
0.0
 40
0.0
 40
1.0
 40
1.0
 40
1.0
 40
1.0
 10
322.3574952005847
 20
127.6445017206675
 30
0.0
 10
322.7017639799467
 20
126.3595420002323
 30
0.0
 10
323.5439270182656
 20
125.264754464479
 30
0.0
 10
324.6975829588933
 20
124.6024028936543
 30
0.0
  0
SPLINE
  5
C3
330
81
100
AcDbEntity
  8
레이어 1
 62
    18
420
        0
370
     5
100
AcDbSpline
210
0.0
220
0.0
230
1.0
 70
    24
 71
     3
 72
     8
 73
     4
 74
     0
 42
0.000000001
 43
0.0000000001
 40
0.0
 40
0.0
 40
0.0
 40
0.0
 40
1.0
 40
1.0
 40
1.0
 40
1.0
 10
324.6975829588933
 20
124.6024028936543
 30
0.0
 10
324.6975829588933
 20
124.6024028936543
 30
0.0
 10
328.5788693605265
 20
122.3740018355733
 30
0.0
 10
328.5788693605265
 20
122.3740018355733
 30
0.0
  0
SPLINE
  5
C4
330
81
100
AcDbEntity
  8
레이어 1
 62
    18
420
        0
370
     5
100
AcDbSpline
210
0.0
220
0.0
230
1.0
 70
     8
 71
     3
 72
     8
 73
     4
 74
     0
 42
0.000000001
 43
0.0000000001
 40
0.0
 40
0.0
 40
0.0
 40
0.0
 40
1.0
 40
1.0
 40
1.0
 40
1.0
 10
35.40869703352071
 20
127.6445017206675
 30
0.0
 10
36.81819707589327
 20
132.9047019237268
 30
0.0
 10
38.22769711826583
 20
138.1650022625836
 30
0.0
 10
38.22769711826583
 20
138.1650022625836
 30
0.0
  0
SPLINE
  5
C5
330
81
100
AcDbEntity
  8
레이어 1
 62
    18
420
        0
370
     5
100
AcDbSpline
210
0.0
220
0.0
230
1.0
 70
     8
 71
     3
 72
     8
 73
     4
 74
     0
 42
0.000000001
 43
0.0000000001
 40
0.0
 40
0.0
 40
0.0
 40
0.0
 40
1.0
 40
1.0
 40
1.0
 40
1.0
 10
156.1069858021054
 20
0.0071149862878123
 30
0.0
 10
153.7538975562505
 20
0.0071149862878123
 30
0.0
 10
151.6477880561962
 20
1.056416074417824
 30
0.0
 10
151.6477880561962
 20
1.056416074417824
 30
0.0
  0
SPLINE
  5
C6
330
81
100
AcDbEntity
  8
레이어 1
 62
    18
420
        0
370
     5
100
AcDbSpline
210
0.0
220
0.0
230
1.0
 70
     8
 71
     3
 72
     8
 73
     4
 74
     0
 42
0.000000001
 43
0.0000000001
 40
0.0
 40
0.0
 40
0.0
 40
0.0
 40
1.0
 40
1.0
 40
1.0
 40
1.0
 10
334.3404962320109
 20
34.8054070860611
 30
0.0
 10
335.0294610368046
 20
35.01436856106213
 30
0.0
 10
335.6652031883576
 20
35.36966944429257
 30
0.0
 10
336.204174105148
 20
35.84701011554435
 30
0.0
  0
SPLINE
  5
C7
330
81
100
AcDbEntity
  8
레이어 1
 62
    18
420
        0
370
     5
100
AcDbSpline
210
0.0
220
0.0
230
1.0
 70
     8
 71
     3
 72
     8
 73
     4
 74
     0
 42
0.000000001
 43
0.0000000001
 40
0.0
 40
0.0
 40
0.0
 40
0.0
 40
1.0
 40
1.0
 40
1.0
 40
1.0
 10
68.67369454225711
 20
151.3372010948776
 30
0.0
 10
82.83679493771805
 20
147.5423015179746
 30
0.0
 10
96.99989533317896
 20
143.7473011794253
 30
0.0
 10
96.99989533317896
 20
143.7473011794253
 30
0.0
  0
SPLINE
  5
C8
330
81
100
AcDbEntity
  8
레이어 1
 62
    18
420
        0
370
     5
100
AcDbSpline
210
0.0
220
0.0
230
1.0
 70
     8
 71
     3
 72
     8
 73
     4
 74
     0
 42
0.000000001
 43
0.0000000001
 40
0.0
 40
0.0
 40
0.0
 40
0.0
 40
1.0
 40
1.0
 40
1.0
 40
1.0
 10
143.5604929812518
 20
138.5960019940728
 30
0.0
 10
149.9734870034057
 20
133.8380018892655
 30
0.0
 10
156.3864962843479
 20
129.0799016486604
 30
0.0
 10
156.3864962843479
 20
129.0799016486604
 30
0.0
  0
CIRCLE
  5
C9
330
81
100
AcDbEntity
  8
레이어 1
 62
    18
420
        0
370
     5
100
AcDbCircle
 10
202.178592694136
 20
123.2161019313908
 30
0.0
 40
1.60000315202321
  0
CIRCLE
  5
CA
330
81
100
AcDbEntity
  8
레이어 1
 62
    18
420
        0
370
     5
100
AcDbCircle
 10
248.0585797239546
 20
142.3361015703075
 30
0.0
 40
1.600003092418556
  0
CIRCLE
  5
CB
330
81
100
AcDbEntity
  8
레이어 1
 62
    18
420
        0
370
     5
100
AcDbCircle
 10
314.2685674353029
 20
136.5461022934679
 30
0.0
 40
1.6000027943954
  0
CIRCLE
  5
CC
330
81
100
AcDbEntity
  8
레이어 1
 62
    18
420
        0
370
     5
100
AcDbCircle
 10
351.24857633066
 20
56.41610837876961
 30
0.0
 40
1.600002198348988
  0
CIRCLE
  5
CD
330
81
100
AcDbEntity
  8
레이어 1
 62
    18
420
        0
370
     5
100
AcDbCircle
 10
286.2985983136917
 20
26.11610704027324
 30
0.0
 40
1.600002198348988
  0
CIRCLE
  5
CE
330
81
100
AcDbEntity
  8
레이어 1
 62
    18
420
        0
370
     5
100
AcDbCircle
 10
202.4485816925418
 20
5.616108199410381
 30
0.0
 40
1.600006013046038
  0
CIRCLE
  5
CF
330
81
100
AcDbEntity
  8
레이어 1
 62
    18
420
        0
370
     5
100
AcDbCircle
 10
155.3135898508729
 20
5.616108199410381
 30
0.0
 40
1.600006013046038
  0
CIRCLE
  5
D0
330
81
100
AcDbEntity
  8
레이어 1
 62
    18
420
        0
370
     5
100
AcDbCircle
 10
71.46359611790535
 20
26.11610704027324
 30
0.0
 40
1.599998383651939
  0
CIRCLE
  5
D1
330
81
100
AcDbEntity
  8
레이어 1
 62
    18
420
        0
370
     5
100
AcDbCircle
 10
6.513599504288959
 20
56.41610837876961
 30
0.0
 40
1.599999098907654
  0
CIRCLE
  5
D2
330
81
100
AcDbEntity
  8
레이어 1
 62
    18
420
        0
370
     5
100
AcDbCircle
 10
155.5835941080669
 20
123.2161019313908
 30
0.0
 40
1.60000315202321
  0
CIRCLE
  5
D3
330
81
100
AcDbEntity
  8
레이어 1
 62
    18
420
        0
370
     5
100
AcDbCircle
 10
109.7035918194601
 20
142.3361015703075
 30
0.0
 40
1.599999277721506
  0
CIRCLE
  5
D4
330
81
100
AcDbEntity
  8
레이어 1
 62
    18
420
        0
370
     5
100
AcDbCircle
 10
43.49359647871772
 20
136.5461022934679
 30
0.0
 40
1.599998979698351
  0
SPLINE
  5
D5
330
81
100
AcDbEntity
  8
레이어 1
 62
    18
420
        0
370
     5
100
AcDbSpline
210
0.0
220
0.0
230
1.0
 70
     8
 71
     3
 72
     8
 73
     4
 74
     0
 42
0.000000001
 43
0.0000000001
 40
0.0
 40
0.0
 40
0.0
 40
0.0
 40
1.0
 40
1.0
 40
1.0
 40
1.0
 10
319.5384951158396
 20
138.1650022625836
 30
0.0
 10
319.1291018284411
 20
139.6927512377843
 30
0.0
 10
318.021039146954
 20
140.9367182237206
 30
0.0
 10
316.5505802457236
 20
141.5193016182088
 30
0.0
  0
SPLINE
  5
D6
330
81
100
AcDbEntity
  8
레이어 1
 62
    18
420
        0
370
     5
100
AcDbSpline
210
0.0
220
0.0
230
1.0
 70
    24
 71
     3
 72
     8
 73
     4
 74
     0
 42
0.000000001
 43
0.0000000001
 40
0.0
 40
0.0
 40
0.0
 40
0.0
 40
1.0
 40
1.0
 40
1.0
 40
1.0
 10
180.6976826538543
 20
128.0954027266662
 30
0.0
 10
180.6976826538543
 20
128.0954027266662
 30
0.0
 10
198.4003946655801
 20
128.0954027266662
 30
0.0
 10
198.4003946655801
 20
128.0954027266662
 30
0.0
  0
SPLINE
  5
D7
330
81
100
AcDbEntity
  8
레이어 1
 62
    18
420
        0
370
     5
100
AcDbSpline
210
0.0
220
0.0
230
1.0
 70
     8
 71
     3
 72
     8
 73
     4
 74
     0
 42
0.000000001
 43
0.0000000001
 40
0.0
 40
0.0
 40
0.0
 40
0.0
 40
1.0
 40
1.0
 40
1.0
 40
1.0
 10
250.3814860867505
 20
147.4008015297901
 30
0.0
 10
249.3036052883224
 20
147.91920145432
 30
0.0
 10
248.0756085315855
 20
148.0340472005423
 30
0.0
 10
246.9202893830438
 20
147.7245014626589
 30
0.0
  0
SPLINE
  5
D8
330
81
100
AcDbEntity
  8
레이어 1
 62
    18
420
        0
370
     5
100
AcDbSpline
210
0.0
220
0.0
230
1.0
 70
    24
 71
     3
 72
     8
 73
     4
 74
     0
 42
0.000000001
 43
0.0000000001
 40
0.0
 40
0.0
 40
0.0
 40
0.0
 40
1.0
 40
1.0
 40
1.0
 40
1.0
 10
299.6329786632377
 20
148.2223013078636
 30
0.0
 10
299.6329786632377
 20
148.2223013078636
 30
0.0
 10
316.5505802457236
 20
141.5193016182088
 30
0.0
 10
316.5505802457236
 20
141.5193016182088
 30
0.0
  0
SPLINE
  5
D9
330
81
100
AcDbEntity
  8
레이어 1
 62
    18
420
        0
370
     5
100
AcDbSpline
210
0.0
220
0.0
230
1.0
 70
    24
 71
     3
 72
     8
 73
     4
 74
     0
 42
0.000000001
 43
0.0000000001
 40
0.0
 40
0.0
 40
0.0
 40
0.0
 40
1.0
 40
1.0
 40
1.0
 40
1.0
 10
250.3814860867505
 20
147.4008015297901
 30
0.0
 10
250.3814860867505
 20
147.4008015297901
 30
0.0
 10
257.3051001972197
 20
144.071001589131
 30
0.0
 10
257.3051001972197
 20
144.071001589131
 30
0.0
  0
SPLINE
  5
DA
330
81
100
AcDbEntity
  8
레이어 1
 62
    18
420
        0
370
     5
100
AcDbSpline
210
0.0
220
0.0
230
1.0
 70
    24
 71
     3
 72
     8
 73
     4
 74
     0
 42
0.000000001
 43
0.0000000001
 40
0.0
 40
0.0
 40
0.0
 40
0.0
 40
1.0
 40
1.0
 40
1.0
 40
1.0
 10
253.9293832250079
 20
24.87560570660666
 30
0.0
 10
253.9293832250079
 20
24.87560570660666
 30
0.0
 10
206.1183812897268
 20
1.056416074417824
 30
0.0
 10
206.1183812897268
 20
1.056416074417824
 30
0.0
  0
SPLINE
  5
DB
330
81
100
AcDbEntity
  8
레이어 1
 62
    18
420
        0
370
     5
100
AcDbSpline
210
0.0
220
0.0
230
1.0
 70
     8
 71
     3
 72
     8
 73
     4
 74
     0
 42
0.000000001
 43
0.0000000001
 40
0.0
 40
0.0
 40
0.0
 40
0.0
 40
1.0
 40
1.0
 40
1.0
 40
1.0
 10
100.4610920368856
 20
144.071001589131
 30
0.0
 10
103.9228914627261
 20
145.7359013210421
 30
0.0
 10
107.3846908885667
 20
147.4008015297901
 30
0.0
 10
107.3846908885667
 20
147.4008015297901
 30
0.0
  0
SPLINE
  5
DC
330
81
100
AcDbEntity
  8
레이어 1
 62
    18
420
        0
370
     5
100
AcDbSpline
210
0.0
220
0.0
230
1.0
 70
    24
 71
     3
 72
     8
 73
     4
 74
     0
 42
0.000000001
 43
0.0000000001
 40
0.0
 40
0.0
 40
0.0
 40
0.0
 40
1.0
 40
1.0
 40
1.0
 40
1.0
 10
319.5384951158396
 20
138.1650022625836
 30
0.0
 10
319.5384951158396
 20
138.1650022625836
 30
0.0
 10
322.3574952005847
 20
127.6445017206675
 30
0.0
 10
322.3574952005847
 20
127.6445017206675
 30
0.0
  0
SPLINE
  5
DD
330
81
100
AcDbEntity
  8
레이어 1
 62
    18
420
        0
370
     5
100
AcDbSpline
210
0.0
220
0.0
230
1.0
 70
    24
 71
     3
 72
     8
 73
     4
 74
     0
 42
0.000000001
 43
0.0000000001
 40
0.0
 40
0.0
 40
0.0
 40
0.0
 40
1.0
 40
1.0
 40
1.0
 40
1.0
 10
284.0097800837341
 20
20.81460892695139
 30
0.0
 10
284.0097800837341
 20
20.81460892695139
 30
0.0
 10
260.4229894252209
 20
25.71570880851853
 30
0.0
 10
260.4229894252209
 20
25.71570880851853
 30
0.0
  0
SPLINE
  5
DE
330
81
100
AcDbEntity
  8
레이어 1
 62
    18
420
        0
370
     5
100
AcDbSpline
210
0.0
220
0.0
230
1.0
 70
     8
 71
     3
 72
     8
 73
     4
 74
     0
 42
0.000000001
 43
0.0000000001
 40
0.0
 40
0.0
 40
0.0
 40
0.0
 40
1.0
 40
1.0
 40
1.0
 40
1.0
 10
73.75639689158321
 20
20.81460892695139
 30
0.0
 10
71.25959374906924
 20
20.29570331664357
 30
0.0
 10
68.81919471713553
 20
21.03601394372929
 30
0.0
 10
68.81919471713553
 20
21.03601394372929
 30
0.0
  0
SPLINE
  5
DF
330
81
100
AcDbEntity
  8
레이어 1
 62
    18
420
        0
370
     5
100
AcDbSpline
210
0.0
220
0.0
230
1.0
 70
     8
 71
     3
 72
     8
 73
     4
 74
     0
 42
0.000000001
 43
0.0000000001
 40
0.0
 40
0.0
 40
0.0
 40
0.0
 40
1.0
 40
1.0
 40
1.0
 40
1.0
 10
2.696999874205705
 20
52.55470417816077
 30
0.0
 10
0.0249999989589244
 20
54.92110571671994
 30
0.0
 10
1.395099918636933
 20
58.21700396785905
 30
0.0
 10
1.395099918636933
 20
58.21700396785905
 30
0.0
  0
SPLINE
  5
E0
330
81
100
AcDbEntity
  8
레이어 1
 62
    18
420
        0
370
     5
100
AcDbSpline
210
0.0
220
0.0
230
1.0
 70
    24
 71
     3
 72
     8
 73
     4
 74
     0
 42
0.000000001
 43
0.0000000001
 40
0.0
 40
0.0
 40
0.0
 40
0.0
 40
1.0
 40
1.0
 40
1.0
 40
1.0
 10
355.0691937904111
 20
52.55470417816077
 30
0.0
 10
355.0691937904111
 20
52.55470417816077
 30
0.0
 10
336.204174105148
 20
35.84701011554435
 30
0.0
 10
336.204174105148
 20
35.84701011554435
 30
0.0
  0
SPLINE
  5
E1
330
81
100
AcDbEntity
  8
레이어 1
 62
    18
420
        0
370
     5
100
AcDbSpline
210
0.0
220
0.0
230
1.0
 70
     8
 71
     3
 72
     8
 73
     4
 74
     0
 42
0.000000001
 43
0.0000000001
 40
0.0
 40
0.0
 40
0.0
 40
0.0
 40
1.0
 40
1.0
 40
1.0
 40
1.0
 10
103.8367937503092
 20
24.87560570660666
 30
0.0
 10
100.7354908250811
 20
26.42061141758681
 30
0.0
 10
97.34309599736704
 20
25.71570880851853
 30
0.0
 10
97.34309599736704
 20
25.71570880851853
 30
0.0
  0
SPLINE
  5
E2
330
81
100
AcDbEntity
  8
레이어 1
 62
    18
420
        0
370
     5
100
AcDbSpline
210
0.0
220
0.0
230
1.0
 70
    24
 71
     3
 72
     8
 73
     4
 74
     0
 42
0.000000001
 43
0.0000000001
 40
0.0
 40
0.0
 40
0.0
 40
0.0
 40
1.0
 40
1.0
 40
1.0
 40
1.0
 10
330.7063716816368
 20
119.9571032448159
 30
0.0
 10
330.7063716816368
 20
119.9571032448159
 30
0.0
 10
356.3710735996111
 20
58.21700396785905
 30
0.0
 10
356.3710735996111
 20
58.21700396785905
 30
0.0
  0
SPLINE
  5
E3
330
81
100
AcDbEntity
  8
레이어 1
 62
    18
420
        0
370
     5
100
AcDbSpline
210
0.0
220
0.0
230
1.0
 70
     8
 71
     3
 72
     8
 73
     4
 74
     0
 42
0.000000001
 43
0.0000000001
 40
0.0
 40
0.0
 40
0.0
 40
0.0
 40
1.0
 40
1.0
 40
1.0
 40
1.0
 10
1.395099918636933
 20
58.21700396785905
 30
0.0
 10
14.22739902158618
 20
89.08700496895002
 30
0.0
 10
27.05979766428626
 20
119.9571032448159
 30
0.0
 10
27.05979766428626
 20
119.9571032448159
 30
0.0
  0
SPLINE
  5
E4
330
81
100
AcDbEntity
  8
레이어 1
 62
    18
420
        0
370
     5
100
AcDbSpline
210
0.0
220
0.0
230
1.0
 70
     8
 71
     3
 72
     8
 73
     4
 74
     0
 42
0.000000001
 43
0.0000000001
 40
0.0
 40
0.0
 40
0.0
 40
0.0
 40
1.0
 40
1.0
 40
1.0
 40
1.0
 10
21.56199905547208
 20
35.84701011554435
 30
0.0
 10
12.12949970325752
 20
44.20080755579091
 30
0.0
 10
2.696999874205705
 20
52.55470417816077
 30
0.0
 10
2.696999874205705
 20
52.55470417816077
 30
0.0
  0
SPLINE
  5
E5
330
81
100
AcDbEntity
  8
레이어 1
 62
    18
420
        0
370
     5
100
AcDbSpline
210
0.0
220
0.0
230
1.0
 70
     8
 71
     3
 72
     8
 73
     4
 74
     0
 42
0.000000001
 43
0.0000000001
 40
0.0
 40
0.0
 40
0.0
 40
0.0
 40
1.0
 40
1.0
 40
1.0
 40
1.0
 10
65.53779994418025
 20
151.1560011074597
 30
0.0
 10
67.07579424198264
 20
151.7654010827385
 30
0.0
 10
68.67369454225711
 20
151.3372010948776
 30
0.0
 10
68.67369454225711
 20
151.3372010948776
 30
0.0
  0
SPLINE
  5
E6
330
81
100
AcDbEntity
  8
레이어 1
 62
    18
420
        0
370
     5
100
AcDbSpline
210
0.0
220
0.0
230
1.0
 70
     8
 71
     3
 72
     8
 73
     4
 74
     0
 42
0.000000001
 43
0.0000000001
 40
0.0
 40
0.0
 40
0.0
 40
0.0
 40
1.0
 40
1.0
 40
1.0
 40
1.0
 10
355.0691937904111
 20
52.55460499603746
 30
0.0
 10
356.6677959949428
 20
53.9704145473306
 30
0.0
 10
357.1908062192763
 20
56.24518706275047
 30
0.0
 10
356.3710735996111
 20
58.21700396785905
 30
0.0
  0
SPLINE
  5
E7
330
81
100
AcDbEntity
  8
레이어 1
 62
    18
420
        0
370
     5
100
AcDbSpline
210
0.0
220
0.0
230
1.0
 70
     8
 71
     3
 72
     8
 73
     4
 74
     0
 42
0.000000001
 43
0.0000000001
 40
0.0
 40
0.0
 40
0.0
 40
0.0
 40
1.0
 40
1.0
 40
1.0
 40
1.0
 10
23.42569790944286
 20
34.8054070860611
 30
0.0
 10
22.38009898479996
 20
35.12250759303353
 30
0.0
 10
21.56199905547208
 20
35.84701011554435
 30
0.0
 10
21.56199905547208
 20
35.84701011554435
 30
0.0
  0
SPLINE
  5
E8
330
81
100
AcDbEntity
  8
레이어 1
 62
    18
420
        0
370
     5
100
AcDbSpline
210
0.0
220
0.0
230
1.0
 70
    24
 71
     3
 72
     8
 73
     4
 74
     0
 42
0.000000001
 43
0.0000000001
 40
0.0
 40
0.0
 40
0.0
 40
0.0
 40
1.0
 40
1.0
 40
1.0
 40
1.0
 10
201.6591835438176
 20
0.0071149862878123
 30
0.0
 10
201.6591835438176
 20
0.0071149862878123
 30
0.0
 10
178.8830923023555
 20
0.0071149862878123
 30
0.0
 10
178.8830923023555
 20
0.0071149862878123
 30
0.0
  0
SPLINE
  5
E9
330
81
100
AcDbEntity
  8
레이어 1
 62
    18
420
        0
370
     5
100
AcDbSpline
210
0.0
220
0.0
230
1.0
 70
     8
 71
     3
 72
     8
 73
     4
 74
     0
 42
0.000000001
 43
0.0000000001
 40
0.0
 40
0.0
 40
0.0
 40
0.0
 40
1.0
 40
1.0
 40
1.0
 40
1.0
 10
27.05979766428626
 20
119.9571032448159
 30
0.0
 10
27.71249805157494
 20
121.5274023045854
 30
0.0
 10
29.18729807804819
 20
122.3740018355733
 30
0.0
 10
29.18729807804819
 20
122.3740018355733
 30
0.0
  0
SPLINE
  5
EA
330
81
100
AcDbEntity
  8
레이어 1
 62
    18
420
        0
370
     5
100
AcDbSpline
210
0.0
220
0.0
230
1.0
 70
     8
 71
     3
 72
     8
 73
     4
 74
     0
 42
0.000000001
 43
0.0000000001
 40
0.0
 40
0.0
 40
0.0
 40
0.0
 40
1.0
 40
1.0
 40
1.0
 40
1.0
 10
257.3051001972197
 20
144.071001589131
 30
0.0
 10
258.3829809956478
 20
143.5525790148371
 30
0.0
 10
259.6109777523846
 20
143.4377327917776
 30
0.0
 10
260.7662816421381
 20
143.7473011794253
 30
0.0
  0
SPLINE
  5
EB
330
81
100
AcDbEntity
  8
레이어 1
 62
    18
420
        0
370
     5
100
AcDbSpline
210
0.0
220
0.0
230
1.0
 70
    24
 71
     3
 72
     8
 73
     4
 74
     0
 42
0.000000001
 43
0.0000000001
 40
0.0
 40
0.0
 40
0.0
 40
0.0
 40
1.0
 40
1.0
 40
1.0
 40
1.0
 10
201.3796883203634
 20
129.0799016486604
 30
0.0
 10
201.3796883203634
 20
129.0799016486604
 30
0.0
 10
214.2056916234594
 20
138.5960019940728
 30
0.0
 10
214.2056916234594
 20
138.5960019940728
 30
0.0
  0
SPLINE
  5
EC
330
81
100
AcDbEntity
  8
레이어 1
 62
    18
420
        0
370
     5
100
AcDbSpline
210
0.0
220
0.0
230
1.0
 70
     8
 71
     3
 72
     8
 73
     4
 74
     0
 42
0.000000001
 43
0.0000000001
 40
0.0
 40
0.0
 40
0.0
 40
0.0
 40
1.0
 40
1.0
 40
1.0
 40
1.0
 10
110.8458952216674
 20
147.7245014626589
 30
0.0
 10
126.3605961876771
 20
143.5673018381015
 30
0.0
 10
141.875388706416
 20
139.4102013956673
 30
0.0
 10
141.875388706416
 20
139.4102013956673
 30
0.0
  0
SPLINE
  5
ED
330
81
100
AcDbEntity
  8
레이어 1
 62
    18
420
        0
370
     5
100
AcDbSpline
210
0.0
220
0.0
230
1.0
 70
     8
 71
     3
 72
     8
 73
     4
 74
     0
 42
0.000000001
 43
0.0000000001
 40
0.0
 40
0.0
 40
0.0
 40
0.0
 40
1.0
 40
1.0
 40
1.0
 40
1.0
 10
141.875388706416
 20
139.4102013956673
 30
0.0
 10
142.795493634859
 20
139.163602212223
 30
0.0
 10
143.5604929812518
 20
138.5960019940728
 30
0.0
 10
143.5604929812518
 20
138.5960019940728
 30
0.0
  0
SPLINE
  5
EE
330
81
100
AcDbEntity
  8
레이어 1
 62
    18
420
        0
370
     5
100
AcDbSpline
210
0.0
220
0.0
230
1.0
 70
     8
 71
     3
 72
     8
 73
     4
 74
     0
 42
0.000000001
 43
0.0000000001
 40
0.0
 40
0.0
 40
0.0
 40
0.0
 40
1.0
 40
1.0
 40
1.0
 40
1.0
 10
284.0097800837341
 20
20.81460892695139
 30
0.0
 10
285.6481161727377
 20
20.47415484463927
 30
0.0
 10
287.3456868775327
 20
20.55028093896767
 30
0.0
 10
288.9469746287876
 20
21.03601394372929
 30
0.0
  0
SPLINE
  5
EF
330
81
100
AcDbEntity
  8
레이어 1
 62
    18
420
        0
370
     5
100
AcDbSpline
210
0.0
220
0.0
230
1.0
 70
     8
 71
     3
 72
     8
 73
     4
 74
     0
 42
0.000000001
 43
0.0000000001
 40
0.0
 40
0.0
 40
0.0
 40
0.0
 40
1.0
 40
1.0
 40
1.0
 40
1.0
 10
201.6591835438176
 20
0.0071149862878123
 30
0.0
 10
203.2067603606094
 20
0.0071149862878123
 30
0.0
 10
204.7332037557446
 20
0.3663068605091761
 30
0.0
 10
206.1183812897268
 20
1.056416074417824
 30
0.0
  0
SPLINE
  5
F0
330
81
100
AcDbEntity
  8
레이어 1
 62
    18
420
        0
370
     5
100
AcDbSpline
210
0.0
220
0.0
230
1.0
 70
     8
 71
     3
 72
     8
 73
     4
 74
     0
 42
0.000000001
 43
0.0000000001
 40
0.0
 40
0.0
 40
0.0
 40
0.0
 40
1.0
 40
1.0
 40
1.0
 40
1.0
 10
151.6477880561962
 20
1.056416074417824
 30
0.0
 10
127.7422947179498
 20
12.96600707581519
 30
0.0
 10
103.8367937503092
 20
24.87560570660666
 30
0.0
 10
103.8367937503092
 20
24.87560570660666
 30
0.0
  0
SPLINE
  5
F1
330
81
100
AcDbEntity
  8
레이어 1
 62
    18
420
        0
370
     5
100
AcDbSpline
210
0.0
220
0.0
230
1.0
 70
    24
 71
     3
 72
     8
 73
     4
 74
     0
 42
0.000000001
 43
0.0000000001
 40
0.0
 40
0.0
 40
0.0
 40
0.0
 40
1.0
 40
1.0
 40
1.0
 40
1.0
 10
215.8907806395071
 20
139.4102013956673
 30
0.0
 10
215.8907806395071
 20
139.4102013956673
 30
0.0
 10
246.9202893830438
 20
147.7245014626589
 30
0.0
 10
246.9202893830438
 20
147.7245014626589
 30
0.0
  0
SPLINE
  5
F2
330
81
100
AcDbEntity
  8
레이어 1
 62
    18
420
        0
370
     5
100
AcDbSpline
210
0.0
220
0.0
230
1.0
 70
     8
 71
     3
 72
     8
 73
     4
 74
     0
 42
0.000000001
 43
0.0000000001
 40
0.0
 40
0.0
 40
0.0
 40
0.0
 40
1.0
 40
1.0
 40
1.0
 40
1.0
 10
68.81919471713553
 20
21.03601394372929
 30
0.0
 10
46.1224987653737
 20
27.9207105148952
 30
0.0
 10
23.42569790944286
 20
34.8054070860611
 30
0.0
 10
23.42569790944286
 20
34.8054070860611
 30
0.0
  0
SPLINE
  5
F3
330
81
100
AcDbEntity
  8
레이어 1
 62
    18
420
        0
370
     5
100
AcDbSpline
210
0.0
220
0.0
230
1.0
 70
    24
 71
     3
 72
     8
 73
     4
 74
     0
 42
0.000000001
 43
0.0000000001
 40
0.0
 40
0.0
 40
0.0
 40
0.0
 40
1.0
 40
1.0
 40
1.0
 40
1.0
 10
159.365789939131
 20
128.0954027266662
 30
0.0
 10
159.365789939131
 20
128.0954027266662
 30
0.0
 10
180.6976826538543
 20
128.0954027266662
 30
0.0
 10
180.6976826538543
 20
128.0954027266662
 30
0.0
  0
SPLINE
  5
F4
330
81
100
AcDbEntity
  8
레이어 1
 62
    18
420
        0
370
     5
100
AcDbSpline
210
0.0
220
0.0
230
1.0
 70
    24
 71
     3
 72
     8
 73
     4
 74
     0
 42
0.000000001
 43
0.0000000001
 40
0.0
 40
0.0
 40
0.0
 40
0.0
 40
1.0
 40
1.0
 40
1.0
 40
1.0
 10
41.21549754747031
 20
141.5193016182088
 30
0.0
 10
41.21549754747031
 20
141.5193016182088
 30
0.0
 10
58.13319831207945
 20
148.2223013078636
 30
0.0
 10
58.13319831207945
 20
148.2223013078636
 30
0.0
  0
SPLINE
  5
F5
330
81
100
AcDbEntity
  8
레이어 1
 62
    18
420
        0
370
     5
100
AcDbSpline
210
0.0
220
0.0
230
1.0
 70
    24
 71
     3
 72
     8
 73
     4
 74
     0
 42
0.000000001
 43
0.0000000001
 40
0.0
 40
0.0
 40
0.0
 40
0.0
 40
1.0
 40
1.0
 40
1.0
 40
1.0
 10
260.7662816421381
 20
143.7473011794253
 30
0.0
 10
260.7662816421381
 20
143.7473011794253
 30
0.0
 10
289.0924824330601
 20
151.3372010948776
 30
0.0
 10
289.0924824330601
 20
151.3372010948776
 30
0.0
  0
SPLINE
  5
F6
330
81
100
AcDbEntity
  8
레이어 1
 62
    18
420
        0
370
     5
100
AcDbSpline
210
0.0
220
0.0
230
1.0
 70
     8
 71
     3
 72
     8
 73
     4
 74
     0
 42
0.000000001
 43
0.0000000001
 40
0.0
 40
0.0
 40
0.0
 40
0.0
 40
1.0
 40
1.0
 40
1.0
 40
1.0
 10
260.4229894252209
 20
25.71570880851853
 30
0.0
 10
258.2255103014268
 20
26.17233567478919
 30
0.0
 10
255.9383095030182
 20
25.87642962462616
 30
0.0
 10
253.9293832250079
 20
24.87560570660666
 30
0.0
  0
SPLINE
  5
F7
330
81
100
AcDbEntity
  8
레이어 1
 62
    18
420
        0
370
     5
100
AcDbSpline
210
0.0
220
0.0
230
1.0
 70
     8
 71
     3
 72
     8
 73
     4
 74
     0
 42
0.000000001
 43
0.0000000001
 40
0.0
 40
0.0
 40
0.0
 40
0.0
 40
1.0
 40
1.0
 40
1.0
 40
1.0
 10
33.06859783112079
 20
124.6024028936543
 30
0.0
 10
34.8707980466013
 20
125.6371032288258
 30
0.0
 10
35.40869703352071
 20
127.6445017206675
 30
0.0
 10
35.40869703352071
 20
127.6445017206675
 30
0.0
  0
SPLINE
  5
F8
330
81
100
AcDbEntity
  8
레이어 1
 62
    18
420
        0
370
     5
100
AcDbSpline
210
0.0
220
0.0
230
1.0
 70
     8
 71
     3
 72
     8
 73
     4
 74
     0
 42
0.000000001
 43
0.0000000001
 40
0.0
 40
0.0
 40
0.0
 40
0.0
 40
1.0
 40
1.0
 40
1.0
 40
1.0
 10
156.3864962843479
 20
129.0799016486604
 30
0.0
 10
157.7134920589245
 20
128.0954027266662
 30
0.0
 10
159.365789939131
 20
128.0954027266662
 30
0.0
 10
159.365789939131
 20
128.0954027266662
 30
0.0
  0
SPLINE
  5
F9
330
81
100
AcDbEntity
  8
레이어 1
 62
    18
420
        0
370
     5
100
AcDbSpline
210
0.0
220
0.0
230
1.0
 70
     8
 71
     3
 72
     8
 73
     4
 74
     0
 42
0.000000001
 43
0.0000000001
 40
0.0
 40
0.0
 40
0.0
 40
0.0
 40
1.0
 40
1.0
 40
1.0
 40
1.0
 10
38.22769711826583
 20
138.1650022625836
 30
0.0
 10
38.87829751482835
 20
140.5933020291494
 30
0.0
 10
41.21549754747031
 20
141.5193016182088
 30
0.0
 10
41.21549754747031
 20
141.5193016182088
 30
0.0
  0
SPLINE
  5
FA
330
81
100
AcDbEntity
  8
레이어 1
 62
    18
420
        0
370
     5
100
AcDbSpline
210
0.0
220
0.0
230
1.0
 70
    24
 71
     3
 72
     8
 73
     4
 74
     0
 42
0.000000001
 43
0.0000000001
 40
0.0
 40
0.0
 40
0.0
 40
0.0
 40
1.0
 40
1.0
 40
1.0
 40
1.0
 10
58.13319831207945
 20
148.2223013078636
 30
0.0
 10
58.13319831207945
 20
148.2223013078636
 30
0.0
 10
65.53779994418025
 20
151.1560011074597
 30
0.0
 10
65.53779994418025
 20
151.1560011074597
 30
0.0
  0
SPLINE
  5
FB
330
81
100
AcDbEntity
  8
레이어 1
 62
    18
420
        0
370
     5
100
AcDbSpline
210
0.0
220
0.0
230
1.0
 70
    24
 71
     3
 72
     8
 73
     4
 74
     0
 42
0.000000001
 43
0.0000000001
 40
0.0
 40
0.0
 40
0.0
 40
0.0
 40
1.0
 40
1.0
 40
1.0
 40
1.0
 10
292.2282854784076
 20
151.1560011074597
 30
0.0
 10
292.2282854784076
 20
151.1560011074597
 30
0.0
 10
299.6329786632377
 20
148.2223013078636
 30
0.0
 10
299.6329786632377
 20
148.2223013078636
 30
0.0
  0
SPLINE
  5
FC
330
81
100
AcDbEntity
  8
레이어 1
 62
    18
420
        0
370
     5
100
AcDbSpline
210
0.0
220
0.0
230
1.0
 70
     8
 71
     3
 72
     8
 73
     4
 74
     0
 42
0.000000001
 43
0.0000000001
 40
0.0
 40
0.0
 40
0.0
 40
0.0
 40
1.0
 40
1.0
 40
1.0
 40
1.0
 10
107.3846908885667
 20
147.4008015297901
 30
0.0
 10
109.0552916852187
 20
148.2043011829964
 30
0.0
 10
110.8458952216674
 20
147.7245014626589
 30
0.0
 10
110.8458952216674
 20
147.7245014626589
 30
0.0
  0
SPLINE
  5
FD
330
81
100
AcDbEntity
  8
레이어 1
 62
    18
420
        0
370
     5
100
AcDbSpline
210
0.0
220
0.0
230
1.0
 70
     8
 71
     3
 72
     8
 73
     4
 74
     0
 42
0.000000001
 43
0.0000000001
 40
0.0
 40
0.0
 40
0.0
 40
0.0
 40
1.0
 40
1.0
 40
1.0
 40
1.0
 10
29.18729807804819
 20
122.3740018355733
 30
0.0
 10
31.1278974098485
 20
123.4882023646138
 30
0.0
 10
33.06859783112079
 20
124.6024028936543
 30
0.0
 10
33.06859783112079
 20
124.6024028936543
 30
0.0
  0
SPLINE
  5
FE
330
81
100
AcDbEntity
  8
레이어 1
 62
    18
420
        0
370
     5
100
AcDbSpline
210
0.0
220
0.0
230
1.0
 70
     8
 71
     3
 72
     8
 73
     4
 74
     0
 42
0.000000001
 43
0.0000000001
 40
0.0
 40
0.0
 40
0.0
 40
0.0
 40
1.0
 40
1.0
 40
1.0
 40
1.0
 10
198.4003946655801
 20
128.0954027266662
 30
0.0
 10
199.4734079105725
 20
128.0953798384839
 30
0.0
 10
200.5179635155725
 20
128.4405488863497
 30
0.0
 10
201.3796883203634
 20
129.0799016486604
 30
0.0
  0
SPLINE
  5
FF
330
81
100
AcDbEntity
  8
레이어 1
 62
    18
420
        0
370
     5
100
AcDbSpline
210
0.0
220
0.0
230
1.0
 70
    24
 71
     3
 72
     8
 73
     4
 74
     0
 42
0.000000001
 43
0.0000000001
 40
0.0
 40
0.0
 40
0.0
 40
0.0
 40
1.0
 40
1.0
 40
1.0
 40
1.0
 10
178.8830923023555
 20
0.0071149862878123
 30
0.0
 10
178.8830923023555
 20
0.0071149862878123
 30
0.0
 10
156.1069858021054
 20
0.0071149862878123
 30
0.0
 10
156.1069858021054
 20
0.0071149862878123
 30
0.0
  0
SPLINE
  5
100
330
81
100
AcDbEntity
  8
레이어 1
 62
    18
420
        0
370
     5
100
AcDbSpline
210
0.0
220
0.0
230
1.0
 70
     8
 71
     3
 72
     8
 73
     4
 74
     0
 42
0.000000001
 43
0.0000000001
 40
0.0
 40
0.0
 40
0.0
 40
0.0
 40
1.0
 40
1.0
 40
1.0
 40
1.0
 10
96.99989533317896
 20
143.7473011794253
 30
0.0
 10
98.7904912402336
 20
143.2675019359246
 30
0.0
 10
100.4610920368856
 20
144.071001589131
 30
0.0
 10
100.4610920368856
 20
144.071001589131
 30
0.0
  0
SPLINE
  5
101
330
81
100
AcDbEntity
  8
레이어 1
 62
    18
420
        0
370
     5
100
AcDbSpline
210
0.0
220
0.0
230
1.0
 70
    24
 71
     3
 72
     8
 73
     4
 74
     0
 42
0.000000001
 43
0.0000000001
 40
0.0
 40
0.0
 40
0.0
 40
0.0
 40
1.0
 40
1.0
 40
1.0
 40
1.0
 10
334.3404962320109
 20
34.8054070860611
 30
0.0
 10
334.3404962320109
 20
34.8054070860611
 30
0.0
 10
288.9469746287876
 20
21.03601394372929
 30
0.0
 10
288.9469746287876
 20
21.03601394372929
 30
0.0
  0
SPLINE
  5
102
330
81
100
AcDbEntity
  8
레이어 1
 62
    18
420
        0
370
     5
100
AcDbSpline
210
0.0
220
0.0
230
1.0
 70
     8
 71
     3
 72
     8
 73
     4
 74
     0
 42
0.000000001
 43
0.0000000001
 40
0.0
 40
0.0
 40
0.0
 40
0.0
 40
1.0
 40
1.0
 40
1.0
 40
1.0
 10
330.7063716816368
 20
119.9571032448159
 30
0.0
 10
330.2830928969767
 20
120.9752840344126
 30
0.0
 10
329.5351376170029
 20
121.8249925434962
 30
0.0
 10
328.5788693605265
 20
122.3740018355733
 30
0.0
  0
SPLINE
  5
103
330
81
100
AcDbEntity
  8
레이어 1
 62
    18
420
        0
370
     5
100
AcDbSpline
210
0.0
220
0.0
230
1.0
 70
     8
 71
     3
 72
     8
 73
     4
 74
     0
 42
0.000000001
 43
0.0000000001
 40
0.0
 40
0.0
 40
0.0
 40
0.0
 40
1.0
 40
1.0
 40
1.0
 40
1.0
 10
292.2283770311369
 20
151.1561011240478
 30
0.0
 10
291.2296893434654
 20
151.5517732143785
 30
0.0
 10
290.1300800306409
 20
151.615274732733
 30
0.0
 10
289.0924824330601
 20
151.3372010948776
 30
0.0
  0
SPLINE
  5
104
330
81
100
AcDbEntity
  8
레이어 1
 62
    18
420
        0
370
     5
100
AcDbSpline
210
0.0
220
0.0
230
1.0
 70
     8
 71
     3
 72
     8
 73
     4
 74
     0
 42
0.000000001
 43
0.0000000001
 40
0.0
 40
0.0
 40
0.0
 40
0.0
 40
1.0
 40
1.0
 40
1.0
 40
1.0
 10
215.8907806395071
 20
139.410102213544
 30
0.0
 10
215.2828552588421
 20
139.2472070201179
 30
0.0
 10
214.7111389825751
 20
138.9710029265436
 30
0.0
 10
214.2056916234594
 20
138.5960019940728
 30
0.0
  0
SPLINE
  5
105
330
81
100
AcDbEntity
  8
레이어 1
 62
    18
420
        0
370
     5
100
AcDbSpline
210
0.0
220
0.0
230
1.0
 70
     8
 71
     3
 72
     8
 73
     4
 74
     0
 42
0.000000001
 43
0.0000000001
 40
0.0
 40
0.0
 40
0.0
 40
0.0
 40
1.0
 40
1.0
 40
1.0
 40
1.0
 10
97.34309599736704
 20
25.71570880851853
 30
0.0
 10
85.5497922208397
 20
23.26510927667331
 30
0.0
 10
73.75639689158321
 20
20.81460892695139
 30
0.0
 10
73.75639689158321
 20
20.81460892695139
 30
0.0
  0
SPLINE
  5
106
330
81
100
AcDbEntity
  8
레이어 1
 62
    18
420
        0
370
     5
100
AcDbSpline
210
0.0
220
0.0
230
1.0
 70
     8
 71
     3
 72
     8
 73
     4
 74
     0
 42
0.000000001
 43
0.0000000001
 40
0.0
 40
0.0
 40
0.0
 40
0.0
 40
1.0
 40
1.0
 40
1.0
 40
1.0
 10
322.3574952005847
 20
127.6445017206675
 30
0.0
 10
322.7017639799467
 20
126.3595420002323
 30
0.0
 10
323.5439270182656
 20
125.264754464479
 30
0.0
 10
324.6975829588933
 20
124.6024028936543
 30
0.0
  0
SPLINE
  5
107
330
81
100
AcDbEntity
  8
레이어 1
 62
    18
420
        0
370
     5
100
AcDbSpline
210
0.0
220
0.0
230
1.0
 70
    24
 71
     3
 72
     8
 73
     4
 74
     0
 42
0.000000001
 43
0.0000000001
 40
0.0
 40
0.0
 40
0.0
 40
0.0
 40
1.0
 40
1.0
 40
1.0
 40
1.0
 10
324.6975829588933
 20
124.6024028936543
 30
0.0
 10
324.6975829588933
 20
124.6024028936543
 30
0.0
 10
328.5788693605265
 20
122.3740018355733
 30
0.0
 10
328.5788693605265
 20
122.3740018355733
 30
0.0
  0
SPLINE
  5
108
330
81
100
AcDbEntity
  8
레이어 1
 62
    18
420
        0
370
     5
100
AcDbSpline
210
0.0
220
0.0
230
1.0
 70
     8
 71
     3
 72
     8
 73
     4
 74
     0
 42
0.000000001
 43
0.0000000001
 40
0.0
 40
0.0
 40
0.0
 40
0.0
 40
1.0
 40
1.0
 40
1.0
 40
1.0
 10
35.40869703352071
 20
127.6445017206675
 30
0.0
 10
36.81819707589327
 20
132.9047019237268
 30
0.0
 10
38.22769711826583
 20
138.1650022625836
 30
0.0
 10
38.22769711826583
 20
138.1650022625836
 30
0.0
  0
SPLINE
  5
109
330
81
100
AcDbEntity
  8
레이어 1
 62
    18
420
        0
370
     5
100
AcDbSpline
210
0.0
220
0.0
230
1.0
 70
     8
 71
     3
 72
     8
 73
     4
 74
     0
 42
0.000000001
 43
0.0000000001
 40
0.0
 40
0.0
 40
0.0
 40
0.0
 40
1.0
 40
1.0
 40
1.0
 40
1.0
 10
156.1069858021054
 20
0.0071149862878123
 30
0.0
 10
153.7538975562505
 20
0.0071149862878123
 30
0.0
 10
151.6477880561962
 20
1.056416074417824
 30
0.0
 10
151.6477880561962
 20
1.056416074417824
 30
0.0
  0
SPLINE
  5
10A
330
81
100
AcDbEntity
  8
레이어 1
 62
    18
420
        0
370
     5
100
AcDbSpline
210
0.0
220
0.0
230
1.0
 70
     8
 71
     3
 72
     8
 73
     4
 74
     0
 42
0.000000001
 43
0.0000000001
 40
0.0
 40
0.0
 40
0.0
 40
0.0
 40
1.0
 40
1.0
 40
1.0
 40
1.0
 10
334.3404962320109
 20
34.8054070860611
 30
0.0
 10
335.0294610368046
 20
35.01436856106213
 30
0.0
 10
335.6652031883576
 20
35.36966944429257
 30
0.0
 10
336.204174105148
 20
35.84701011554435
 30
0.0
  0
SPLINE
  5
10B
330
81
100
AcDbEntity
  8
레이어 1
 62
    18
420
        0
370
     5
100
AcDbSpline
210
0.0
220
0.0
230
1.0
 70
     8
 71
     3
 72
     8
 73
     4
 74
     0
 42
0.000000001
 43
0.0000000001
 40
0.0
 40
0.0
 40
0.0
 40
0.0
 40
1.0
 40
1.0
 40
1.0
 40
1.0
 10
68.67369454225711
 20
151.3372010948776
 30
0.0
 10
82.83679493771805
 20
147.5423015179746
 30
0.0
 10
96.99989533317896
 20
143.7473011794253
 30
0.0
 10
96.99989533317896
 20
143.7473011794253
 30
0.0
  0
SPLINE
  5
10C
330
81
100
AcDbEntity
  8
레이어 1
 62
    18
420
        0
370
     5
100
AcDbSpline
210
0.0
220
0.0
230
1.0
 70
     8
 71
     3
 72
     8
 73
     4
 74
     0
 42
0.000000001
 43
0.0000000001
 40
0.0
 40
0.0
 40
0.0
 40
0.0
 40
1.0
 40
1.0
 40
1.0
 40
1.0
 10
143.5604929812518
 20
138.5960019940728
 30
0.0
 10
149.9734870034057
 20
133.8380018892655
 30
0.0
 10
156.3864962843479
 20
129.0799016486604
 30
0.0
 10
156.3864962843479
 20
129.0799016486604
 30
0.0
  0
ENDBLK
  5
84
330
81
100
AcDbEntity
  8
0
100
AcDbBlockEnd
  0
ENDSEC
  0
SECTION
  2
ENTITIES
  0
INSERT
  5
7A
330
70
100
AcDbEntity
  8
레이어 1
100
AcDbBlockReference
  2
Block_0
 10
0.0
 20
0.0
 30
0.0
  0
INSERT
  5
7E
330
70
100
AcDbEntity
  8
레이어 1
100
AcDbBlockReference
  2
Block_1
 10
0.0
 20
0.0
 30
0.0
  0
CIRCLE
  5
122
330
70
100
AcDbEntity
  8
레이어 1
370
     5
100
AcDbCircle
 10
202.178592694136
 20
123.2161019313908
 30
0.0
 40
1.60000315202321
  0
CIRCLE
  5
123
330
70
100
AcDbEntity
  8
레이어 1
370
     5
100
AcDbCircle
 10
248.0585797239546
 20
142.3361015703075
 30
0.0
 40
1.600003092418556
  0
CIRCLE
  5
124
330
70
100
AcDbEntity
  8
레이어 1
370
     5
100
AcDbCircle
 10
314.2685674353029
 20
136.5461022934679
 30
0.0
 40
1.6000027943954
  0
CIRCLE
  5
125
330
70
100
AcDbEntity
  8
레이어 1
370
     5
100
AcDbCircle
 10
351.24857633066
 20
56.41610837876961
 30
0.0
 40
1.600002198348988
  0
CIRCLE
  5
126
330
70
100
AcDbEntity
  8
레이어 1
370
     5
100
AcDbCircle
 10
286.2985983136917
 20
26.11610704027324
 30
0.0
 40
1.600002198348988
  0
CIRCLE
  5
127
330
70
100
AcDbEntity
  8
레이어 1
370
     5
100
AcDbCircle
 10
202.4485816925418
 20
5.616108199410381
 30
0.0
 40
1.600006013046038
  0
CIRCLE
  5
128
330
70
100
AcDbEntity
  8
레이어 1
370
     5
100
AcDbCircle
 10
155.3135898508729
 20
5.616108199410381
 30
0.0
 40
1.600006013046038
  0
CIRCLE
  5
129
330
70
100
AcDbEntity
  8
레이어 1
370
     5
100
AcDbCircle
 10
71.46359611790535
 20
26.11610704027324
 30
0.0
 40
1.599998383651939
  0
CIRCLE
  5
12A
330
70
100
AcDbEntity
  8
레이어 1
370
     5
100
AcDbCircle
 10
6.513599504288959
 20
56.41610837876961
 30
0.0
 40
1.599999098907654
  0
CIRCLE
  5
12B
330
70
100
AcDbEntity
  8
레이어 1
370
     5
100
AcDbCircle
 10
155.5835941080669
 20
123.2161019313908
 30
0.0
 40
1.60000315202321
  0
CIRCLE
  5
12C
330
70
100
AcDbEntity
  8
레이어 1
370
     5
100
AcDbCircle
 10
109.7035918194601
 20
142.3361015703075
 30
0.0
 40
1.599999277721506
  0
CIRCLE
  5
12D
330
70
100
AcDbEntity
  8
레이어 1
370
     5
100
AcDbCircle
 10
43.49359647871772
 20
136.5461022934679
 30
0.0
 40
1.599998979698351
  0
SPLINE
  5
12E
330
70
100
AcDbEntity
  8
레이어 1
370
     5
100
AcDbSpline
210
0.0
220
0.0
230
1.0
 70
     8
 71
     3
 72
     8
 73
     4
 74
     0
 42
0.000000001
 43
0.0000000001
 40
0.0
 40
0.0
 40
0.0
 40
0.0
 40
1.0
 40
1.0
 40
1.0
 40
1.0
 10
319.5384951158396
 20
138.1650022625836
 30
0.0
 10
319.1291018284411
 20
139.6927512377843
 30
0.0
 10
318.021039146954
 20
140.9367182237206
 30
0.0
 10
316.5505802457236
 20
141.5193016182088
 30
0.0
  0
SPLINE
  5
12F
330
70
100
AcDbEntity
  8
레이어 1
370
     5
100
AcDbSpline
210
0.0
220
0.0
230
1.0
 70
    24
 71
     3
 72
     8
 73
     4
 74
     0
 42
0.000000001
 43
0.0000000001
 40
0.0
 40
0.0
 40
0.0
 40
0.0
 40
1.0
 40
1.0
 40
1.0
 40
1.0
 10
180.6976826538543
 20
128.0954027266662
 30
0.0
 10
180.6976826538543
 20
128.0954027266662
 30
0.0
 10
198.4003946655801
 20
128.0954027266662
 30
0.0
 10
198.4003946655801
 20
128.0954027266662
 30
0.0
  0
SPLINE
  5
130
330
70
100
AcDbEntity
  8
레이어 1
370
     5
100
AcDbSpline
210
0.0
220
0.0
230
1.0
 70
     8
 71
     3
 72
     8
 73
     4
 74
     0
 42
0.000000001
 43
0.0000000001
 40
0.0
 40
0.0
 40
0.0
 40
0.0
 40
1.0
 40
1.0
 40
1.0
 40
1.0
 10
250.3814860867505
 20
147.4008015297901
 30
0.0
 10
249.3036052883224
 20
147.91920145432
 30
0.0
 10
248.0756085315855
 20
148.0340472005423
 30
0.0
 10
246.9202893830438
 20
147.7245014626589
 30
0.0
  0
SPLINE
  5
131
330
70
100
AcDbEntity
  8
레이어 1
370
     5
100
AcDbSpline
210
0.0
220
0.0
230
1.0
 70
    24
 71
     3
 72
     8
 73
     4
 74
     0
 42
0.000000001
 43
0.0000000001
 40
0.0
 40
0.0
 40
0.0
 40
0.0
 40
1.0
 40
1.0
 40
1.0
 40
1.0
 10
299.6329786632377
 20
148.2223013078636
 30
0.0
 10
299.6329786632377
 20
148.2223013078636
 30
0.0
 10
316.5505802457236
 20
141.5193016182088
 30
0.0
 10
316.5505802457236
 20
141.5193016182088
 30
0.0
  0
SPLINE
  5
132
330
70
100
AcDbEntity
  8
레이어 1
370
     5
100
AcDbSpline
210
0.0
220
0.0
230
1.0
 70
    24
 71
     3
 72
     8
 73
     4
 74
     0
 42
0.000000001
 43
0.0000000001
 40
0.0
 40
0.0
 40
0.0
 40
0.0
 40
1.0
 40
1.0
 40
1.0
 40
1.0
 10
250.3814860867505
 20
147.4008015297901
 30
0.0
 10
250.3814860867505
 20
147.4008015297901
 30
0.0
 10
257.3051001972197
 20
144.071001589131
 30
0.0
 10
257.3051001972197
 20
144.071001589131
 30
0.0
  0
SPLINE
  5
133
330
70
100
AcDbEntity
  8
레이어 1
370
     5
100
AcDbSpline
210
0.0
220
0.0
230
1.0
 70
    24
 71
     3
 72
     8
 73
     4
 74
     0
 42
0.000000001
 43
0.0000000001
 40
0.0
 40
0.0
 40
0.0
 40
0.0
 40
1.0
 40
1.0
 40
1.0
 40
1.0
 10
253.9293832250079
 20
24.87560570660666
 30
0.0
 10
253.9293832250079
 20
24.87560570660666
 30
0.0
 10
206.1183812897268
 20
1.056416074417824
 30
0.0
 10
206.1183812897268
 20
1.056416074417824
 30
0.0
  0
SPLINE
  5
134
330
70
100
AcDbEntity
  8
레이어 1
370
     5
100
AcDbSpline
210
0.0
220
0.0
230
1.0
 70
     8
 71
     3
 72
     8
 73
     4
 74
     0
 42
0.000000001
 43
0.0000000001
 40
0.0
 40
0.0
 40
0.0
 40
0.0
 40
1.0
 40
1.0
 40
1.0
 40
1.0
 10
100.4610920368856
 20
144.071001589131
 30
0.0
 10
103.9228914627261
 20
145.7359013210421
 30
0.0
 10
107.3846908885667
 20
147.4008015297901
 30
0.0
 10
107.3846908885667
 20
147.4008015297901
 30
0.0
  0
SPLINE
  5
135
330
70
100
AcDbEntity
  8
레이어 1
370
     5
100
AcDbSpline
210
0.0
220
0.0
230
1.0
 70
    24
 71
     3
 72
     8
 73
     4
 74
     0
 42
0.000000001
 43
0.0000000001
 40
0.0
 40
0.0
 40
0.0
 40
0.0
 40
1.0
 40
1.0
 40
1.0
 40
1.0
 10
319.5384951158396
 20
138.1650022625836
 30
0.0
 10
319.5384951158396
 20
138.1650022625836
 30
0.0
 10
322.3574952005847
 20
127.6445017206675
 30
0.0
 10
322.3574952005847
 20
127.6445017206675
 30
0.0
  0
SPLINE
  5
136
330
70
100
AcDbEntity
  8
레이어 1
370
     5
100
AcDbSpline
210
0.0
220
0.0
230
1.0
 70
    24
 71
     3
 72
     8
 73
     4
 74
     0
 42
0.000000001
 43
0.0000000001
 40
0.0
 40
0.0
 40
0.0
 40
0.0
 40
1.0
 40
1.0
 40
1.0
 40
1.0
 10
284.0097800837341
 20
20.81460892695139
 30
0.0
 10
284.0097800837341
 20
20.81460892695139
 30
0.0
 10
260.4229894252209
 20
25.71570880851853
 30
0.0
 10
260.4229894252209
 20
25.71570880851853
 30
0.0
  0
SPLINE
  5
137
330
70
100
AcDbEntity
  8
레이어 1
370
     5
100
AcDbSpline
210
0.0
220
0.0
230
1.0
 70
     8
 71
     3
 72
     8
 73
     4
 74
     0
 42
0.000000001
 43
0.0000000001
 40
0.0
 40
0.0
 40
0.0
 40
0.0
 40
1.0
 40
1.0
 40
1.0
 40
1.0
 10
73.75639689158321
 20
20.81460892695139
 30
0.0
 10
71.25959374906924
 20
20.29570331664357
 30
0.0
 10
68.81919471713553
 20
21.03601394372929
 30
0.0
 10
68.81919471713553
 20
21.03601394372929
 30
0.0
  0
SPLINE
  5
138
330
70
100
AcDbEntity
  8
레이어 1
370
     5
100
AcDbSpline
210
0.0
220
0.0
230
1.0
 70
     8
 71
     3
 72
     8
 73
     4
 74
     0
 42
0.000000001
 43
0.0000000001
 40
0.0
 40
0.0
 40
0.0
 40
0.0
 40
1.0
 40
1.0
 40
1.0
 40
1.0
 10
2.696999874205705
 20
52.55470417816077
 30
0.0
 10
0.0249999989589244
 20
54.92110571671994
 30
0.0
 10
1.395099918636933
 20
58.21700396785905
 30
0.0
 10
1.395099918636933
 20
58.21700396785905
 30
0.0
  0
SPLINE
  5
139
330
70
100
AcDbEntity
  8
레이어 1
370
     5
100
AcDbSpline
210
0.0
220
0.0
230
1.0
 70
    24
 71
     3
 72
     8
 73
     4
 74
     0
 42
0.000000001
 43
0.0000000001
 40
0.0
 40
0.0
 40
0.0
 40
0.0
 40
1.0
 40
1.0
 40
1.0
 40
1.0
 10
355.0691937904111
 20
52.55470417816077
 30
0.0
 10
355.0691937904111
 20
52.55470417816077
 30
0.0
 10
336.204174105148
 20
35.84701011554435
 30
0.0
 10
336.204174105148
 20
35.84701011554435
 30
0.0
  0
SPLINE
  5
13A
330
70
100
AcDbEntity
  8
레이어 1
370
     5
100
AcDbSpline
210
0.0
220
0.0
230
1.0
 70
     8
 71
     3
 72
     8
 73
     4
 74
     0
 42
0.000000001
 43
0.0000000001
 40
0.0
 40
0.0
 40
0.0
 40
0.0
 40
1.0
 40
1.0
 40
1.0
 40
1.0
 10
103.8367937503092
 20
24.87560570660666
 30
0.0
 10
100.7354908250811
 20
26.42061141758681
 30
0.0
 10
97.34309599736704
 20
25.71570880851853
 30
0.0
 10
97.34309599736704
 20
25.71570880851853
 30
0.0
  0
SPLINE
  5
13B
330
70
100
AcDbEntity
  8
레이어 1
370
     5
100
AcDbSpline
210
0.0
220
0.0
230
1.0
 70
    24
 71
     3
 72
     8
 73
     4
 74
     0
 42
0.000000001
 43
0.0000000001
 40
0.0
 40
0.0
 40
0.0
 40
0.0
 40
1.0
 40
1.0
 40
1.0
 40
1.0
 10
330.7063716816368
 20
119.9571032448159
 30
0.0
 10
330.7063716816368
 20
119.9571032448159
 30
0.0
 10
356.3710735996111
 20
58.21700396785905
 30
0.0
 10
356.3710735996111
 20
58.21700396785905
 30
0.0
  0
SPLINE
  5
13C
330
70
100
AcDbEntity
  8
레이어 1
370
     5
100
AcDbSpline
210
0.0
220
0.0
230
1.0
 70
     8
 71
     3
 72
     8
 73
     4
 74
     0
 42
0.000000001
 43
0.0000000001
 40
0.0
 40
0.0
 40
0.0
 40
0.0
 40
1.0
 40
1.0
 40
1.0
 40
1.0
 10
1.395099918636933
 20
58.21700396785905
 30
0.0
 10
14.22739902158618
 20
89.08700496895002
 30
0.0
 10
27.05979766428626
 20
119.9571032448159
 30
0.0
 10
27.05979766428626
 20
119.9571032448159
 30
0.0
  0
SPLINE
  5
13D
330
70
100
AcDbEntity
  8
레이어 1
370
     5
100
AcDbSpline
210
0.0
220
0.0
230
1.0
 70
     8
 71
     3
 72
     8
 73
     4
 74
     0
 42
0.000000001
 43
0.0000000001
 40
0.0
 40
0.0
 40
0.0
 40
0.0
 40
1.0
 40
1.0
 40
1.0
 40
1.0
 10
21.56199905547208
 20
35.84701011554435
 30
0.0
 10
12.12949970325752
 20
44.20080755579091
 30
0.0
 10
2.696999874205705
 20
52.55470417816077
 30
0.0
 10
2.696999874205705
 20
52.55470417816077
 30
0.0
  0
SPLINE
  5
13E
330
70
100
AcDbEntity
  8
레이어 1
370
     5
100
AcDbSpline
210
0.0
220
0.0
230
1.0
 70
     8
 71
     3
 72
     8
 73
     4
 74
     0
 42
0.000000001
 43
0.0000000001
 40
0.0
 40
0.0
 40
0.0
 40
0.0
 40
1.0
 40
1.0
 40
1.0
 40
1.0
 10
65.53779994418025
 20
151.1560011074597
 30
0.0
 10
67.07579424198264
 20
151.7654010827385
 30
0.0
 10
68.67369454225711
 20
151.3372010948776
 30
0.0
 10
68.67369454225711
 20
151.3372010948776
 30
0.0
  0
SPLINE
  5
13F
330
70
100
AcDbEntity
  8
레이어 1
370
     5
100
AcDbSpline
210
0.0
220
0.0
230
1.0
 70
     8
 71
     3
 72
     8
 73
     4
 74
     0
 42
0.000000001
 43
0.0000000001
 40
0.0
 40
0.0
 40
0.0
 40
0.0
 40
1.0
 40
1.0
 40
1.0
 40
1.0
 10
355.0691937904111
 20
52.55460499603746
 30
0.0
 10
356.6677959949428
 20
53.9704145473306
 30
0.0
 10
357.1908062192763
 20
56.24518706275047
 30
0.0
 10
356.3710735996111
 20
58.21700396785905
 30
0.0
  0
SPLINE
  5
140
330
70
100
AcDbEntity
  8
레이어 1
370
     5
100
AcDbSpline
210
0.0
220
0.0
230
1.0
 70
     8
 71
     3
 72
     8
 73
     4
 74
     0
 42
0.000000001
 43
0.0000000001
 40
0.0
 40
0.0
 40
0.0
 40
0.0
 40
1.0
 40
1.0
 40
1.0
 40
1.0
 10
23.42569790944286
 20
34.8054070860611
 30
0.0
 10
22.38009898479996
 20
35.12250759303353
 30
0.0
 10
21.56199905547208
 20
35.84701011554435
 30
0.0
 10
21.56199905547208
 20
35.84701011554435
 30
0.0
  0
SPLINE
  5
141
330
70
100
AcDbEntity
  8
레이어 1
370
     5
100
AcDbSpline
210
0.0
220
0.0
230
1.0
 70
    24
 71
     3
 72
     8
 73
     4
 74
     0
 42
0.000000001
 43
0.0000000001
 40
0.0
 40
0.0
 40
0.0
 40
0.0
 40
1.0
 40
1.0
 40
1.0
 40
1.0
 10
201.6591835438176
 20
0.0071149862878123
 30
0.0
 10
201.6591835438176
 20
0.0071149862878123
 30
0.0
 10
178.8830923023555
 20
0.0071149862878123
 30
0.0
 10
178.8830923023555
 20
0.0071149862878123
 30
0.0
  0
SPLINE
  5
142
330
70
100
AcDbEntity
  8
레이어 1
370
     5
100
AcDbSpline
210
0.0
220
0.0
230
1.0
 70
     8
 71
     3
 72
     8
 73
     4
 74
     0
 42
0.000000001
 43
0.0000000001
 40
0.0
 40
0.0
 40
0.0
 40
0.0
 40
1.0
 40
1.0
 40
1.0
 40
1.0
 10
27.05979766428626
 20
119.9571032448159
 30
0.0
 10
27.71249805157494
 20
121.5274023045854
 30
0.0
 10
29.18729807804819
 20
122.3740018355733
 30
0.0
 10
29.18729807804819
 20
122.3740018355733
 30
0.0
  0
SPLINE
  5
143
330
70
100
AcDbEntity
  8
레이어 1
370
     5
100
AcDbSpline
210
0.0
220
0.0
230
1.0
 70
     8
 71
     3
 72
     8
 73
     4
 74
     0
 42
0.000000001
 43
0.0000000001
 40
0.0
 40
0.0
 40
0.0
 40
0.0
 40
1.0
 40
1.0
 40
1.0
 40
1.0
 10
257.3051001972197
 20
144.071001589131
 30
0.0
 10
258.3829809956478
 20
143.5525790148371
 30
0.0
 10
259.6109777523846
 20
143.4377327917776
 30
0.0
 10
260.7662816421381
 20
143.7473011794253
 30
0.0
  0
SPLINE
  5
144
330
70
100
AcDbEntity
  8
레이어 1
370
     5
100
AcDbSpline
210
0.0
220
0.0
230
1.0
 70
    24
 71
     3
 72
     8
 73
     4
 74
     0
 42
0.000000001
 43
0.0000000001
 40
0.0
 40
0.0
 40
0.0
 40
0.0
 40
1.0
 40
1.0
 40
1.0
 40
1.0
 10
201.3796883203634
 20
129.0799016486604
 30
0.0
 10
201.3796883203634
 20
129.0799016486604
 30
0.0
 10
214.2056916234594
 20
138.5960019940728
 30
0.0
 10
214.2056916234594
 20
138.5960019940728
 30
0.0
  0
SPLINE
  5
145
330
70
100
AcDbEntity
  8
레이어 1
370
     5
100
AcDbSpline
210
0.0
220
0.0
230
1.0
 70
     8
 71
     3
 72
     8
 73
     4
 74
     0
 42
0.000000001
 43
0.0000000001
 40
0.0
 40
0.0
 40
0.0
 40
0.0
 40
1.0
 40
1.0
 40
1.0
 40
1.0
 10
110.8458952216674
 20
147.7245014626589
 30
0.0
 10
126.3605961876771
 20
143.5673018381015
 30
0.0
 10
141.875388706416
 20
139.4102013956673
 30
0.0
 10
141.875388706416
 20
139.4102013956673
 30
0.0
  0
SPLINE
  5
146
330
70
100
AcDbEntity
  8
레이어 1
370
     5
100
AcDbSpline
210
0.0
220
0.0
230
1.0
 70
     8
 71
     3
 72
     8
 73
     4
 74
     0
 42
0.000000001
 43
0.0000000001
 40
0.0
 40
0.0
 40
0.0
 40
0.0
 40
1.0
 40
1.0
 40
1.0
 40
1.0
 10
141.875388706416
 20
139.4102013956673
 30
0.0
 10
142.795493634859
 20
139.163602212223
 30
0.0
 10
143.5604929812518
 20
138.5960019940728
 30
0.0
 10
143.5604929812518
 20
138.5960019940728
 30
0.0
  0
SPLINE
  5
147
330
70
100
AcDbEntity
  8
레이어 1
370
     5
100
AcDbSpline
210
0.0
220
0.0
230
1.0
 70
     8
 71
     3
 72
     8
 73
     4
 74
     0
 42
0.000000001
 43
0.0000000001
 40
0.0
 40
0.0
 40
0.0
 40
0.0
 40
1.0
 40
1.0
 40
1.0
 40
1.0
 10
284.0097800837341
 20
20.81460892695139
 30
0.0
 10
285.6481161727377
 20
20.47415484463927
 30
0.0
 10
287.3456868775327
 20
20.55028093896767
 30
0.0
 10
288.9469746287876
 20
21.03601394372929
 30
0.0
  0
SPLINE
  5
148
330
70
100
AcDbEntity
  8
레이어 1
370
     5
100
AcDbSpline
210
0.0
220
0.0
230
1.0
 70
     8
 71
     3
 72
     8
 73
     4
 74
     0
 42
0.000000001
 43
0.0000000001
 40
0.0
 40
0.0
 40
0.0
 40
0.0
 40
1.0
 40
1.0
 40
1.0
 40
1.0
 10
201.6591835438176
 20
0.0071149862878123
 30
0.0
 10
203.2067603606094
 20
0.0071149862878123
 30
0.0
 10
204.7332037557446
 20
0.3663068605091761
 30
0.0
 10
206.1183812897268
 20
1.056416074417824
 30
0.0
  0
SPLINE
  5
149
330
70
100
AcDbEntity
  8
레이어 1
370
     5
100
AcDbSpline
210
0.0
220
0.0
230
1.0
 70
     8
 71
     3
 72
     8
 73
     4
 74
     0
 42
0.000000001
 43
0.0000000001
 40
0.0
 40
0.0
 40
0.0
 40
0.0
 40
1.0
 40
1.0
 40
1.0
 40
1.0
 10
151.6477880561962
 20
1.056416074417824
 30
0.0
 10
127.7422947179498
 20
12.96600707581519
 30
0.0
 10
103.8367937503092
 20
24.87560570660666
 30
0.0
 10
103.8367937503092
 20
24.87560570660666
 30
0.0
  0
SPLINE
  5
14A
330
70
100
AcDbEntity
  8
레이어 1
370
     5
100
AcDbSpline
210
0.0
220
0.0
230
1.0
 70
    24
 71
     3
 72
     8
 73
     4
 74
     0
 42
0.000000001
 43
0.0000000001
 40
0.0
 40
0.0
 40
0.0
 40
0.0
 40
1.0
 40
1.0
 40
1.0
 40
1.0
 10
215.8907806395071
 20
139.4102013956673
 30
0.0
 10
215.8907806395071
 20
139.4102013956673
 30
0.0
 10
246.9202893830438
 20
147.7245014626589
 30
0.0
 10
246.9202893830438
 20
147.7245014626589
 30
0.0
  0
SPLINE
  5
14B
330
70
100
AcDbEntity
  8
레이어 1
370
     5
100
AcDbSpline
210
0.0
220
0.0
230
1.0
 70
     8
 71
     3
 72
     8
 73
     4
 74
     0
 42
0.000000001
 43
0.0000000001
 40
0.0
 40
0.0
 40
0.0
 40
0.0
 40
1.0
 40
1.0
 40
1.0
 40
1.0
 10
68.81919471713553
 20
21.03601394372929
 30
0.0
 10
46.1224987653737
 20
27.9207105148952
 30
0.0
 10
23.42569790944286
 20
34.8054070860611
 30
0.0
 10
23.42569790944286
 20
34.8054070860611
 30
0.0
  0
SPLINE
  5
14C
330
70
100
AcDbEntity
  8
레이어 1
370
     5
100
AcDbSpline
210
0.0
220
0.0
230
1.0
 70
    24
 71
     3
 72
     8
 73
     4
 74
     0
 42
0.000000001
 43
0.0000000001
 40
0.0
 40
0.0
 40
0.0
 40
0.0
 40
1.0
 40
1.0
 40
1.0
 40
1.0
 10
159.365789939131
 20
128.0954027266662
 30
0.0
 10
159.365789939131
 20
128.0954027266662
 30
0.0
 10
180.6976826538543
 20
128.0954027266662
 30
0.0
 10
180.6976826538543
 20
128.0954027266662
 30
0.0
  0
SPLINE
  5
14D
330
70
100
AcDbEntity
  8
레이어 1
370
     5
100
AcDbSpline
210
0.0
220
0.0
230
1.0
 70
    24
 71
     3
 72
     8
 73
     4
 74
     0
 42
0.000000001
 43
0.0000000001
 40
0.0
 40
0.0
 40
0.0
 40
0.0
 40
1.0
 40
1.0
 40
1.0
 40
1.0
 10
41.21549754747031
 20
141.5193016182088
 30
0.0
 10
41.21549754747031
 20
141.5193016182088
 30
0.0
 10
58.13319831207945
 20
148.2223013078636
 30
0.0
 10
58.13319831207945
 20
148.2223013078636
 30
0.0
  0
SPLINE
  5
14E
330
70
100
AcDbEntity
  8
레이어 1
370
     5
100
AcDbSpline
210
0.0
220
0.0
230
1.0
 70
    24
 71
     3
 72
     8
 73
     4
 74
     0
 42
0.000000001
 43
0.0000000001
 40
0.0
 40
0.0
 40
0.0
 40
0.0
 40
1.0
 40
1.0
 40
1.0
 40
1.0
 10
260.7662816421381
 20
143.7473011794253
 30
0.0
 10
260.7662816421381
 20
143.7473011794253
 30
0.0
 10
289.0924824330601
 20
151.3372010948776
 30
0.0
 10
289.0924824330601
 20
151.3372010948776
 30
0.0
  0
SPLINE
  5
14F
330
70
100
AcDbEntity
  8
레이어 1
370
     5
100
AcDbSpline
210
0.0
220
0.0
230
1.0
 70
     8
 71
     3
 72
     8
 73
     4
 74
     0
 42
0.000000001
 43
0.0000000001
 40
0.0
 40
0.0
 40
0.0
 40
0.0
 40
1.0
 40
1.0
 40
1.0
 40
1.0
 10
260.4229894252209
 20
25.71570880851853
 30
0.0
 10
258.2255103014268
 20
26.17233567478919
 30
0.0
 10
255.9383095030182
 20
25.87642962462616
 30
0.0
 10
253.9293832250079
 20
24.87560570660666
 30
0.0
  0
SPLINE
  5
150
330
70
100
AcDbEntity
  8
레이어 1
370
     5
100
AcDbSpline
210
0.0
220
0.0
230
1.0
 70
     8
 71
     3
 72
     8
 73
     4
 74
     0
 42
0.000000001
 43
0.0000000001
 40
0.0
 40
0.0
 40
0.0
 40
0.0
 40
1.0
 40
1.0
 40
1.0
 40
1.0
 10
33.06859783112079
 20
124.6024028936543
 30
0.0
 10
34.8707980466013
 20
125.6371032288258
 30
0.0
 10
35.40869703352071
 20
127.6445017206675
 30
0.0
 10
35.40869703352071
 20
127.6445017206675
 30
0.0
  0
SPLINE
  5
151
330
70
100
AcDbEntity
  8
레이어 1
370
     5
100
AcDbSpline
210
0.0
220
0.0
230
1.0
 70
     8
 71
     3
 72
     8
 73
     4
 74
     0
 42
0.000000001
 43
0.0000000001
 40
0.0
 40
0.0
 40
0.0
 40
0.0
 40
1.0
 40
1.0
 40
1.0
 40
1.0
 10
156.3864962843479
 20
129.0799016486604
 30
0.0
 10
157.7134920589245
 20
128.0954027266662
 30
0.0
 10
159.365789939131
 20
128.0954027266662
 30
0.0
 10
159.365789939131
 20
128.0954027266662
 30
0.0
  0
SPLINE
  5
152
330
70
100
AcDbEntity
  8
레이어 1
370
     5
100
AcDbSpline
210
0.0
220
0.0
230
1.0
 70
     8
 71
     3
 72
     8
 73
     4
 74
     0
 42
0.000000001
 43
0.0000000001
 40
0.0
 40
0.0
 40
0.0
 40
0.0
 40
1.0
 40
1.0
 40
1.0
 40
1.0
 10
38.22769711826583
 20
138.1650022625836
 30
0.0
 10
38.87829751482835
 20
140.5933020291494
 30
0.0
 10
41.21549754747031
 20
141.5193016182088
 30
0.0
 10
41.21549754747031
 20
141.5193016182088
 30
0.0
  0
SPLINE
  5
153
330
70
100
AcDbEntity
  8
레이어 1
370
     5
100
AcDbSpline
210
0.0
220
0.0
230
1.0
 70
    24
 71
     3
 72
     8
 73
     4
 74
     0
 42
0.000000001
 43
0.0000000001
 40
0.0
 40
0.0
 40
0.0
 40
0.0
 40
1.0
 40
1.0
 40
1.0
 40
1.0
 10
58.13319831207945
 20
148.2223013078636
 30
0.0
 10
58.13319831207945
 20
148.2223013078636
 30
0.0
 10
65.53779994418025
 20
151.1560011074597
 30
0.0
 10
65.53779994418025
 20
151.1560011074597
 30
0.0
  0
SPLINE
  5
154
330
70
100
AcDbEntity
  8
레이어 1
370
     5
100
AcDbSpline
210
0.0
220
0.0
230
1.0
 70
    24
 71
     3
 72
     8
 73
     4
 74
     0
 42
0.000000001
 43
0.0000000001
 40
0.0
 40
0.0
 40
0.0
 40
0.0
 40
1.0
 40
1.0
 40
1.0
 40
1.0
 10
292.2282854784076
 20
151.1560011074597
 30
0.0
 10
292.2282854784076
 20
151.1560011074597
 30
0.0
 10
299.6329786632377
 20
148.2223013078636
 30
0.0
 10
299.6329786632377
 20
148.2223013078636
 30
0.0
  0
SPLINE
  5
155
330
70
100
AcDbEntity
  8
레이어 1
370
     5
100
AcDbSpline
210
0.0
220
0.0
230
1.0
 70
     8
 71
     3
 72
     8
 73
     4
 74
     0
 42
0.000000001
 43
0.0000000001
 40
0.0
 40
0.0
 40
0.0
 40
0.0
 40
1.0
 40
1.0
 40
1.0
 40
1.0
 10
107.3846908885667
 20
147.4008015297901
 30
0.0
 10
109.0552916852187
 20
148.2043011829964
 30
0.0
 10
110.8458952216674
 20
147.7245014626589
 30
0.0
 10
110.8458952216674
 20
147.7245014626589
 30
0.0
  0
SPLINE
  5
156
330
70
100
AcDbEntity
  8
레이어 1
370
     5
100
AcDbSpline
210
0.0
220
0.0
230
1.0
 70
     8
 71
     3
 72
     8
 73
     4
 74
     0
 42
0.000000001
 43
0.0000000001
 40
0.0
 40
0.0
 40
0.0
 40
0.0
 40
1.0
 40
1.0
 40
1.0
 40
1.0
 10
29.18729807804819
 20
122.3740018355733
 30
0.0
 10
31.1278974098485
 20
123.4882023646138
 30
0.0
 10
33.06859783112079
 20
124.6024028936543
 30
0.0
 10
33.06859783112079
 20
124.6024028936543
 30
0.0
  0
SPLINE
  5
157
330
70
100
AcDbEntity
  8
레이어 1
370
     5
100
AcDbSpline
210
0.0
220
0.0
230
1.0
 70
     8
 71
     3
 72
     8
 73
     4
 74
     0
 42
0.000000001
 43
0.0000000001
 40
0.0
 40
0.0
 40
0.0
 40
0.0
 40
1.0
 40
1.0
 40
1.0
 40
1.0
 10
198.4003946655801
 20
128.0954027266662
 30
0.0
 10
199.4734079105725
 20
128.0953798384839
 30
0.0
 10
200.5179635155725
 20
128.4405488863497
 30
0.0
 10
201.3796883203634
 20
129.0799016486604
 30
0.0
  0
SPLINE
  5
158
330
70
100
AcDbEntity
  8
레이어 1
370
     5
100
AcDbSpline
210
0.0
220
0.0
230
1.0
 70
    24
 71
     3
 72
     8
 73
     4
 74
     0
 42
0.000000001
 43
0.0000000001
 40
0.0
 40
0.0
 40
0.0
 40
0.0
 40
1.0
 40
1.0
 40
1.0
 40
1.0
 10
178.8830923023555
 20
0.0071149862878123
 30
0.0
 10
178.8830923023555
 20
0.0071149862878123
 30
0.0
 10
156.1069858021054
 20
0.0071149862878123
 30
0.0
 10
156.1069858021054
 20
0.0071149862878123
 30
0.0
  0
SPLINE
  5
159
330
70
100
AcDbEntity
  8
레이어 1
370
     5
100
AcDbSpline
210
0.0
220
0.0
230
1.0
 70
     8
 71
     3
 72
     8
 73
     4
 74
     0
 42
0.000000001
 43
0.0000000001
 40
0.0
 40
0.0
 40
0.0
 40
0.0
 40
1.0
 40
1.0
 40
1.0
 40
1.0
 10
96.99989533317896
 20
143.7473011794253
 30
0.0
 10
98.7904912402336
 20
143.2675019359246
 30
0.0
 10
100.4610920368856
 20
144.071001589131
 30
0.0
 10
100.4610920368856
 20
144.071001589131
 30
0.0
  0
SPLINE
  5
15A
330
70
100
AcDbEntity
  8
레이어 1
370
     5
100
AcDbSpline
210
0.0
220
0.0
230
1.0
 70
    24
 71
     3
 72
     8
 73
     4
 74
     0
 42
0.000000001
 43
0.0000000001
 40
0.0
 40
0.0
 40
0.0
 40
0.0
 40
1.0
 40
1.0
 40
1.0
 40
1.0
 10
334.3404962320109
 20
34.8054070860611
 30
0.0
 10
334.3404962320109
 20
34.8054070860611
 30
0.0
 10
288.9469746287876
 20
21.03601394372929
 30
0.0
 10
288.9469746287876
 20
21.03601394372929
 30
0.0
  0
SPLINE
  5
15B
330
70
100
AcDbEntity
  8
레이어 1
370
     5
100
AcDbSpline
210
0.0
220
0.0
230
1.0
 70
     8
 71
     3
 72
     8
 73
     4
 74
     0
 42
0.000000001
 43
0.0000000001
 40
0.0
 40
0.0
 40
0.0
 40
0.0
 40
1.0
 40
1.0
 40
1.0
 40
1.0
 10
330.7063716816368
 20
119.9571032448159
 30
0.0
 10
330.2830928969767
 20
120.9752840344126
 30
0.0
 10
329.5351376170029
 20
121.8249925434962
 30
0.0
 10
328.5788693605265
 20
122.3740018355733
 30
0.0
  0
SPLINE
  5
15C
330
70
100
AcDbEntity
  8
레이어 1
370
     5
100
AcDbSpline
210
0.0
220
0.0
230
1.0
 70
     8
 71
     3
 72
     8
 73
     4
 74
     0
 42
0.000000001
 43
0.0000000001
 40
0.0
 40
0.0
 40
0.0
 40
0.0
 40
1.0
 40
1.0
 40
1.0
 40
1.0
 10
292.2283770311369
 20
151.1561011240478
 30
0.0
 10
291.2296893434654
 20
151.5517732143785
 30
0.0
 10
290.1300800306409
 20
151.615274732733
 30
0.0
 10
289.0924824330601
 20
151.3372010948776
 30
0.0
  0
SPLINE
  5
15D
330
70
100
AcDbEntity
  8
레이어 1
370
     5
100
AcDbSpline
210
0.0
220
0.0
230
1.0
 70
     8
 71
     3
 72
     8
 73
     4
 74
     0
 42
0.000000001
 43
0.0000000001
 40
0.0
 40
0.0
 40
0.0
 40
0.0
 40
1.0
 40
1.0
 40
1.0
 40
1.0
 10
215.8907806395071
 20
139.410102213544
 30
0.0
 10
215.2828552588421
 20
139.2472070201179
 30
0.0
 10
214.7111389825751
 20
138.9710029265436
 30
0.0
 10
214.2056916234594
 20
138.5960019940728
 30
0.0
  0
SPLINE
  5
15E
330
70
100
AcDbEntity
  8
레이어 1
370
     5
100
AcDbSpline
210
0.0
220
0.0
230
1.0
 70
     8
 71
     3
 72
     8
 73
     4
 74
     0
 42
0.000000001
 43
0.0000000001
 40
0.0
 40
0.0
 40
0.0
 40
0.0
 40
1.0
 40
1.0
 40
1.0
 40
1.0
 10
97.34309599736704
 20
25.71570880851853
 30
0.0
 10
85.5497922208397
 20
23.26510927667331
 30
0.0
 10
73.75639689158321
 20
20.81460892695139
 30
0.0
 10
73.75639689158321
 20
20.81460892695139
 30
0.0
  0
SPLINE
  5
15F
330
70
100
AcDbEntity
  8
레이어 1
370
     5
100
AcDbSpline
210
0.0
220
0.0
230
1.0
 70
     8
 71
     3
 72
     8
 73
     4
 74
     0
 42
0.000000001
 43
0.0000000001
 40
0.0
 40
0.0
 40
0.0
 40
0.0
 40
1.0
 40
1.0
 40
1.0
 40
1.0
 10
322.3574952005847
 20
127.6445017206675
 30
0.0
 10
322.7017639799467
 20
126.3595420002323
 30
0.0
 10
323.5439270182656
 20
125.264754464479
 30
0.0
 10
324.6975829588933
 20
124.6024028936543
 30
0.0
  0
SPLINE
  5
160
330
70
100
AcDbEntity
  8
레이어 1
370
     5
100
AcDbSpline
210
0.0
220
0.0
230
1.0
 70
    24
 71
     3
 72
     8
 73
     4
 74
     0
 42
0.000000001
 43
0.0000000001
 40
0.0
 40
0.0
 40
0.0
 40
0.0
 40
1.0
 40
1.0
 40
1.0
 40
1.0
 10
324.6975829588933
 20
124.6024028936543
 30
0.0
 10
324.6975829588933
 20
124.6024028936543
 30
0.0
 10
328.5788693605265
 20
122.3740018355733
 30
0.0
 10
328.5788693605265
 20
122.3740018355733
 30
0.0
  0
SPLINE
  5
161
330
70
100
AcDbEntity
  8
레이어 1
370
     5
100
AcDbSpline
210
0.0
220
0.0
230
1.0
 70
     8
 71
     3
 72
     8
 73
     4
 74
     0
 42
0.000000001
 43
0.0000000001
 40
0.0
 40
0.0
 40
0.0
 40
0.0
 40
1.0
 40
1.0
 40
1.0
 40
1.0
 10
35.40869703352071
 20
127.6445017206675
 30
0.0
 10
36.81819707589327
 20
132.9047019237268
 30
0.0
 10
38.22769711826583
 20
138.1650022625836
 30
0.0
 10
38.22769711826583
 20
138.1650022625836
 30
0.0
  0
SPLINE
  5
162
330
70
100
AcDbEntity
  8
레이어 1
370
     5
100
AcDbSpline
210
0.0
220
0.0
230
1.0
 70
     8
 71
     3
 72
     8
 73
     4
 74
     0
 42
0.000000001
 43
0.0000000001
 40
0.0
 40
0.0
 40
0.0
 40
0.0
 40
1.0
 40
1.0
 40
1.0
 40
1.0
 10
156.1069858021054
 20
0.0071149862878123
 30
0.0
 10
153.7538975562505
 20
0.0071149862878123
 30
0.0
 10
151.6477880561962
 20
1.056416074417824
 30
0.0
 10
151.6477880561962
 20
1.056416074417824
 30
0.0
  0
SPLINE
  5
163
330
70
100
AcDbEntity
  8
레이어 1
370
     5
100
AcDbSpline
210
0.0
220
0.0
230
1.0
 70
     8
 71
     3
 72
     8
 73
     4
 74
     0
 42
0.000000001
 43
0.0000000001
 40
0.0
 40
0.0
 40
0.0
 40
0.0
 40
1.0
 40
1.0
 40
1.0
 40
1.0
 10
334.3404962320109
 20
34.8054070860611
 30
0.0
 10
335.0294610368046
 20
35.01436856106213
 30
0.0
 10
335.6652031883576
 20
35.36966944429257
 30
0.0
 10
336.204174105148
 20
35.84701011554435
 30
0.0
  0
SPLINE
  5
164
330
70
100
AcDbEntity
  8
레이어 1
370
     5
100
AcDbSpline
210
0.0
220
0.0
230
1.0
 70
     8
 71
     3
 72
     8
 73
     4
 74
     0
 42
0.000000001
 43
0.0000000001
 40
0.0
 40
0.0
 40
0.0
 40
0.0
 40
1.0
 40
1.0
 40
1.0
 40
1.0
 10
68.67369454225711
 20
151.3372010948776
 30
0.0
 10
82.83679493771805
 20
147.5423015179746
 30
0.0
 10
96.99989533317896
 20
143.7473011794253
 30
0.0
 10
96.99989533317896
 20
143.7473011794253
 30
0.0
  0
SPLINE
  5
165
330
70
100
AcDbEntity
  8
레이어 1
370
     5
100
AcDbSpline
210
0.0
220
0.0
230
1.0
 70
     8
 71
     3
 72
     8
 73
     4
 74
     0
 42
0.000000001
 43
0.0000000001
 40
0.0
 40
0.0
 40
0.0
 40
0.0
 40
1.0
 40
1.0
 40
1.0
 40
1.0
 10
143.5604929812518
 20
138.5960019940728
 30
0.0
 10
149.9734870034057
 20
133.8380018892655
 30
0.0
 10
156.3864962843479
 20
129.0799016486604
 30
0.0
 10
156.3864962843479
 20
129.0799016486604
 30
0.0
  0
CIRCLE
  5
166
330
70
100
AcDbEntity
  8
레이어 1
370
     5
100
AcDbCircle
 10
202.178592694136
 20
123.2161019313908
 30
0.0
 40
1.60000315202321
  0
CIRCLE
  5
167
330
70
100
AcDbEntity
  8
레이어 1
370
     5
100
AcDbCircle
 10
248.0585797239546
 20
142.3361015703075
 30
0.0
 40
1.600003092418556
  0
CIRCLE
  5
168
330
70
100
AcDbEntity
  8
레이어 1
370
     5
100
AcDbCircle
 10
314.2685674353029
 20
136.5461022934679
 30
0.0
 40
1.6000027943954
  0
CIRCLE
  5
169
330
70
100
AcDbEntity
  8
레이어 1
370
     5
100
AcDbCircle
 10
351.24857633066
 20
56.41610837876961
 30
0.0
 40
1.600002198348988
  0
CIRCLE
  5
16A
330
70
100
AcDbEntity
  8
레이어 1
370
     5
100
AcDbCircle
 10
286.2985983136917
 20
26.11610704027324
 30
0.0
 40
1.600002198348988
  0
CIRCLE
  5
16B
330
70
100
AcDbEntity
  8
레이어 1
370
     5
100
AcDbCircle
 10
202.4485816925418
 20
5.616108199410381
 30
0.0
 40
1.600006013046038
  0
CIRCLE
  5
16C
330
70
100
AcDbEntity
  8
레이어 1
370
     5
100
AcDbCircle
 10
155.3135898508729
 20
5.616108199410381
 30
0.0
 40
1.600006013046038
  0
CIRCLE
  5
16D
330
70
100
AcDbEntity
  8
레이어 1
370
     5
100
AcDbCircle
 10
71.46359611790535
 20
26.11610704027324
 30
0.0
 40
1.599998383651939
  0
CIRCLE
  5
16E
330
70
100
AcDbEntity
  8
레이어 1
370
     5
100
AcDbCircle
 10
6.513599504288959
 20
56.41610837876961
 30
0.0
 40
1.599999098907654
  0
CIRCLE
  5
16F
330
70
100
AcDbEntity
  8
레이어 1
370
     5
100
AcDbCircle
 10
155.5835941080669
 20
123.2161019313908
 30
0.0
 40
1.60000315202321
  0
CIRCLE
  5
170
330
70
100
AcDbEntity
  8
레이어 1
370
     5
100
AcDbCircle
 10
109.7035918194601
 20
142.3361015703075
 30
0.0
 40
1.599999277721506
  0
CIRCLE
  5
171
330
70
100
AcDbEntity
  8
레이어 1
370
     5
100
AcDbCircle
 10
43.49359647871772
 20
136.5461022934679
 30
0.0
 40
1.599998979698351
  0
SPLINE
  5
172
330
70
100
AcDbEntity
  8
레이어 1
370
     5
100
AcDbSpline
210
0.0
220
0.0
230
1.0
 70
     8
 71
     3
 72
     8
 73
     4
 74
     0
 42
0.000000001
 43
0.0000000001
 40
0.0
 40
0.0
 40
0.0
 40
0.0
 40
1.0
 40
1.0
 40
1.0
 40
1.0
 10
319.5384951158396
 20
138.1650022625836
 30
0.0
 10
319.1291018284411
 20
139.6927512377843
 30
0.0
 10
318.021039146954
 20
140.9367182237206
 30
0.0
 10
316.5505802457236
 20
141.5193016182088
 30
0.0
  0
SPLINE
  5
173
330
70
100
AcDbEntity
  8
레이어 1
370
     5
100
AcDbSpline
210
0.0
220
0.0
230
1.0
 70
    24
 71
     3
 72
     8
 73
     4
 74
     0
 42
0.000000001
 43
0.0000000001
 40
0.0
 40
0.0
 40
0.0
 40
0.0
 40
1.0
 40
1.0
 40
1.0
 40
1.0
 10
180.6976826538543
 20
128.0954027266662
 30
0.0
 10
180.6976826538543
 20
128.0954027266662
 30
0.0
 10
198.4003946655801
 20
128.0954027266662
 30
0.0
 10
198.4003946655801
 20
128.0954027266662
 30
0.0
  0
SPLINE
  5
174
330
70
100
AcDbEntity
  8
레이어 1
370
     5
100
AcDbSpline
210
0.0
220
0.0
230
1.0
 70
     8
 71
     3
 72
     8
 73
     4
 74
     0
 42
0.000000001
 43
0.0000000001
 40
0.0
 40
0.0
 40
0.0
 40
0.0
 40
1.0
 40
1.0
 40
1.0
 40
1.0
 10
250.3814860867505
 20
147.4008015297901
 30
0.0
 10
249.3036052883224
 20
147.91920145432
 30
0.0
 10
248.0756085315855
 20
148.0340472005423
 30
0.0
 10
246.9202893830438
 20
147.7245014626589
 30
0.0
  0
SPLINE
  5
175
330
70
100
AcDbEntity
  8
레이어 1
370
     5
100
AcDbSpline
210
0.0
220
0.0
230
1.0
 70
    24
 71
     3
 72
     8
 73
     4
 74
     0
 42
0.000000001
 43
0.0000000001
 40
0.0
 40
0.0
 40
0.0
 40
0.0
 40
1.0
 40
1.0
 40
1.0
 40
1.0
 10
299.6329786632377
 20
148.2223013078636
 30
0.0
 10
299.6329786632377
 20
148.2223013078636
 30
0.0
 10
316.5505802457236
 20
141.5193016182088
 30
0.0
 10
316.5505802457236
 20
141.5193016182088
 30
0.0
  0
SPLINE
  5
176
330
70
100
AcDbEntity
  8
레이어 1
370
     5
100
AcDbSpline
210
0.0
220
0.0
230
1.0
 70
    24
 71
     3
 72
     8
 73
     4
 74
     0
 42
0.000000001
 43
0.0000000001
 40
0.0
 40
0.0
 40
0.0
 40
0.0
 40
1.0
 40
1.0
 40
1.0
 40
1.0
 10
250.3814860867505
 20
147.4008015297901
 30
0.0
 10
250.3814860867505
 20
147.4008015297901
 30
0.0
 10
257.3051001972197
 20
144.071001589131
 30
0.0
 10
257.3051001972197
 20
144.071001589131
 30
0.0
  0
SPLINE
  5
177
330
70
100
AcDbEntity
  8
레이어 1
370
     5
100
AcDbSpline
210
0.0
220
0.0
230
1.0
 70
    24
 71
     3
 72
     8
 73
     4
 74
     0
 42
0.000000001
 43
0.0000000001
 40
0.0
 40
0.0
 40
0.0
 40
0.0
 40
1.0
 40
1.0
 40
1.0
 40
1.0
 10
253.9293832250079
 20
24.87560570660666
 30
0.0
 10
253.9293832250079
 20
24.87560570660666
 30
0.0
 10
206.1183812897268
 20
1.056416074417824
 30
0.0
 10
206.1183812897268
 20
1.056416074417824
 30
0.0
  0
SPLINE
  5
178
330
70
100
AcDbEntity
  8
레이어 1
370
     5
100
AcDbSpline
210
0.0
220
0.0
230
1.0
 70
     8
 71
     3
 72
     8
 73
     4
 74
     0
 42
0.000000001
 43
0.0000000001
 40
0.0
 40
0.0
 40
0.0
 40
0.0
 40
1.0
 40
1.0
 40
1.0
 40
1.0
 10
100.4610920368856
 20
144.071001589131
 30
0.0
 10
103.9228914627261
 20
145.7359013210421
 30
0.0
 10
107.3846908885667
 20
147.4008015297901
 30
0.0
 10
107.3846908885667
 20
147.4008015297901
 30
0.0
  0
SPLINE
  5
179
330
70
100
AcDbEntity
  8
레이어 1
370
     5
100
AcDbSpline
210
0.0
220
0.0
230
1.0
 70
    24
 71
     3
 72
     8
 73
     4
 74
     0
 42
0.000000001
 43
0.0000000001
 40
0.0
 40
0.0
 40
0.0
 40
0.0
 40
1.0
 40
1.0
 40
1.0
 40
1.0
 10
319.5384951158396
 20
138.1650022625836
 30
0.0
 10
319.5384951158396
 20
138.1650022625836
 30
0.0
 10
322.3574952005847
 20
127.6445017206675
 30
0.0
 10
322.3574952005847
 20
127.6445017206675
 30
0.0
  0
SPLINE
  5
17A
330
70
100
AcDbEntity
  8
레이어 1
370
     5
100
AcDbSpline
210
0.0
220
0.0
230
1.0
 70
    24
 71
     3
 72
     8
 73
     4
 74
     0
 42
0.000000001
 43
0.0000000001
 40
0.0
 40
0.0
 40
0.0
 40
0.0
 40
1.0
 40
1.0
 40
1.0
 40
1.0
 10
284.0097800837341
 20
20.81460892695139
 30
0.0
 10
284.0097800837341
 20
20.81460892695139
 30
0.0
 10
260.4229894252209
 20
25.71570880851853
 30
0.0
 10
260.4229894252209
 20
25.71570880851853
 30
0.0
  0
SPLINE
  5
17B
330
70
100
AcDbEntity
  8
레이어 1
370
     5
100
AcDbSpline
210
0.0
220
0.0
230
1.0
 70
     8
 71
     3
 72
     8
 73
     4
 74
     0
 42
0.000000001
 43
0.0000000001
 40
0.0
 40
0.0
 40
0.0
 40
0.0
 40
1.0
 40
1.0
 40
1.0
 40
1.0
 10
73.75639689158321
 20
20.81460892695139
 30
0.0
 10
71.25959374906924
 20
20.29570331664357
 30
0.0
 10
68.81919471713553
 20
21.03601394372929
 30
0.0
 10
68.81919471713553
 20
21.03601394372929
 30
0.0
  0
SPLINE
  5
17C
330
70
100
AcDbEntity
  8
레이어 1
370
     5
100
AcDbSpline
210
0.0
220
0.0
230
1.0
 70
     8
 71
     3
 72
     8
 73
     4
 74
     0
 42
0.000000001
 43
0.0000000001
 40
0.0
 40
0.0
 40
0.0
 40
0.0
 40
1.0
 40
1.0
 40
1.0
 40
1.0
 10
2.696999874205705
 20
52.55470417816077
 30
0.0
 10
0.0249999989589244
 20
54.92110571671994
 30
0.0
 10
1.395099918636933
 20
58.21700396785905
 30
0.0
 10
1.395099918636933
 20
58.21700396785905
 30
0.0
  0
SPLINE
  5
17D
330
70
100
AcDbEntity
  8
레이어 1
370
     5
100
AcDbSpline
210
0.0
220
0.0
230
1.0
 70
    24
 71
     3
 72
     8
 73
     4
 74
     0
 42
0.000000001
 43
0.0000000001
 40
0.0
 40
0.0
 40
0.0
 40
0.0
 40
1.0
 40
1.0
 40
1.0
 40
1.0
 10
355.0691937904111
 20
52.55470417816077
 30
0.0
 10
355.0691937904111
 20
52.55470417816077
 30
0.0
 10
336.204174105148
 20
35.84701011554435
 30
0.0
 10
336.204174105148
 20
35.84701011554435
 30
0.0
  0
SPLINE
  5
17E
330
70
100
AcDbEntity
  8
레이어 1
370
     5
100
AcDbSpline
210
0.0
220
0.0
230
1.0
 70
     8
 71
     3
 72
     8
 73
     4
 74
     0
 42
0.000000001
 43
0.0000000001
 40
0.0
 40
0.0
 40
0.0
 40
0.0
 40
1.0
 40
1.0
 40
1.0
 40
1.0
 10
103.8367937503092
 20
24.87560570660666
 30
0.0
 10
100.7354908250811
 20
26.42061141758681
 30
0.0
 10
97.34309599736704
 20
25.71570880851853
 30
0.0
 10
97.34309599736704
 20
25.71570880851853
 30
0.0
  0
SPLINE
  5
17F
330
70
100
AcDbEntity
  8
레이어 1
370
     5
100
AcDbSpline
210
0.0
220
0.0
230
1.0
 70
    24
 71
     3
 72
     8
 73
     4
 74
     0
 42
0.000000001
 43
0.0000000001
 40
0.0
 40
0.0
 40
0.0
 40
0.0
 40
1.0
 40
1.0
 40
1.0
 40
1.0
 10
330.7063716816368
 20
119.9571032448159
 30
0.0
 10
330.7063716816368
 20
119.9571032448159
 30
0.0
 10
356.3710735996111
 20
58.21700396785905
 30
0.0
 10
356.3710735996111
 20
58.21700396785905
 30
0.0
  0
SPLINE
  5
180
330
70
100
AcDbEntity
  8
레이어 1
370
     5
100
AcDbSpline
210
0.0
220
0.0
230
1.0
 70
     8
 71
     3
 72
     8
 73
     4
 74
     0
 42
0.000000001
 43
0.0000000001
 40
0.0
 40
0.0
 40
0.0
 40
0.0
 40
1.0
 40
1.0
 40
1.0
 40
1.0
 10
1.395099918636933
 20
58.21700396785905
 30
0.0
 10
14.22739902158618
 20
89.08700496895002
 30
0.0
 10
27.05979766428626
 20
119.9571032448159
 30
0.0
 10
27.05979766428626
 20
119.9571032448159
 30
0.0
  0
SPLINE
  5
181
330
70
100
AcDbEntity
  8
레이어 1
370
     5
100
AcDbSpline
210
0.0
220
0.0
230
1.0
 70
     8
 71
     3
 72
     8
 73
     4
 74
     0
 42
0.000000001
 43
0.0000000001
 40
0.0
 40
0.0
 40
0.0
 40
0.0
 40
1.0
 40
1.0
 40
1.0
 40
1.0
 10
21.56199905547208
 20
35.84701011554435
 30
0.0
 10
12.12949970325752
 20
44.20080755579091
 30
0.0
 10
2.696999874205705
 20
52.55470417816077
 30
0.0
 10
2.696999874205705
 20
52.55470417816077
 30
0.0
  0
SPLINE
  5
182
330
70
100
AcDbEntity
  8
레이어 1
370
     5
100
AcDbSpline
210
0.0
220
0.0
230
1.0
 70
     8
 71
     3
 72
     8
 73
     4
 74
     0
 42
0.000000001
 43
0.0000000001
 40
0.0
 40
0.0
 40
0.0
 40
0.0
 40
1.0
 40
1.0
 40
1.0
 40
1.0
 10
65.53779994418025
 20
151.1560011074597
 30
0.0
 10
67.07579424198264
 20
151.7654010827385
 30
0.0
 10
68.67369454225711
 20
151.3372010948776
 30
0.0
 10
68.67369454225711
 20
151.3372010948776
 30
0.0
  0
SPLINE
  5
183
330
70
100
AcDbEntity
  8
레이어 1
370
     5
100
AcDbSpline
210
0.0
220
0.0
230
1.0
 70
     8
 71
     3
 72
     8
 73
     4
 74
     0
 42
0.000000001
 43
0.0000000001
 40
0.0
 40
0.0
 40
0.0
 40
0.0
 40
1.0
 40
1.0
 40
1.0
 40
1.0
 10
355.0691937904111
 20
52.55460499603746
 30
0.0
 10
356.6677959949428
 20
53.9704145473306
 30
0.0
 10
357.1908062192763
 20
56.24518706275047
 30
0.0
 10
356.3710735996111
 20
58.21700396785905
 30
0.0
  0
SPLINE
  5
184
330
70
100
AcDbEntity
  8
레이어 1
370
     5
100
AcDbSpline
210
0.0
220
0.0
230
1.0
 70
     8
 71
     3
 72
     8
 73
     4
 74
     0
 42
0.000000001
 43
0.0000000001
 40
0.0
 40
0.0
 40
0.0
 40
0.0
 40
1.0
 40
1.0
 40
1.0
 40
1.0
 10
23.42569790944286
 20
34.8054070860611
 30
0.0
 10
22.38009898479996
 20
35.12250759303353
 30
0.0
 10
21.56199905547208
 20
35.84701011554435
 30
0.0
 10
21.56199905547208
 20
35.84701011554435
 30
0.0
  0
SPLINE
  5
185
330
70
100
AcDbEntity
  8
레이어 1
370
     5
100
AcDbSpline
210
0.0
220
0.0
230
1.0
 70
    24
 71
     3
 72
     8
 73
     4
 74
     0
 42
0.000000001
 43
0.0000000001
 40
0.0
 40
0.0
 40
0.0
 40
0.0
 40
1.0
 40
1.0
 40
1.0
 40
1.0
 10
201.6591835438176
 20
0.0071149862878123
 30
0.0
 10
201.6591835438176
 20
0.0071149862878123
 30
0.0
 10
178.8830923023555
 20
0.0071149862878123
 30
0.0
 10
178.8830923023555
 20
0.0071149862878123
 30
0.0
  0
SPLINE
  5
186
330
70
100
AcDbEntity
  8
레이어 1
370
     5
100
AcDbSpline
210
0.0
220
0.0
230
1.0
 70
     8
 71
     3
 72
     8
 73
     4
 74
     0
 42
0.000000001
 43
0.0000000001
 40
0.0
 40
0.0
 40
0.0
 40
0.0
 40
1.0
 40
1.0
 40
1.0
 40
1.0
 10
27.05979766428626
 20
119.9571032448159
 30
0.0
 10
27.71249805157494
 20
121.5274023045854
 30
0.0
 10
29.18729807804819
 20
122.3740018355733
 30
0.0
 10
29.18729807804819
 20
122.3740018355733
 30
0.0
  0
SPLINE
  5
187
330
70
100
AcDbEntity
  8
레이어 1
370
     5
100
AcDbSpline
210
0.0
220
0.0
230
1.0
 70
     8
 71
     3
 72
     8
 73
     4
 74
     0
 42
0.000000001
 43
0.0000000001
 40
0.0
 40
0.0
 40
0.0
 40
0.0
 40
1.0
 40
1.0
 40
1.0
 40
1.0
 10
257.3051001972197
 20
144.071001589131
 30
0.0
 10
258.3829809956478
 20
143.5525790148371
 30
0.0
 10
259.6109777523846
 20
143.4377327917776
 30
0.0
 10
260.7662816421381
 20
143.7473011794253
 30
0.0
  0
SPLINE
  5
188
330
70
100
AcDbEntity
  8
레이어 1
370
     5
100
AcDbSpline
210
0.0
220
0.0
230
1.0
 70
    24
 71
     3
 72
     8
 73
     4
 74
     0
 42
0.000000001
 43
0.0000000001
 40
0.0
 40
0.0
 40
0.0
 40
0.0
 40
1.0
 40
1.0
 40
1.0
 40
1.0
 10
201.3796883203634
 20
129.0799016486604
 30
0.0
 10
201.3796883203634
 20
129.0799016486604
 30
0.0
 10
214.2056916234594
 20
138.5960019940728
 30
0.0
 10
214.2056916234594
 20
138.5960019940728
 30
0.0
  0
SPLINE
  5
189
330
70
100
AcDbEntity
  8
레이어 1
370
     5
100
AcDbSpline
210
0.0
220
0.0
230
1.0
 70
     8
 71
     3
 72
     8
 73
     4
 74
     0
 42
0.000000001
 43
0.0000000001
 40
0.0
 40
0.0
 40
0.0
 40
0.0
 40
1.0
 40
1.0
 40
1.0
 40
1.0
 10
110.8458952216674
 20
147.7245014626589
 30
0.0
 10
126.3605961876771
 20
143.5673018381015
 30
0.0
 10
141.875388706416
 20
139.4102013956673
 30
0.0
 10
141.875388706416
 20
139.4102013956673
 30
0.0
  0
SPLINE
  5
18A
330
70
100
AcDbEntity
  8
레이어 1
370
     5
100
AcDbSpline
210
0.0
220
0.0
230
1.0
 70
     8
 71
     3
 72
     8
 73
     4
 74
     0
 42
0.000000001
 43
0.0000000001
 40
0.0
 40
0.0
 40
0.0
 40
0.0
 40
1.0
 40
1.0
 40
1.0
 40
1.0
 10
141.875388706416
 20
139.4102013956673
 30
0.0
 10
142.795493634859
 20
139.163602212223
 30
0.0
 10
143.5604929812518
 20
138.5960019940728
 30
0.0
 10
143.5604929812518
 20
138.5960019940728
 30
0.0
  0
SPLINE
  5
18B
330
70
100
AcDbEntity
  8
레이어 1
370
     5
100
AcDbSpline
210
0.0
220
0.0
230
1.0
 70
     8
 71
     3
 72
     8
 73
     4
 74
     0
 42
0.000000001
 43
0.0000000001
 40
0.0
 40
0.0
 40
0.0
 40
0.0
 40
1.0
 40
1.0
 40
1.0
 40
1.0
 10
284.0097800837341
 20
20.81460892695139
 30
0.0
 10
285.6481161727377
 20
20.47415484463927
 30
0.0
 10
287.3456868775327
 20
20.55028093896767
 30
0.0
 10
288.9469746287876
 20
21.03601394372929
 30
0.0
  0
SPLINE
  5
18C
330
70
100
AcDbEntity
  8
레이어 1
370
     5
100
AcDbSpline
210
0.0
220
0.0
230
1.0
 70
     8
 71
     3
 72
     8
 73
     4
 74
     0
 42
0.000000001
 43
0.0000000001
 40
0.0
 40
0.0
 40
0.0
 40
0.0
 40
1.0
 40
1.0
 40
1.0
 40
1.0
 10
201.6591835438176
 20
0.0071149862878123
 30
0.0
 10
203.2067603606094
 20
0.0071149862878123
 30
0.0
 10
204.7332037557446
 20
0.3663068605091761
 30
0.0
 10
206.1183812897268
 20
1.056416074417824
 30
0.0
  0
SPLINE
  5
18D
330
70
100
AcDbEntity
  8
레이어 1
370
     5
100
AcDbSpline
210
0.0
220
0.0
230
1.0
 70
     8
 71
     3
 72
     8
 73
     4
 74
     0
 42
0.000000001
 43
0.0000000001
 40
0.0
 40
0.0
 40
0.0
 40
0.0
 40
1.0
 40
1.0
 40
1.0
 40
1.0
 10
151.6477880561962
 20
1.056416074417824
 30
0.0
 10
127.7422947179498
 20
12.96600707581519
 30
0.0
 10
103.8367937503092
 20
24.87560570660666
 30
0.0
 10
103.8367937503092
 20
24.87560570660666
 30
0.0
  0
SPLINE
  5
18E
330
70
100
AcDbEntity
  8
레이어 1
370
     5
100
AcDbSpline
210
0.0
220
0.0
230
1.0
 70
    24
 71
     3
 72
     8
 73
     4
 74
     0
 42
0.000000001
 43
0.0000000001
 40
0.0
 40
0.0
 40
0.0
 40
0.0
 40
1.0
 40
1.0
 40
1.0
 40
1.0
 10
215.8907806395071
 20
139.4102013956673
 30
0.0
 10
215.8907806395071
 20
139.4102013956673
 30
0.0
 10
246.9202893830438
 20
147.7245014626589
 30
0.0
 10
246.9202893830438
 20
147.7245014626589
 30
0.0
  0
SPLINE
  5
18F
330
70
100
AcDbEntity
  8
레이어 1
370
     5
100
AcDbSpline
210
0.0
220
0.0
230
1.0
 70
     8
 71
     3
 72
     8
 73
     4
 74
     0
 42
0.000000001
 43
0.0000000001
 40
0.0
 40
0.0
 40
0.0
 40
0.0
 40
1.0
 40
1.0
 40
1.0
 40
1.0
 10
68.81919471713553
 20
21.03601394372929
 30
0.0
 10
46.1224987653737
 20
27.9207105148952
 30
0.0
 10
23.42569790944286
 20
34.8054070860611
 30
0.0
 10
23.42569790944286
 20
34.8054070860611
 30
0.0
  0
SPLINE
  5
190
330
70
100
AcDbEntity
  8
레이어 1
370
     5
100
AcDbSpline
210
0.0
220
0.0
230
1.0
 70
    24
 71
     3
 72
     8
 73
     4
 74
     0
 42
0.000000001
 43
0.0000000001
 40
0.0
 40
0.0
 40
0.0
 40
0.0
 40
1.0
 40
1.0
 40
1.0
 40
1.0
 10
159.365789939131
 20
128.0954027266662
 30
0.0
 10
159.365789939131
 20
128.0954027266662
 30
0.0
 10
180.6976826538543
 20
128.0954027266662
 30
0.0
 10
180.6976826538543
 20
128.0954027266662
 30
0.0
  0
SPLINE
  5
191
330
70
100
AcDbEntity
  8
레이어 1
370
     5
100
AcDbSpline
210
0.0
220
0.0
230
1.0
 70
    24
 71
     3
 72
     8
 73
     4
 74
     0
 42
0.000000001
 43
0.0000000001
 40
0.0
 40
0.0
 40
0.0
 40
0.0
 40
1.0
 40
1.0
 40
1.0
 40
1.0
 10
41.21549754747031
 20
141.5193016182088
 30
0.0
 10
41.21549754747031
 20
141.5193016182088
 30
0.0
 10
58.13319831207945
 20
148.2223013078636
 30
0.0
 10
58.13319831207945
 20
148.2223013078636
 30
0.0
  0
SPLINE
  5
192
330
70
100
AcDbEntity
  8
레이어 1
370
     5
100
AcDbSpline
210
0.0
220
0.0
230
1.0
 70
    24
 71
     3
 72
     8
 73
     4
 74
     0
 42
0.000000001
 43
0.0000000001
 40
0.0
 40
0.0
 40
0.0
 40
0.0
 40
1.0
 40
1.0
 40
1.0
 40
1.0
 10
260.7662816421381
 20
143.7473011794253
 30
0.0
 10
260.7662816421381
 20
143.7473011794253
 30
0.0
 10
289.0924824330601
 20
151.3372010948776
 30
0.0
 10
289.0924824330601
 20
151.3372010948776
 30
0.0
  0
SPLINE
  5
193
330
70
100
AcDbEntity
  8
레이어 1
370
     5
100
AcDbSpline
210
0.0
220
0.0
230
1.0
 70
     8
 71
     3
 72
     8
 73
     4
 74
     0
 42
0.000000001
 43
0.0000000001
 40
0.0
 40
0.0
 40
0.0
 40
0.0
 40
1.0
 40
1.0
 40
1.0
 40
1.0
 10
260.4229894252209
 20
25.71570880851853
 30
0.0
 10
258.2255103014268
 20
26.17233567478919
 30
0.0
 10
255.9383095030182
 20
25.87642962462616
 30
0.0
 10
253.9293832250079
 20
24.87560570660666
 30
0.0
  0
SPLINE
  5
194
330
70
100
AcDbEntity
  8
레이어 1
370
     5
100
AcDbSpline
210
0.0
220
0.0
230
1.0
 70
     8
 71
     3
 72
     8
 73
     4
 74
     0
 42
0.000000001
 43
0.0000000001
 40
0.0
 40
0.0
 40
0.0
 40
0.0
 40
1.0
 40
1.0
 40
1.0
 40
1.0
 10
33.06859783112079
 20
124.6024028936543
 30
0.0
 10
34.8707980466013
 20
125.6371032288258
 30
0.0
 10
35.40869703352071
 20
127.6445017206675
 30
0.0
 10
35.40869703352071
 20
127.6445017206675
 30
0.0
  0
SPLINE
  5
195
330
70
100
AcDbEntity
  8
레이어 1
370
     5
100
AcDbSpline
210
0.0
220
0.0
230
1.0
 70
     8
 71
     3
 72
     8
 73
     4
 74
     0
 42
0.000000001
 43
0.0000000001
 40
0.0
 40
0.0
 40
0.0
 40
0.0
 40
1.0
 40
1.0
 40
1.0
 40
1.0
 10
156.3864962843479
 20
129.0799016486604
 30
0.0
 10
157.7134920589245
 20
128.0954027266662
 30
0.0
 10
159.365789939131
 20
128.0954027266662
 30
0.0
 10
159.365789939131
 20
128.0954027266662
 30
0.0
  0
SPLINE
  5
196
330
70
100
AcDbEntity
  8
레이어 1
370
     5
100
AcDbSpline
210
0.0
220
0.0
230
1.0
 70
     8
 71
     3
 72
     8
 73
     4
 74
     0
 42
0.000000001
 43
0.0000000001
 40
0.0
 40
0.0
 40
0.0
 40
0.0
 40
1.0
 40
1.0
 40
1.0
 40
1.0
 10
38.22769711826583
 20
138.1650022625836
 30
0.0
 10
38.87829751482835
 20
140.5933020291494
 30
0.0
 10
41.21549754747031
 20
141.5193016182088
 30
0.0
 10
41.21549754747031
 20
141.5193016182088
 30
0.0
  0
SPLINE
  5
197
330
70
100
AcDbEntity
  8
레이어 1
370
     5
100
AcDbSpline
210
0.0
220
0.0
230
1.0
 70
    24
 71
     3
 72
     8
 73
     4
 74
     0
 42
0.000000001
 43
0.0000000001
 40
0.0
 40
0.0
 40
0.0
 40
0.0
 40
1.0
 40
1.0
 40
1.0
 40
1.0
 10
58.13319831207945
 20
148.2223013078636
 30
0.0
 10
58.13319831207945
 20
148.2223013078636
 30
0.0
 10
65.53779994418025
 20
151.1560011074597
 30
0.0
 10
65.53779994418025
 20
151.1560011074597
 30
0.0
  0
SPLINE
  5
198
330
70
100
AcDbEntity
  8
레이어 1
370
     5
100
AcDbSpline
210
0.0
220
0.0
230
1.0
 70
    24
 71
     3
 72
     8
 73
     4
 74
     0
 42
0.000000001
 43
0.0000000001
 40
0.0
 40
0.0
 40
0.0
 40
0.0
 40
1.0
 40
1.0
 40
1.0
 40
1.0
 10
292.2282854784076
 20
151.1560011074597
 30
0.0
 10
292.2282854784076
 20
151.1560011074597
 30
0.0
 10
299.6329786632377
 20
148.2223013078636
 30
0.0
 10
299.6329786632377
 20
148.2223013078636
 30
0.0
  0
SPLINE
  5
199
330
70
100
AcDbEntity
  8
레이어 1
370
     5
100
AcDbSpline
210
0.0
220
0.0
230
1.0
 70
     8
 71
     3
 72
     8
 73
     4
 74
     0
 42
0.000000001
 43
0.0000000001
 40
0.0
 40
0.0
 40
0.0
 40
0.0
 40
1.0
 40
1.0
 40
1.0
 40
1.0
 10
107.3846908885667
 20
147.4008015297901
 30
0.0
 10
109.0552916852187
 20
148.2043011829964
 30
0.0
 10
110.8458952216674
 20
147.7245014626589
 30
0.0
 10
110.8458952216674
 20
147.7245014626589
 30
0.0
  0
SPLINE
  5
19A
330
70
100
AcDbEntity
  8
레이어 1
370
     5
100
AcDbSpline
210
0.0
220
0.0
230
1.0
 70
     8
 71
     3
 72
     8
 73
     4
 74
     0
 42
0.000000001
 43
0.0000000001
 40
0.0
 40
0.0
 40
0.0
 40
0.0
 40
1.0
 40
1.0
 40
1.0
 40
1.0
 10
29.18729807804819
 20
122.3740018355733
 30
0.0
 10
31.1278974098485
 20
123.4882023646138
 30
0.0
 10
33.06859783112079
 20
124.6024028936543
 30
0.0
 10
33.06859783112079
 20
124.6024028936543
 30
0.0
  0
SPLINE
  5
19B
330
70
100
AcDbEntity
  8
레이어 1
370
     5
100
AcDbSpline
210
0.0
220
0.0
230
1.0
 70
     8
 71
     3
 72
     8
 73
     4
 74
     0
 42
0.000000001
 43
0.0000000001
 40
0.0
 40
0.0
 40
0.0
 40
0.0
 40
1.0
 40
1.0
 40
1.0
 40
1.0
 10
198.4003946655801
 20
128.0954027266662
 30
0.0
 10
199.4734079105725
 20
128.0953798384839
 30
0.0
 10
200.5179635155725
 20
128.4405488863497
 30
0.0
 10
201.3796883203634
 20
129.0799016486604
 30
0.0
  0
SPLINE
  5
19C
330
70
100
AcDbEntity
  8
레이어 1
370
     5
100
AcDbSpline
210
0.0
220
0.0
230
1.0
 70
    24
 71
     3
 72
     8
 73
     4
 74
     0
 42
0.000000001
 43
0.0000000001
 40
0.0
 40
0.0
 40
0.0
 40
0.0
 40
1.0
 40
1.0
 40
1.0
 40
1.0
 10
178.8830923023555
 20
0.0071149862878123
 30
0.0
 10
178.8830923023555
 20
0.0071149862878123
 30
0.0
 10
156.1069858021054
 20
0.0071149862878123
 30
0.0
 10
156.1069858021054
 20
0.0071149862878123
 30
0.0
  0
SPLINE
  5
19D
330
70
100
AcDbEntity
  8
레이어 1
370
     5
100
AcDbSpline
210
0.0
220
0.0
230
1.0
 70
     8
 71
     3
 72
     8
 73
     4
 74
     0
 42
0.000000001
 43
0.0000000001
 40
0.0
 40
0.0
 40
0.0
 40
0.0
 40
1.0
 40
1.0
 40
1.0
 40
1.0
 10
96.99989533317896
 20
143.7473011794253
 30
0.0
 10
98.7904912402336
 20
143.2675019359246
 30
0.0
 10
100.4610920368856
 20
144.071001589131
 30
0.0
 10
100.4610920368856
 20
144.071001589131
 30
0.0
  0
SPLINE
  5
19E
330
70
100
AcDbEntity
  8
레이어 1
370
     5
100
AcDbSpline
210
0.0
220
0.0
230
1.0
 70
    24
 71
     3
 72
     8
 73
     4
 74
     0
 42
0.000000001
 43
0.0000000001
 40
0.0
 40
0.0
 40
0.0
 40
0.0
 40
1.0
 40
1.0
 40
1.0
 40
1.0
 10
334.3404962320109
 20
34.8054070860611
 30
0.0
 10
334.3404962320109
 20
34.8054070860611
 30
0.0
 10
288.9469746287876
 20
21.03601394372929
 30
0.0
 10
288.9469746287876
 20
21.03601394372929
 30
0.0
  0
SPLINE
  5
19F
330
70
100
AcDbEntity
  8
레이어 1
370
     5
100
AcDbSpline
210
0.0
220
0.0
230
1.0
 70
     8
 71
     3
 72
     8
 73
     4
 74
     0
 42
0.000000001
 43
0.0000000001
 40
0.0
 40
0.0
 40
0.0
 40
0.0
 40
1.0
 40
1.0
 40
1.0
 40
1.0
 10
330.7063716816368
 20
119.9571032448159
 30
0.0
 10
330.2830928969767
 20
120.9752840344126
 30
0.0
 10
329.5351376170029
 20
121.8249925434962
 30
0.0
 10
328.5788693605265
 20
122.3740018355733
 30
0.0
  0
SPLINE
  5
1A0
330
70
100
AcDbEntity
  8
레이어 1
370
     5
100
AcDbSpline
210
0.0
220
0.0
230
1.0
 70
     8
 71
     3
 72
     8
 73
     4
 74
     0
 42
0.000000001
 43
0.0000000001
 40
0.0
 40
0.0
 40
0.0
 40
0.0
 40
1.0
 40
1.0
 40
1.0
 40
1.0
 10
292.2283770311369
 20
151.1561011240478
 30
0.0
 10
291.2296893434654
 20
151.5517732143785
 30
0.0
 10
290.1300800306409
 20
151.615274732733
 30
0.0
 10
289.0924824330601
 20
151.3372010948776
 30
0.0
  0
SPLINE
  5
1A1
330
70
100
AcDbEntity
  8
레이어 1
370
     5
100
AcDbSpline
210
0.0
220
0.0
230
1.0
 70
     8
 71
     3
 72
     8
 73
     4
 74
     0
 42
0.000000001
 43
0.0000000001
 40
0.0
 40
0.0
 40
0.0
 40
0.0
 40
1.0
 40
1.0
 40
1.0
 40
1.0
 10
215.8907806395071
 20
139.410102213544
 30
0.0
 10
215.2828552588421
 20
139.2472070201179
 30
0.0
 10
214.7111389825751
 20
138.9710029265436
 30
0.0
 10
214.2056916234594
 20
138.5960019940728
 30
0.0
  0
SPLINE
  5
1A2
330
70
100
AcDbEntity
  8
레이어 1
370
     5
100
AcDbSpline
210
0.0
220
0.0
230
1.0
 70
     8
 71
     3
 72
     8
 73
     4
 74
     0
 42
0.000000001
 43
0.0000000001
 40
0.0
 40
0.0
 40
0.0
 40
0.0
 40
1.0
 40
1.0
 40
1.0
 40
1.0
 10
97.34309599736704
 20
25.71570880851853
 30
0.0
 10
85.5497922208397
 20
23.26510927667331
 30
0.0
 10
73.75639689158321
 20
20.81460892695139
 30
0.0
 10
73.75639689158321
 20
20.81460892695139
 30
0.0
  0
SPLINE
  5
1A3
330
70
100
AcDbEntity
  8
레이어 1
370
     5
100
AcDbSpline
210
0.0
220
0.0
230
1.0
 70
     8
 71
     3
 72
     8
 73
     4
 74
     0
 42
0.000000001
 43
0.0000000001
 40
0.0
 40
0.0
 40
0.0
 40
0.0
 40
1.0
 40
1.0
 40
1.0
 40
1.0
 10
322.3574952005847
 20
127.6445017206675
 30
0.0
 10
322.7017639799467
 20
126.3595420002323
 30
0.0
 10
323.5439270182656
 20
125.264754464479
 30
0.0
 10
324.6975829588933
 20
124.6024028936543
 30
0.0
  0
SPLINE
  5
1A4
330
70
100
AcDbEntity
  8
레이어 1
370
     5
100
AcDbSpline
210
0.0
220
0.0
230
1.0
 70
    24
 71
     3
 72
     8
 73
     4
 74
     0
 42
0.000000001
 43
0.0000000001
 40
0.0
 40
0.0
 40
0.0
 40
0.0
 40
1.0
 40
1.0
 40
1.0
 40
1.0
 10
324.6975829588933
 20
124.6024028936543
 30
0.0
 10
324.6975829588933
 20
124.6024028936543
 30
0.0
 10
328.5788693605265
 20
122.3740018355733
 30
0.0
 10
328.5788693605265
 20
122.3740018355733
 30
0.0
  0
SPLINE
  5
1A5
330
70
100
AcDbEntity
  8
레이어 1
370
     5
100
AcDbSpline
210
0.0
220
0.0
230
1.0
 70
     8
 71
     3
 72
     8
 73
     4
 74
     0
 42
0.000000001
 43
0.0000000001
 40
0.0
 40
0.0
 40
0.0
 40
0.0
 40
1.0
 40
1.0
 40
1.0
 40
1.0
 10
35.40869703352071
 20
127.6445017206675
 30
0.0
 10
36.81819707589327
 20
132.9047019237268
 30
0.0
 10
38.22769711826583
 20
138.1650022625836
 30
0.0
 10
38.22769711826583
 20
138.1650022625836
 30
0.0
  0
SPLINE
  5
1A6
330
70
100
AcDbEntity
  8
레이어 1
370
     5
100
AcDbSpline
210
0.0
220
0.0
230
1.0
 70
     8
 71
     3
 72
     8
 73
     4
 74
     0
 42
0.000000001
 43
0.0000000001
 40
0.0
 40
0.0
 40
0.0
 40
0.0
 40
1.0
 40
1.0
 40
1.0
 40
1.0
 10
156.1069858021054
 20
0.0071149862878123
 30
0.0
 10
153.7538975562505
 20
0.0071149862878123
 30
0.0
 10
151.6477880561962
 20
1.056416074417824
 30
0.0
 10
151.6477880561962
 20
1.056416074417824
 30
0.0
  0
SPLINE
  5
1A7
330
70
100
AcDbEntity
  8
레이어 1
370
     5
100
AcDbSpline
210
0.0
220
0.0
230
1.0
 70
     8
 71
     3
 72
     8
 73
     4
 74
     0
 42
0.000000001
 43
0.0000000001
 40
0.0
 40
0.0
 40
0.0
 40
0.0
 40
1.0
 40
1.0
 40
1.0
 40
1.0
 10
334.3404962320109
 20
34.8054070860611
 30
0.0
 10
335.0294610368046
 20
35.01436856106213
 30
0.0
 10
335.6652031883576
 20
35.36966944429257
 30
0.0
 10
336.204174105148
 20
35.84701011554435
 30
0.0
  0
SPLINE
  5
1A8
330
70
100
AcDbEntity
  8
레이어 1
370
     5
100
AcDbSpline
210
0.0
220
0.0
230
1.0
 70
     8
 71
     3
 72
     8
 73
     4
 74
     0
 42
0.000000001
 43
0.0000000001
 40
0.0
 40
0.0
 40
0.0
 40
0.0
 40
1.0
 40
1.0
 40
1.0
 40
1.0
 10
68.67369454225711
 20
151.3372010948776
 30
0.0
 10
82.83679493771805
 20
147.5423015179746
 30
0.0
 10
96.99989533317896
 20
143.7473011794253
 30
0.0
 10
96.99989533317896
 20
143.7473011794253
 30
0.0
  0
SPLINE
  5
1A9
330
70
100
AcDbEntity
  8
레이어 1
370
     5
100
AcDbSpline
210
0.0
220
0.0
230
1.0
 70
     8
 71
     3
 72
     8
 73
     4
 74
     0
 42
0.000000001
 43
0.0000000001
 40
0.0
 40
0.0
 40
0.0
 40
0.0
 40
1.0
 40
1.0
 40
1.0
 40
1.0
 10
143.5604929812518
 20
138.5960019940728
 30
0.0
 10
149.9734870034057
 20
133.8380018892655
 30
0.0
 10
156.3864962843479
 20
129.0799016486604
 30
0.0
 10
156.3864962843479
 20
129.0799016486604
 30
0.0
  0
ENDSEC
  0
SECTION
  2
OBJECTS
  0
DICTIONARY
  5
C
330
0
100
AcDbDictionary
281
     1
  3
ACAD_BACKGROUND
350
11F
  3
ACAD_CIP_PREVIOUS_PRODUCT_INFO
350
11E
  3
ACAD_COLOR
350
63
  3
ACAD_DETAILVIEWSTYLE
350
6A
  3
ACAD_GROUP
350
D
  3
ACAD_LAST_SAVED_VERSION_INFO
350
1AC
  3
ACAD_LAYOUT
350
62
  3
ACAD_MATERIAL
350
10
  3
ACAD_MLEADERSTYLE
350
66
  3
ACAD_MLINESTYLE
350
5F
  3
ACAD_PLOTSETTINGS
350
61
  3
ACAD_PLOTSTYLENAME
350
E
  3
ACAD_SCALELIST
350
42
  3
ACAD_SECTIONVIEWSTYLE
350
68
  3
ACAD_TABLESTYLE
350
64
  3
ACAD_VISUALSTYLE
350
29
  3
ACDB_RECOMPOSE_DATA
350
1B8
  3
AcDbVariableDictionary
350
10D
  3
AcDsDecomposeData
350
1BE
  0
DICTIONARY
  5
1B0
330
2
100
AcDbDictionary
280
     1
281
     1
  3
ACAD_LAYERSTATES
360
1B1
  0
DICTIONARY
  5
1AA
330
70
100
AcDbDictionary
280
     1
281
     1
  3
ACAD_SORTENTS
360
1AB
  0
DICTIONARY
  5
11F
102
{ACAD_REACTORS
330
C
102
}
330
C
100
AcDbDictionary
281
     1
  0
XRECORD
  5
11E
102
{ACAD_REACTORS
330
C
102
}
330
C
100
AcDbXrecord
280
     1
300
ACDMAC
300
2025
300

  0
DICTIONARY
  5
63
102
{ACAD_REACTORS
330
C
102
}
330
C
100
AcDbDictionary
281
     1
  0
DICTIONARY
  5
6A
102
{ACAD_REACTORS
330
C
102
}
330
C
100
AcDbDictionary
281
     1
  3
Imperial24
350
6B
  0
DICTIONARY
  5
D
102
{ACAD_REACTORS
330
C
102
}
330
C
100
AcDbDictionary
281
     1
  0
XRECORD
  5
1AC
102
{ACAD_REACTORS
330
C
102
}
330
C
100
AcDbXrecord
280
     1
300
{EDBE66E6-381B-8D4B-85E7-BA23C457DA37}
301
{0F4FA204-1A8D-354D-97ED-1A3949CF1BCE}
302
{EDBE66E6-381B-8D4B-85E7-BA23C457DA37}
303
/Users/junkibeom/Downloads/my-fi-plates/bot_plate-Alu-AnoBlack.dxf
  0
DICTIONARY
  5
62
102
{ACAD_REACTORS
330
C
102
}
330
C
100
AcDbDictionary
281
     1
  3
Layout1
350
6F
  3
Layout2
350
77
  3
Model
350
73
  0
DICTIONARY
  5
10
102
{ACAD_REACTORS
330
C
102
}
330
C
100
AcDbDictionary
281
     1
  3
ByBlock
350
19
  3
ByLayer
350
11
  3
Global
350
21
  0
DICTIONARY
  5
66
102
{ACAD_REACTORS
330
C
102
}
330
C
100
AcDbDictionary
281
     1
  3
Standard
350
67
  0
DICTIONARY
  5
5F
102
{ACAD_REACTORS
330
C
102
}
330
C
100
AcDbDictionary
281
     1
  3
Standard
350
60
  0
DICTIONARY
  5
61
102
{ACAD_REACTORS
330
C
102
}
330
C
100
AcDbDictionary
281
     1
  0
ACDBDICTIONARYWDFLT
  5
E
102
{ACAD_REACTORS
330
C
102
}
330
C
100
AcDbDictionary
281
     1
  3
Normal
350
F
100
AcDbDictionaryWithDefault
340
F
  0
DICTIONARY
  5
42
102
{ACAD_REACTORS
330
C
102
}
330
C
100
AcDbDictionary
281
     1
  3
A0
350
43
  3
A1
350
44
  3
A2
350
45
  3
A3
350
46
  3
A4
350
47
  3
A5
350
48
  3
A6
350
49
  3
A7
350
4A
  3
A8
350
4B
  3
A9
350
4C
  3
B0
350
4D
  3
B1
350
4E
  3
B2
350
4F
  3
B3
350
50
  3
B4
350
51
  3
B5
350
52
  3
B6
350
53
  0
DICTIONARY
  5
68
102
{ACAD_REACTORS
330
C
102
}
330
C
100
AcDbDictionary
281
     1
  3
Imperial24
350
69
  0
DICTIONARY
  5
64
102
{ACAD_REACTORS
330
C
102
}
330
C
100
AcDbDictionary
281
     1
  3
Standard
350
65
  0
DICTIONARY
  5
29
102
{ACAD_REACTORS
330
C
102
}
330
C
100
AcDbDictionary
281
     1
  3
2dWireframe
350
2F
  3
Basic
350
2E
  3
Brighten
350
35
  3
ColorChange
350
39
  3
Conceptual
350
32
  3
Dim
350
34
  3
EdgeColorOff
350
41
  3
Facepattern
350
38
  3
Flat
350
2A
  3
FlatWithEdges
350
2B
  3
Gouraud
350
2C
  3
GouraudWithEdges
350
2D
  3
Hidden
350
31
  3
JitterOff
350
3F
  3
Linepattern
350
37
  3
OverhangOff
350
40
  3
Realistic
350
33
  3
Shaded
350
3E
  3
Shaded with edges
350
3D
  3
Shades of Gray
350
3A
  3
Sketchy
350
3B
  3
Thicken
350
36
  3
Wireframe
350
30
  3
X-Ray
350
3C
  0
XRECORD
  5
1B8
102
{ACAD_REACTORS
330
C
102
}
330
C
100
AcDbXrecord
280
     1
 90
        1
330
65
  0
DICTIONARY
  5
10D
102
{ACAD_REACTORS
330
C
102
}
330
C
100
AcDbDictionary
281
     1
  3
CANNOSCALE
350
112
  3
CMLEADERSTYLE
350
10F
  3
CTABLESTYLE
350
10E
  3
CVIEWDETAILSTYLE
350
110
  3
CVIEWSECTIONSTYLE
350
111
  0
DICTIONARY
  5
1BE
102
{ACAD_REACTORS
330
C
102
}
330
C
100
AcDbDictionary
281
     1
  3
AcDsRecords
350
1C0
  3
AcDsSchemas
350
1BF
1001
ACAD
1070
     2
  0
DICTIONARY
  5
1B1
102
{ACAD_REACTORS
330
1B0
102
}
330
1B0
100
AcDbDictionary
281
     1
  0
SORTENTSTABLE
  5
1AB
102
{ACAD_REACTORS
330
1AA
102
}
330
1AA
100
AcDbSortentsTable
330
70
  0
ACDBDETAILVIEWSTYLE
  5
6B
102
{ACAD_XDICTIONARY
360
1C3
102
}
102
{ACAD_REACTORS
330
6A
102
}
330
6A
100
AcDbModelDocViewStyle
 70
     0
  3
Imperial24
290
     0
100
AcDbDetailViewStyle
 70
     0
 71
     0
 90
        3
 71
     1
340
55
 62
   256
 40
0.24
340
0
 62
   256
 40
0.24
300

 40
0.36
280
     3
 71
     2
340
5D
 90
       25
 62
   256
 71
     3
340
55
 62
   256
 40
0.24
 90
        1
 40
0.75
 90
        1
300
%<\AcVar ViewType \f "%tc1">% %<\AcVar ViewDetailId>%\PSCALE %<\AcVar ViewScale \f "%sn">%
 71
     4
340
5D
 90
       25
 62
   256
340
5D
 90
       25
 62
   256
280
     0
  0
LAYOUT
  5
6F
102
{ACAD_REACTORS
330
62
102
}
330
62
100
AcDbPlotSettings
  1

  2

  4

  6

 40
0.0
 41
0.0
 42
0.0
 43
0.0
 44
0.0
 45
0.0
 46
0.0
 47
0.0
 48
0.0
 49
0.0
140
0.0
141
0.0
142
1.0
143
1.0
 70
   688
 72
     0
 73
     0
 74
     5
  7

 75
    16
147
1.0
 76
     0
 77
     2
 78
   300
148
0.0
149
0.0
100
AcDbLayout
  1
Layout1
 70
     1
 71
     1
 10
0.0
 20
0.0
 11
12.0
 21
9.0
 12
0.0
 22
0.0
 32
0.0
 14
1.000000000000000E+20
 24
1.000000000000000E+20
 34
1.000000000000000E+20
 15
-1.000000000000000E+20
 25
-1.000000000000000E+20
 35
-1.000000000000000E+20
146
0.0
 13
0.0
 23
0.0
 33
0.0
 16
1.0
 26
0.0
 36
0.0
 17
0.0
 27
1.0
 37
0.0
 76
     0
330
6C
  0
LAYOUT
  5
77
102
{ACAD_REACTORS
330
62
102
}
330
62
100
AcDbPlotSettings
  1

  2

  4

  6

 40
0.0
 41
0.0
 42
0.0
 43
0.0
 44
0.0
 45
0.0
 46
0.0
 47
0.0
 48
0.0
 49
0.0
140
0.0
141
0.0
142
1.0
143
1.0
 70
   688
 72
     0
 73
     0
 74
     5
  7

 75
    16
147
1.0
 76
     0
 77
     2
 78
   300
148
0.0
149
0.0
100
AcDbLayout
  1
Layout2
 70
     1
 71
     2
 10
0.0
 20
0.0
 11
12.0
 21
9.0
 12
0.0
 22
0.0
 32
0.0
 14
0.0
 24
0.0
 34
0.0
 15
0.0
 25
0.0
 35
0.0
146
0.0
 13
0.0
 23
0.0
 33
0.0
 16
1.0
 26
0.0
 36
0.0
 17
0.0
 27
1.0
 37
0.0
 76
     0
330
74
  0
LAYOUT
  5
73
102
{ACAD_REACTORS
330
62
102
}
330
62
100
AcDbPlotSettings
  1

  2

  4

  6

 40
0.0
 41
0.0
 42
0.0
 43
0.0
 44
0.0
 45
0.0
 46
0.0
 47
0.0
 48
0.0
 49
0.0
140
0.0
141
0.0
142
1.0
143
1.0
 70
  1712
 72
     0
 73
     0
 74
     0
  7

 75
     0
147
1.0
 76
     0
 77
     2
 78
   300
148
0.0
149
0.0
100
AcDbLayout
  1
Model
 70
     1
 71
     0
 10
0.0
 20
0.0
 11
12.0
 21
9.0
 12
0.0
 22
0.0
 32
0.0
 14
0.0
 24
0.0
 34
0.0
 15
0.0
 25
0.0
 35
0.0
146
0.0
 13
0.0
 23
0.0
 33
0.0
 16
1.0
 26
0.0
 36
0.0
 17
0.0
 27
1.0
 37
0.0
 76
     0
330
70
331
57
  0
MATERIAL
  5
19
102
{ACAD_XDICTIONARY
360
1A
102
}
102
{ACAD_REACTORS
330
10
102
}
330
10
100
AcDbMaterial
  1
ByBlock
 72
     0
 43
0.0208333333333333
 43
0.0
 43
0.0
 43
0.0
 43
0.0
 43
0.0208333333333333
 43
0.0
 43
0.0
 43
0.0
 43
0.0
 43
1.0
 43
0.0
 43
0.0
 43
0.0
 43
0.0
 43
1.0
 77
     0
 47
0.0208333333333333
 47
0.0
 47
0.0
 47
0.0
 47
0.0
 47
0.0208333333333333
 47
0.0
 47
0.0
 47
0.0
 47
0.0
 47
1.0
 47
0.0
 47
0.0
 47
0.0
 47
0.0
 47
1.0
171
     0
 49
0.0208333333333333
 49
0.0
 49
0.0
 49
0.0
 49
0.0
 49
0.0208333333333333
 49
0.0
 49
0.0
 49
0.0
 49
0.0
 49
1.0
 49
0.0
 49
0.0
 49
0.0
 49
0.0
 49
1.0
175
     0
142
0.0208333333333333
142
0.0
142
0.0
142
0.0
142
0.0
142
0.0208333333333333
142
0.0
142
0.0
142
0.0
142
0.0
142
1.0
142
0.0
142
0.0
142
0.0
142
0.0
142
1.0
179
     0
144
0.0208333333333333
144
0.0
144
0.0
144
0.0
144
0.0
144
0.0208333333333333
144
0.0
144
0.0
144
0.0
144
0.0
144
1.0
144
0.0
144
0.0
144
0.0
144
0.0
144
1.0
147
0.0208333333333333
147
0.0
147
0.0
147
0.0
147
0.0
147
0.0208333333333333
147
0.0
147
0.0
147
0.0
147
0.0
147
1.0
147
0.0
147
0.0
147
0.0
147
0.0
147
1.0
  0
MATERIAL
  5
11
102
{ACAD_XDICTIONARY
360
12
102
}
102
{ACAD_REACTORS
330
10
102
}
330
10
100
AcDbMaterial
  1
ByLayer
 72
     0
 43
0.0208333333333333
 43
0.0
 43
0.0
 43
0.0
 43
0.0
 43
0.0208333333333333
 43
0.0
 43
0.0
 43
0.0
 43
0.0
 43
1.0
 43
0.0
 43
0.0
 43
0.0
 43
0.0
 43
1.0
 77
     0
 47
0.0208333333333333
 47
0.0
 47
0.0
 47
0.0
 47
0.0
 47
0.0208333333333333
 47
0.0
 47
0.0
 47
0.0
 47
0.0
 47
1.0
 47
0.0
 47
0.0
 47
0.0
 47
0.0
 47
1.0
171
     0
 49
0.0208333333333333
 49
0.0
 49
0.0
 49
0.0
 49
0.0
 49
0.0208333333333333
 49
0.0
 49
0.0
 49
0.0
 49
0.0
 49
1.0
 49
0.0
 49
0.0
 49
0.0
 49
0.0
 49
1.0
175
     0
142
0.0208333333333333
142
0.0
142
0.0
142
0.0
142
0.0
142
0.0208333333333333
142
0.0
142
0.0
142
0.0
142
0.0
142
1.0
142
0.0
142
0.0
142
0.0
142
0.0
142
1.0
179
     0
144
0.0208333333333333
144
0.0
144
0.0
144
0.0
144
0.0
144
0.0208333333333333
144
0.0
144
0.0
144
0.0
144
0.0
144
1.0
144
0.0
144
0.0
144
0.0
144
0.0
144
1.0
147
0.0208333333333333
147
0.0
147
0.0
147
0.0
147
0.0
147
0.0208333333333333
147
0.0
147
0.0
147
0.0
147
0.0
147
1.0
147
0.0
147
0.0
147
0.0
147
0.0
147
1.0
  0
MATERIAL
  5
21
102
{ACAD_XDICTIONARY
360
22
102
}
102
{ACAD_REACTORS
330
10
102
}
330
10
100
AcDbMaterial
  1
Global
 72
     0
 43
0.0208333333333333
 43
0.0
 43
0.0
 43
0.0
 43
0.0
 43
0.0208333333333333
 43
0.0
 43
0.0
 43
0.0
 43
0.0
 43
1.0
 43
0.0
 43
0.0
 43
0.0
 43
0.0
 43
1.0
 77
     0
 47
0.0208333333333333
 47
0.0
 47
0.0
 47
0.0
 47
0.0
 47
0.0208333333333333
 47
0.0
 47
0.0
 47
0.0
 47
0.0
 47
1.0
 47
0.0
 47
0.0
 47
0.0
 47
0.0
 47
1.0
171
     0
 49
0.0208333333333333
 49
0.0
 49
0.0
 49
0.0
 49
0.0
 49
0.0208333333333333
 49
0.0
 49
0.0
 49
0.0
 49
0.0
 49
1.0
 49
0.0
 49
0.0
 49
0.0
 49
0.0
 49
1.0
175
     0
142
0.0208333333333333
142
0.0
142
0.0
142
0.0
142
0.0
142
0.0208333333333333
142
0.0
142
0.0
142
0.0
142
0.0
142
1.0
142
0.0
142
0.0
142
0.0
142
0.0
142
1.0
179
     0
144
0.0208333333333333
144
0.0
144
0.0
144
0.0
144
0.0
144
0.0208333333333333
144
0.0
144
0.0
144
0.0
144
0.0
144
1.0
144
0.0
144
0.0
144
0.0
144
0.0
144
1.0
147
0.0208333333333333
147
0.0
147
0.0
147
0.0
147
0.0
147
0.0208333333333333
147
0.0
147
0.0
147
0.0
147
0.0
147
1.0
147
0.0
147
0.0
147
0.0
147
0.0
147
1.0
  0
MLEADERSTYLE
  5
67
102
{ACAD_REACTORS
330
66
102
}
330
66
100
AcDbMLeaderStyle
179
     2
170
     2
171
     1
172
     0
 90
        2
 40
0.0
 41
0.0
173
     1
 91
-1056964608
340
5B
 92
       -2
290
     1
 42
0.09
291
     1
 43
0.36
  3
Standard
 44
0.18
300

342
55
174
     1
178
     6
175
     1
176
     0
 93
-1056964608
 45
0.18
292
     0
297
     0
 46
0.18
 94
-1056964608
 47
1.0
 49
1.0
140
1.0
293
     1
141
0.0
294
     1
177
     0
142
1.0
295
     0
296
     0
143
0.125
271
     0
272
     9
273
     9
298
     1
  0
MLINESTYLE
  5
60
102
{ACAD_REACTORS
330
5F
102
}
330
5F
100
AcDbMlineStyle
  2
STANDARD
 70
     0
  3

 62
   256
 51
90.0
 52
90.0
 71
     2
 49
0.5
 62
   256
  6
BYLAYER
 49
-0.5
 62
   256
  6
BYLAYER
  0
ACDBPLACEHOLDER
  5
F
102
{ACAD_REACTORS
330
E
102
}
330
E
  0
SCALE
  5
43
102
{ACAD_REACTORS
330
42
102
}
330
42
100
AcDbScale
 70
     0
300
1:1
140
1.0
141
1.0
290
     1
  0
SCALE
  5
44
102
{ACAD_REACTORS
330
42
102
}
330
42
100
AcDbScale
 70
     0
300
1/128" = 1'-0"
140
0.0078125
141
12.0
290
     0
  0
SCALE
  5
45
102
{ACAD_REACTORS
330
42
102
}
330
42
100
AcDbScale
 70
     0
300
1/64" = 1'-0"
140
0.015625
141
12.0
290
     0
  0
SCALE
  5
46
102
{ACAD_REACTORS
330
42
102
}
330
42
100
AcDbScale
 70
     0
300
1/32" = 1'-0"
140
0.03125
141
12.0
290
     0
  0
SCALE
  5
47
102
{ACAD_REACTORS
330
42
102
}
330
42
100
AcDbScale
 70
     0
300
1/16" = 1'-0"
140
0.0625
141
12.0
290
     0
  0
SCALE
  5
48
102
{ACAD_REACTORS
330
42
102
}
330
42
100
AcDbScale
 70
     0
300
3/32" = 1'-0"
140
0.09375
141
12.0
290
     0
  0
SCALE
  5
49
102
{ACAD_REACTORS
330
42
102
}
330
42
100
AcDbScale
 70
     0
300
1/8" = 1'-0"
140
0.125
141
12.0
290
     0
  0
SCALE
  5
4A
102
{ACAD_REACTORS
330
42
102
}
330
42
100
AcDbScale
 70
     0
300
3/16" = 1'-0"
140
0.1875
141
12.0
290
     0
  0
SCALE
  5
4B
102
{ACAD_REACTORS
330
42
102
}
330
42
100
AcDbScale
 70
     0
300
1/4" = 1'-0"
140
0.25
141
12.0
290
     0
  0
SCALE
  5
4C
102
{ACAD_REACTORS
330
42
102
}
330
42
100
AcDbScale
 70
     0
300
3/8" = 1'-0"
140
0.375
141
12.0
290
     0
  0
SCALE
  5
4D
102
{ACAD_REACTORS
330
42
102
}
330
42
100
AcDbScale
 70
     0
300
1/2" = 1'-0"
140
0.5
141
12.0
290
     0
  0
SCALE
  5
4E
102
{ACAD_REACTORS
330
42
102
}
330
42
100
AcDbScale
 70
     0
300
3/4" = 1'-0"
140
0.75
141
12.0
290
     0
  0
SCALE
  5
4F
102
{ACAD_REACTORS
330
42
102
}
330
42
100
AcDbScale
 70
     0
300
1" = 1'-0"
140
1.0
141
12.0
290
     0
  0
SCALE
  5
50
102
{ACAD_REACTORS
330
42
102
}
330
42
100
AcDbScale
 70
     0
300
1-1/2" = 1'-0"
140
1.5
141
12.0
290
     0
  0
SCALE
  5
51
102
{ACAD_REACTORS
330
42
102
}
330
42
100
AcDbScale
 70
     0
300
3" = 1'-0"
140
3.0
141
12.0
290
     0
  0
SCALE
  5
52
102
{ACAD_REACTORS
330
42
102
}
330
42
100
AcDbScale
 70
     0
300
6" = 1'-0"
140
6.0
141
12.0
290
     0
  0
SCALE
  5
53
102
{ACAD_REACTORS
330
42
102
}
330
42
100
AcDbScale
 70
     0
300
1'-0" = 1'-0"
140
12.0
141
12.0
290
     0
  0
ACDBSECTIONVIEWSTYLE
  5
69
102
{ACAD_XDICTIONARY
360
1C1
102
}
102
{ACAD_REACTORS
330
68
102
}
330
68
100
AcDbModelDocViewStyle
 70
     0
  3
Imperial24
290
     0
100
AcDbSectionViewStyle
 70
     0
 71
     0
 90
       78
 71
     1
340
55
 62
   256
 40
0.24
340
0
340
0
 62
   256
 40
0.24
300
I, O, Q, S, X, Z
 40
0.48
 90
        3
 40
0.18
 90
        1
 71
     2
340
5D
 90
       25
 62
   256
340
5D
 90
       50
 62
   256
 40
0.24
 40
0.0
 40
0.24
 71
     3
340
55
 62
   256
 40
0.24
 90
        1
 40
0.75
 90
        1
300
%<\AcVar ViewType \f "%tc1">% %<\AcVar ViewSectionStartId>%-%<\AcVar ViewSectionEndId>%\PSCALE %<\AcVar ViewScale \f "%sn">%
 71
     4
 62
   256
 62
   257
300
ANSI31
 40
1.0
 90
        0
290
     0
290
     0
 90
        6
 40
0.0
 40
1.570796326794896
 40
0.2617993877991494
 40
1.308996938995747
 40
-0.2617993877991494
 40
1.832595714594045
  0
TABLESTYLE
  5
65
102
{ACAD_XDICTIONARY
360
113
102
}
102
{ACAD_REACTORS
330
64
102
}
330
64
100
AcDbTableStyle
280
     0
  3
Standard
 70
     0
 71
     0
 40
0.06
 41
0.06
280
     0
281
     0
  7
Standard
140
0.18
170
     2
 62
     0
 63
     7
283
     0
 90
      512
 91
        0
  1

274
    -2
284
     1
 64
     0
275
    -2
285
     1
 65
     0
276
    -2
286
     1
 66
     0
277
    -2
287
     1
 67
     0
278
    -2
288
     1
 68
     0
279
    -2
289
     1
 69
     0
  7
Standard
140
0.25
170
     5
 62
     0
 63
     7
283
     0
 90
      512
 91
        0
  1

274
    -2
284
     1
 64
     0
275
    -2
285
     1
 65
     0
276
    -2
286
     1
 66
     0
277
    -2
287
     1
 67
     0
278
    -2
288
     1
 68
     0
279
    -2
289
     1
 69
     0
  7
Standard
140
0.18
170
     5
 62
     0
 63
     7
283
     0
 90
      512
 91
        0
  1

274
    -2
284
     1
 64
     0
275
    -2
285
     1
 65
     0
276
    -2
286
     1
 66
     0
277
    -2
287
     1
 67
     0
278
    -2
288
     1
 68
     0
279
    -2
289
     1
 69
     0
  0
VISUALSTYLE
  5
2F
102
{ACAD_REACTORS
330
29
102
}
330
29
100
AcDbVisualStyle
  2
2dWireframe
 70
     4
177
     3
291
     0
 70
    58
 90
        0
176
     1
 90
        2
176
     1
 90
        0
176
     1
 90
        0
176
     1
 40
0.6
176
     1
 40
30.0
176
     1
 62
     7
420
 16777215
176
     1
 90
        1
176
     1
 90
        4
176
     1
 62
     7
176
     1
 62
   257
176
     1
 90
        1
176
     1
 90
        1
176
     1
 40
1.0
176
     1
 90
        0
176
     1
 62
   257
176
     1
 40
1.0
176
     1
 90
        1
176
     1
 90
        6
176
     1
 90
        2
176
     1
 62
     7
176
     1
 90
        5
176
     1
 90
        0
176
     1
 90
        0
176
     1
290
     0
176
     1
 90
        1
176
     1
 40
0.0
176
     1
 90
        0
176
     1
290
     1
176
     1
290
     1
176
     1
290
     0
176
     1
290
     0
176
     1
290
     0
176
     1
290
     0
176
     1
290
     0
176
     1
290
     0
176
     1
290
     0
176
     1
 90
       50
176
     1
 40
0.0
176
     1
 40
1.0
176
     1
 90
        0
176
     1
 62
    18
176
     1
 90
       50
176
     1
 90
        3
176
     1
 62
     5
420
      255
176
     1
290
     0
176
     1
 90
       50
176
     1
 90
       50
176
     1
 90
       50
176
     1
290
     0
176
     1
 90
       50
176
     1
 62
   256
176
     0
 40
1.0
176
     0
 90
        2
176
     1
  1
strokes_ogs.tif
176
     1
290
     0
176
     1
 40
1.0
176
     1
 40
1.0
176
     1
1001
ACAD
1000
AcDbSavedByObjectVersion
1070
     0
  0
VISUALSTYLE
  5
2E
102
{ACAD_REACTORS
330
29
102
}
330
29
100
AcDbVisualStyle
  2
Basic
 70
     7
177
     3
291
     1
 70
    58
 90
        1
176
     1
 90
        0
176
     1
 90
        1
176
     1
 90
        0
176
     1
 40
0.6
176
     1
 40
30.0
176
     1
 62
     7
420
 16777215
176
     1
 90
        0
176
     1
 90
        4
176
     1
 62
     7
176
     1
 62
   257
176
     1
 90
        1
176
     1
 90
        1
176
     1
 40
1.0
176
     1
 90
        8
176
     1
 62
     7
176
     1
 40
1.0
176
     1
 90
        1
176
     1
 90
        6
176
     1
 90
        2
176
     1
 62
     7
176
     1
 90
        5
176
     1
 90
        0
176
     1
 90
        0
176
     1
290
     0
176
     1
 90
        1
176
     1
 40
0.0
176
     1
 90
        0
176
     1
290
     0
176
     1
290
     1
176
     1
290
     1
176
     1
290
     0
176
     1
290
     0
176
     1
290
     0
176
     1
290
     0
176
     1
290
     0
176
     1
290
     0
176
     1
 90
       50
176
     1
 40
0.0
176
     1
 40
1.0
176
     1
 90
        0
176
     1
 62
    18
176
     1
 90
       50
176
     1
 90
        3
176
     1
 62
     5
420
      255
176
     1
290
     0
176
     1
 90
       50
176
     1
 90
       50
176
     1
 90
       50
176
     1
290
     0
176
     1
 90
       50
176
     1
 62
   256
176
     0
 40
1.0
176
     0
 90
        2
176
     1
  1
strokes_ogs.tif
176
     1
290
     0
176
     1
 40
1.0
176
     1
 40
1.0
176
     1
1001
ACAD
1000
AcDbSavedByObjectVersion
1070
     0
  0
VISUALSTYLE
  5
35
102
{ACAD_REACTORS
330
29
102
}
330
29
100
AcDbVisualStyle
  2
Brighten
 70
    12
177
     3
291
     1
 70
    58
 90
        2
176
     1
 90
        2
176
     1
 90
        0
176
     1
 90
        0
176
     1
 40
0.6
176
     1
 40
30.0
176
     1
 62
     7
420
 16777215
176
     1
 90
        1
176
     1
 90
        4
176
     1
 62
     7
176
     1
 62
   257
176
     1
 90
        1
176
     1
 90
        1
176
     1
 40
1.0
176
     1
 90
        8
176
     1
 62
     7
176
     1
 40
1.0
176
     1
 90
        1
176
     1
 90
        6
176
     1
 90
        2
176
     1
 62
     7
176
     1
 90
        5
176
     1
 90
        0
176
     1
 90
        0
176
     1
290
     0
176
     1
 90
        1
176
     1
 40
50.0
176
     1
 90
        0
176
     1
290
     0
176
     1
290
     1
176
     1
290
     1
176
     1
290
     0
176
     1
290
     0
176
     1
290
     0
176
     1
290
     0
176
     1
290
     0
176
     1
290
     0
176
     1
 90
       50
176
     1
 40
0.0
176
     1
 40
1.0
176
     1
 90
        0
176
     1
 62
    18
176
     1
 90
       50
176
     1
 90
        3
176
     1
 62
     5
420
      255
176
     1
290
     0
176
     1
 90
       50
176
     1
 90
       50
176
     1
 90
       50
176
     1
290
     0
176
     1
 90
       50
176
     1
 62
   256
176
     0
 40
1.0
176
     0
 90
        2
176
     1
  1
strokes_ogs.tif
176
     1
290
     0
176
     1
 40
1.0
176
     1
 40
1.0
176
     1
1001
ACAD
1000
AcDbSavedByObjectVersion
1070
     0
  0
VISUALSTYLE
  5
39
102
{ACAD_REACTORS
330
29
102
}
330
29
100
AcDbVisualStyle
  2
ColorChange
 70
    16
177
     3
291
     1
 70
    58
 90
        2
176
     1
 90
        2
176
     1
 90
        3
176
     1
 90
        0
176
     1
 40
0.6
176
     1
 40
30.0
176
     1
 62
     8
420
  8421504
176
     1
 90
        1
176
     1
 90
        4
176
     1
 62
     7
176
     1
 62
   257
176
     1
 90
        1
176
     1
 90
        1
176
     1
 40
1.0
176
     1
 90
        8
176
     1
 62
     8
420
  8421504
176
     1
 40
1.0
176
     1
 90
        1
176
     1
 90
        6
176
     1
 90
        2
176
     1
 62
     7
176
     1
 90
        5
176
     1
 90
        0
176
     1
 90
        0
176
     1
290
     0
176
     1
 90
        1
176
     1
 40
0.0
176
     1
 90
        0
176
     1
290
     0
176
     1
290
     1
176
     1
290
     1
176
     1
290
     0
176
     1
290
     0
176
     1
290
     0
176
     1
290
     0
176
     1
290
     0
176
     1
290
     0
176
     1
 90
       50
176
     1
 40
0.0
176
     1
 40
1.0
176
     1
 90
        0
176
     1
 62
    18
176
     1
 90
       50
176
     1
 90
        3
176
     1
 62
     5
420
      255
176
     1
290
     0
176
     1
 90
       50
176
     1
 90
       50
176
     1
 90
       50
176
     1
290
     0
176
     1
 90
       50
176
     1
 62
   256
176
     0
 40
1.0
176
     0
 90
        2
176
     1
  1
strokes_ogs.tif
176
     1
290
     0
176
     1
 40
1.0
176
     1
 40
1.0
176
     1
1001
ACAD
1000
AcDbSavedByObjectVersion
1070
     0
  0
VISUALSTYLE
  5
32
102
{ACAD_REACTORS
330
29
102
}
330
29
100
AcDbVisualStyle
  2
Conceptual
 70
     9
177
     3
291
     0
 70
    58
 90
        3
176
     1
 90
        2
176
     1
 90
        0
176
     1
 90
        0
176
     1
 40
0.6
176
     1
 40
30.0
176
     1
 62
     7
420
 16777215
176
     1
 90
        2
176
     1
 90
        2
176
     1
 62
     7
176
     1
 62
   257
176
     1
 90
        1
176
     1
 90
        1
176
     1
 40
179.0
176
     1
 90
        8
176
     1
 62
     7
176
     1
 40
1.0
176
     1
 90
        1
176
     1
 90
        6
176
     1
 90
        2
176
     1
 62
     7
176
     1
 90
        3
176
     1
 90
        0
176
     1
 90
        0
176
     1
290
     0
176
     1
 90
        1
176
     1
 40
0.0
176
     1
 90
        0
176
     1
290
     0
176
     1
290
     1
176
     1
290
     1
176
     1
290
     0
176
     1
290
     0
176
     1
290
     0
176
     1
290
     0
176
     1
290
     0
176
     1
290
     0
176
     1
 90
       50
176
     1
 40
0.0
176
     1
 40
1.0
176
     1
 90
        0
176
     1
 62
    18
176
     1
 90
       50
176
     1
 90
        3
176
     1
 62
     5
420
      255
176
     1
290
     0
176
     1
 90
       50
176
     1
 90
       50
176
     1
 90
       50
176
     1
290
     0
176
     1
 90
       50
176
     1
 62
   256
176
     0
 40
1.0
176
     0
 90
        2
176
     1
  1
strokes_ogs.tif
176
     1
290
     0
176
     1
 40
1.0
176
     1
 40
1.0
176
     1
1001
ACAD
1000
AcDbSavedByObjectVersion
1070
     0
  0
VISUALSTYLE
  5
34
102
{ACAD_REACTORS
330
29
102
}
330
29
100
AcDbVisualStyle
  2
Dim
 70
    11
177
     3
291
     1
 70
    58
 90
        2
176
     1
 90
        2
176
     1
 90
        0
176
     1
 90
        0
176
     1
 40
0.6
176
     1
 40
30.0
176
     1
 62
     7
420
 16777215
176
     1
 90
        1
176
     1
 90
        4
176
     1
 62
     7
176
     1
 62
   257
176
     1
 90
        1
176
     1
 90
        1
176
     1
 40
1.0
176
     1
 90
        8
176
     1
 62
     7
176
     1
 40
1.0
176
     1
 90
        1
176
     1
 90
        6
176
     1
 90
        2
176
     1
 62
     7
176
     1
 90
        5
176
     1
 90
        0
176
     1
 90
        0
176
     1
290
     0
176
     1
 90
        1
176
     1
 40
-50.0
176
     1
 90
        0
176
     1
290
     0
176
     1
290
     1
176
     1
290
     1
176
     1
290
     0
176
     1
290
     0
176
     1
290
     0
176
     1
290
     0
176
     1
290
     0
176
     1
290
     0
176
     1
 90
       50
176
     1
 40
0.0
176
     1
 40
1.0
176
     1
 90
        0
176
     1
 62
    18
176
     1
 90
       50
176
     1
 90
        3
176
     1
 62
     5
420
      255
176
     1
290
     0
176
     1
 90
       50
176
     1
 90
       50
176
     1
 90
       50
176
     1
290
     0
176
     1
 90
       50
176
     1
 62
   256
176
     0
 40
1.0
176
     0
 90
        2
176
     1
  1
strokes_ogs.tif
176
     1
290
     0
176
     1
 40
1.0
176
     1
 40
1.0
176
     1
1001
ACAD
1000
AcDbSavedByObjectVersion
1070
     0
  0
VISUALSTYLE
  5
41
102
{ACAD_REACTORS
330
29
102
}
330
29
100
AcDbVisualStyle
  2
EdgeColorOff
 70
    22
177
     3
291
     1
 70
    58
 90
        2
176
     0
 90
        2
176
     0
 90
        0
176
     0
 90
        0
176
     0
 40
0.6
176
     0
 40
30.0
176
     0
 62
     7
420
 16777215
176
     0
 90
        1
176
     0
 90
        4
176
     0
 62
     7
176
     0
 62
   257
176
     0
 90
        1
176
     0
 90
        1
176
     0
 40
1.0
176
     0
 90
        8
176
     2
 62
     7
176
     0
 40
1.0
176
     0
 90
        1
176
     0
 90
        6
176
     0
 90
        2
176
     0
 62
     7
176
     0
 90
        5
176
     0
 90
        0
176
     0
 90
        0
176
     0
290
     0
176
     0
 90
        1
176
     0
 40
0.0
176
     0
 90
        0
176
     0
290
     0
176
     0
290
     1
176
     0
290
     1
176
     0
290
     0
176
     0
290
     0
176
     0
290
     0
176
     0
290
     0
176
     0
290
     0
176
     0
290
     0
176
     0
 90
       50
176
     0
 40
0.0
176
     0
 40
1.0
176
     0
 90
        0
176
     0
 62
    18
176
     0
 90
       50
176
     0
 90
        3
176
     0
 62
     5
420
      255
176
     0
290
     0
176
     0
 90
       50
176
     0
 90
       50
176
     0
 90
       50
176
     0
290
     0
176
     0
 90
       50
176
     0
 62
   256
176
     0
 40
1.0
176
     0
 90
        2
176
     0
  1
strokes_ogs.tif
176
     0
290
     0
176
     0
 40
1.0
176
     0
 40
1.0
176
     0
1001
ACAD
1000
AcDbSavedByObjectVersion
1070
     0
  0
VISUALSTYLE
  5
38
102
{ACAD_REACTORS
330
29
102
}
330
29
100
AcDbVisualStyle
  2
Facepattern
 70
    15
177
     3
291
     1
 70
    58
 90
        2
176
     1
 90
        2
176
     1
 90
        0
176
     1
 90
        0
176
     1
 40
0.6
176
     1
 40
30.0
176
     1
 62
     7
420
 16777215
176
     1
 90
        1
176
     1
 90
        4
176
     1
 62
     7
176
     1
 62
   257
176
     1
 90
        1
176
     1
 90
        1
176
     1
 40
1.0
176
     1
 90
        8
176
     1
 62
     7
176
     1
 40
1.0
176
     1
 90
        1
176
     1
 90
        6
176
     1
 90
        2
176
     1
 62
     7
176
     1
 90
        5
176
     1
 90
        0
176
     1
 90
        0
176
     1
290
     0
176
     1
 90
        1
176
     1
 40
0.0
176
     1
 90
        0
176
     1
290
     0
176
     1
290
     1
176
     1
290
     1
176
     1
290
     0
176
     1
290
     0
176
     1
290
     0
176
     1
290
     0
176
     1
290
     0
176
     1
290
     0
176
     1
 90
       50
176
     1
 40
0.0
176
     1
 40
1.0
176
     1
 90
        0
176
     1
 62
    18
176
     1
 90
       50
176
     1
 90
        3
176
     1
 62
     5
420
      255
176
     1
290
     0
176
     1
 90
       50
176
     1
 90
       50
176
     1
 90
       50
176
     1
290
     0
176
     1
 90
       50
176
     1
 62
   256
176
     0
 40
1.0
176
     0
 90
        2
176
     1
  1
strokes_ogs.tif
176
     1
290
     0
176
     1
 40
1.0
176
     1
 40
1.0
176
     1
1001
ACAD
1000
AcDbSavedByObjectVersion
1070
     0
  0
VISUALSTYLE
  5
2A
102
{ACAD_REACTORS
330
29
102
}
330
29
100
AcDbVisualStyle
  2
Flat
 70
     0
177
     3
291
     1
 70
    58
 90
        2
176
     1
 90
        1
176
     1
 90
        1
176
     1
 90
        2
176
     1
 40
0.6
176
     1
 40
30.0
176
     1
 62
     7
420
 16777215
176
     1
 90
        0
176
     1
 90
        0
176
     1
 62
     7
176
     1
 62
   257
176
     1
 90
        1
176
     1
 90
        1
176
     1
 40
1.0
176
     1
 90
        8
176
     1
 62
     7
176
     1
 40
1.0
176
     1
 90
        1
176
     1
 90
        6
176
     1
 90
        2
176
     1
 62
     7
176
     1
 90
        5
176
     1
 90
        0
176
     1
 90
        0
176
     1
290
     0
176
     1
 90
       13
176
     1
 40
0.0
176
     1
 90
        0
176
     1
290
     0
176
     1
290
     1
176
     1
290
     1
176
     1
290
     0
176
     1
290
     0
176
     1
290
     0
176
     1
290
     0
176
     1
290
     0
176
     1
290
     0
176
     1
 90
       50
176
     1
 40
0.0
176
     1
 40
1.0
176
     1
 90
        0
176
     1
 62
    18
176
     1
 90
       50
176
     1
 90
        3
176
     1
 62
     5
420
      255
176
     1
290
     0
176
     1
 90
       50
176
     1
 90
       50
176
     1
 90
       50
176
     1
290
     0
176
     1
 90
       50
176
     1
 62
   256
176
     0
 40
1.0
176
     0
 90
        2
176
     1
  1
strokes_ogs.tif
176
     1
290
     0
176
     1
 40
1.0
176
     1
 40
1.0
176
     1
1001
ACAD
1000
AcDbSavedByObjectVersion
1070
     0
  0
VISUALSTYLE
  5
2B
102
{ACAD_REACTORS
330
29
102
}
330
29
100
AcDbVisualStyle
  2
FlatWithEdges
 70
     1
177
     3
291
     1
 70
    58
 90
        2
176
     1
 90
        1
176
     1
 90
        1
176
     1
 90
        2
176
     1
 40
0.6
176
     1
 40
30.0
176
     1
 62
     7
420
 16777215
176
     1
 90
        1
176
     1
 90
        0
176
     1
 62
     7
176
     1
 62
   257
176
     1
 90
        1
176
     1
 90
        1
176
     1
 40
1.0
176
     1
 90
        0
176
     1
 62
   257
176
     1
 40
1.0
176
     1
 90
        1
176
     1
 90
        6
176
     1
 90
        2
176
     1
 62
     7
176
     1
 90
        5
176
     1
 90
        0
176
     1
 90
        0
176
     1
290
     0
176
     1
 90
       13
176
     1
 40
0.0
176
     1
 90
        0
176
     1
290
     0
176
     1
290
     1
176
     1
290
     1
176
     1
290
     0
176
     1
290
     0
176
     1
290
     0
176
     1
290
     0
176
     1
290
     0
176
     1
290
     0
176
     1
 90
       50
176
     1
 40
0.0
176
     1
 40
1.0
176
     1
 90
        0
176
     1
 62
    18
176
     1
 90
       50
176
     1
 90
        3
176
     1
 62
     5
420
      255
176
     1
290
     0
176
     1
 90
       50
176
     1
 90
       50
176
     1
 90
       50
176
     1
290
     0
176
     1
 90
       50
176
     1
 62
   256
176
     0
 40
1.0
176
     0
 90
        2
176
     1
  1
strokes_ogs.tif
176
     1
290
     0
176
     1
 40
1.0
176
     1
 40
1.0
176
     1
1001
ACAD
1000
AcDbSavedByObjectVersion
1070
     0
  0
VISUALSTYLE
  5
2C
102
{ACAD_REACTORS
330
29
102
}
330
29
100
AcDbVisualStyle
  2
Gouraud
 70
     2
177
     3
291
     1
 70
    58
 90
        2
176
     1
 90
        2
176
     1
 90
        1
176
     1
 90
        2
176
     1
 40
0.6
176
     1
 40
30.0
176
     1
 62
     7
420
 16777215
176
     1
 90
        0
176
     1
 90
        0
176
     1
 62
     7
176
     1
 62
   257
176
     1
 90
        1
176
     1
 90
        1
176
     1
 40
1.0
176
     1
 90
        0
176
     1
 62
     7
176
     1
 40
1.0
176
     1
 90
        1
176
     1
 90
        6
176
     1
 90
        2
176
     1
 62
     7
176
     1
 90
        5
176
     1
 90
        0
176
     1
 90
        0
176
     1
290
     0
176
     1
 90
       13
176
     1
 40
0.0
176
     1
 90
        0
176
     1
290
     0
176
     1
290
     1
176
     1
290
     1
176
     1
290
     0
176
     1
290
     0
176
     1
290
     0
176
     1
290
     0
176
     1
290
     0
176
     1
290
     0
176
     1
 90
       50
176
     1
 40
0.0
176
     1
 40
1.0
176
     1
 90
        0
176
     1
 62
    18
176
     1
 90
       50
176
     1
 90
        3
176
     1
 62
     5
420
      255
176
     1
290
     0
176
     1
 90
       50
176
     1
 90
       50
176
     1
 90
       50
176
     1
290
     0
176
     1
 90
       50
176
     1
 62
   256
176
     0
 40
1.0
176
     0
 90
        2
176
     1
  1
strokes_ogs.tif
176
     1
290
     0
176
     1
 40
1.0
176
     1
 40
1.0
176
     1
1001
ACAD
1000
AcDbSavedByObjectVersion
1070
     0
  0
VISUALSTYLE
  5
2D
102
{ACAD_REACTORS
330
29
102
}
330
29
100
AcDbVisualStyle
  2
GouraudWithEdges
 70
     3
177
     3
291
     1
 70
    58
 90
        2
176
     1
 90
        2
176
     1
 90
        1
176
     1
 90
        2
176
     1
 40
0.6
176
     1
 40
30.0
176
     1
 62
     7
420
 16777215
176
     1
 90
        1
176
     1
 90
        0
176
     1
 62
     7
176
     1
 62
   257
176
     1
 90
        1
176
     1
 90
        1
176
     1
 40
1.0
176
     1
 90
        0
176
     1
 62
   257
176
     1
 40
1.0
176
     1
 90
        1
176
     1
 90
        6
176
     1
 90
        2
176
     1
 62
     7
176
     1
 90
        5
176
     1
 90
        0
176
     1
 90
        0
176
     1
290
     0
176
     1
 90
       13
176
     1
 40
0.0
176
     1
 90
        0
176
     1
290
     0
176
     1
290
     1
176
     1
290
     1
176
     1
290
     0
176
     1
290
     0
176
     1
290
     0
176
     1
290
     0
176
     1
290
     0
176
     1
290
     0
176
     1
 90
       50
176
     1
 40
0.0
176
     1
 40
1.0
176
     1
 90
        0
176
     1
 62
    18
176
     1
 90
       50
176
     1
 90
        3
176
     1
 62
     5
420
      255
176
     1
290
     0
176
     1
 90
       50
176
     1
 90
       50
176
     1
 90
       50
176
     1
290
     0
176
     1
 90
       50
176
     1
 62
   256
176
     0
 40
1.0
176
     0
 90
        2
176
     1
  1
strokes_ogs.tif
176
     1
290
     0
176
     1
 40
1.0
176
     1
 40
1.0
176
     1
1001
ACAD
1000
AcDbSavedByObjectVersion
1070
     0
  0
VISUALSTYLE
  5
31
102
{ACAD_REACTORS
330
29
102
}
330
29
100
AcDbVisualStyle
  2
Hidden
 70
     6
177
     3
291
     0
 70
    58
 90
        1
176
     1
 90
        2
176
     1
 90
        2
176
     1
 90
        0
176
     1
 40
0.6
176
     1
 40
30.0
176
     1
 62
     7
420
 16777215
176
     1
 90
        2
176
     1
 90
        2
176
     1
 62
     7
176
     1
 62
   257
176
     1
 90
        2
176
     1
 90
        1
176
     1
 40
40.0
176
     1
 90
        0
176
     1
 62
   257
176
     1
 40
1.0
176
     1
 90
        1
176
     1
 90
        6
176
     1
 90
        2
176
     1
 62
     7
176
     1
 90
        3
176
     1
 90
        0
176
     1
 90
        0
176
     1
290
     0
176
     1
 90
        1
176
     1
 40
0.0
176
     1
 90
        0
176
     1
290
     0
176
     1
290
     1
176
     1
290
     1
176
     1
290
     0
176
     1
290
     0
176
     1
290
     0
176
     1
290
     0
176
     1
290
     0
176
     1
290
     0
176
     1
 90
       50
176
     1
 40
0.0
176
     1
 40
1.0
176
     1
 90
        0
176
     1
 62
    18
176
     1
 90
       50
176
     1
 90
        3
176
     1
 62
     5
420
      255
176
     1
290
     0
176
     1
 90
       50
176
     1
 90
       50
176
     1
 90
       50
176
     1
290
     0
176
     1
 90
       50
176
     1
 62
   256
176
     0
 40
1.0
176
     0
 90
        2
176
     1
  1
strokes_ogs.tif
176
     1
290
     0
176
     1
 40
1.0
176
     1
 40
1.0
176
     1
1001
ACAD
1000
AcDbSavedByObjectVersion
1070
     0
  0
VISUALSTYLE
  5
3F
102
{ACAD_REACTORS
330
29
102
}
330
29
100
AcDbVisualStyle
  2
JitterOff
 70
    20
177
     3
291
     1
 70
    58
 90
        2
176
     0
 90
        2
176
     0
 90
        0
176
     0
 90
        0
176
     0
 40
0.6
176
     0
 40
30.0
176
     0
 62
     7
420
 16777215
176
     0
 90
        1
176
     0
 90
        4
176
     0
 62
     7
176
     0
 62
   257
176
     0
 90
        1
176
     0
 90
        1
176
     0
 40
1.0
176
     0
 90
       10
176
     2
 62
     7
176
     0
 40
1.0
176
     0
 90
        1
176
     0
 90
        6
176
     0
 90
        2
176
     0
 62
     7
176
     0
 90
        5
176
     0
 90
        0
176
     0
 90
        0
176
     0
290
     0
176
     0
 90
        1
176
     0
 40
0.0
176
     0
 90
        0
176
     0
290
     0
176
     0
290
     1
176
     0
290
     1
176
     0
290
     0
176
     0
290
     0
176
     0
290
     0
176
     0
290
     0
176
     0
290
     0
176
     0
290
     0
176
     0
 90
       50
176
     0
 40
0.0
176
     0
 40
1.0
176
     0
 90
        0
176
     0
 62
    18
176
     0
 90
       50
176
     0
 90
        3
176
     0
 62
     5
420
      255
176
     0
290
     0
176
     0
 90
       50
176
     0
 90
       50
176
     0
 90
       50
176
     0
290
     0
176
     0
 90
       50
176
     0
 62
   256
176
     0
 40
1.0
176
     0
 90
        2
176
     0
  1
strokes_ogs.tif
176
     0
290
     0
176
     0
 40
1.0
176
     0
 40
1.0
176
     0
1001
ACAD
1000
AcDbSavedByObjectVersion
1070
     0
  0
VISUALSTYLE
  5
37
102
{ACAD_REACTORS
330
29
102
}
330
29
100
AcDbVisualStyle
  2
Linepattern
 70
    14
177
     3
291
     1
 70
    58
 90
        2
176
     1
 90
        2
176
     1
 90
        0
176
     1
 90
        0
176
     1
 40
0.6
176
     1
 40
30.0
176
     1
 62
     7
420
 16777215
176
     1
 90
        1
176
     1
 90
        4
176
     1
 62
     7
176
     1
 62
   257
176
     1
 90
        7
176
     1
 90
        7
176
     1
 40
1.0
176
     1
 90
        8
176
     1
 62
     7
176
     1
 40
1.0
176
     1
 90
        1
176
     1
 90
        6
176
     1
 90
        2
176
     1
 62
     7
176
     1
 90
        5
176
     1
 90
        0
176
     1
 90
        0
176
     1
290
     0
176
     1
 90
        1
176
     1
 40
0.0
176
     1
 90
        0
176
     1
290
     0
176
     1
290
     1
176
     1
290
     1
176
     1
290
     0
176
     1
290
     0
176
     1
290
     0
176
     1
290
     0
176
     1
290
     0
176
     1
290
     0
176
     1
 90
       50
176
     1
 40
0.0
176
     1
 40
1.0
176
     1
 90
        0
176
     1
 62
    18
176
     1
 90
       50
176
     1
 90
        3
176
     1
 62
     5
420
      255
176
     1
290
     0
176
     1
 90
       50
176
     1
 90
       50
176
     1
 90
       50
176
     1
290
     0
176
     1
 90
       50
176
     1
 62
   256
176
     0
 40
1.0
176
     0
 90
        2
176
     1
  1
strokes_ogs.tif
176
     1
290
     0
176
     1
 40
1.0
176
     1
 40
1.0
176
     1
1001
ACAD
1000
AcDbSavedByObjectVersion
1070
     0
  0
VISUALSTYLE
  5
40
102
{ACAD_REACTORS
330
29
102
}
330
29
100
AcDbVisualStyle
  2
OverhangOff
 70
    21
177
     3
291
     1
 70
    58
 90
        2
176
     0
 90
        2
176
     0
 90
        0
176
     0
 90
        0
176
     0
 40
0.6
176
     0
 40
30.0
176
     0
 62
     7
420
 16777215
176
     0
 90
        1
176
     0
 90
        4
176
     0
 62
     7
176
     0
 62
   257
176
     0
 90
        1
176
     0
 90
        1
176
     0
 40
1.0
176
     0
 90
        9
176
     2
 62
     7
176
     0
 40
1.0
176
     0
 90
        1
176
     0
 90
        6
176
     0
 90
        2
176
     0
 62
     7
176
     0
 90
        5
176
     0
 90
        0
176
     0
 90
        0
176
     0
290
     0
176
     0
 90
        1
176
     0
 40
0.0
176
     0
 90
        0
176
     0
290
     0
176
     0
290
     1
176
     0
290
     1
176
     0
290
     0
176
     0
290
     0
176
     0
290
     0
176
     0
290
     0
176
     0
290
     0
176
     0
290
     0
176
     0
 90
       50
176
     0
 40
0.0
176
     0
 40
1.0
176
     0
 90
        0
176
     0
 62
    18
176
     0
 90
       50
176
     0
 90
        3
176
     0
 62
     5
420
      255
176
     0
290
     0
176
     0
 90
       50
176
     0
 90
       50
176
     0
 90
       50
176
     0
290
     0
176
     0
 90
       50
176
     0
 62
   256
176
     0
 40
1.0
176
     0
 90
        2
176
     0
  1
strokes_ogs.tif
176
     0
290
     0
176
     0
 40
1.0
176
     0
 40
1.0
176
     0
1001
ACAD
1000
AcDbSavedByObjectVersion
1070
     0
  0
VISUALSTYLE
  5
33
102
{ACAD_REACTORS
330
29
102
}
330
29
100
AcDbVisualStyle
  2
Realistic
 70
     8
177
     3
291
     0
 70
    58
 90
        2
176
     1
 90
        3
176
     1
 90
        0
176
     1
 90
        2
176
     1
 40
0.6
176
     1
 40
30.0
176
     1
 62
     7
420
 16777215
176
     1
 90
        0
176
     1
 90
        0
176
     1
 62
     7
176
     1
 62
   257
176
     1
 90
        1
176
     1
 90
        1
176
     1
 40
1.0
176
     1
 90
        8
176
     1
 62
   257
176
     1
 40
1.0
176
     1
 90
        1
176
     1
 90
        6
176
     1
 90
        2
176
     1
 62
     7
176
     1
 90
        3
176
     1
 90
        0
176
     1
 90
        0
176
     1
290
     0
176
     1
 90
       13
176
     1
 40
0.0
176
     1
 90
        0
176
     1
290
     0
176
     1
290
     1
176
     1
290
     1
176
     1
290
     0
176
     1
290
     0
176
     1
290
     0
176
     1
290
     0
176
     1
290
     0
176
     1
290
     0
176
     1
 90
       50
176
     1
 40
0.0
176
     1
 40
1.0
176
     1
 90
        0
176
     1
 62
    18
176
     1
 90
       50
176
     1
 90
        3
176
     1
 62
     5
420
      255
176
     1
290
     0
176
     1
 90
       50
176
     1
 90
       50
176
     1
 90
       50
176
     1
290
     0
176
     1
 90
       50
176
     1
 62
   256
176
     0
 40
1.0
176
     0
 90
        2
176
     1
  1
strokes_ogs.tif
176
     1
290
     0
176
     1
 40
1.0
176
     1
 40
1.0
176
     1
1001
ACAD
1000
AcDbSavedByObjectVersion
1070
     0
  0
VISUALSTYLE
  5
3E
102
{ACAD_REACTORS
330
29
102
}
330
29
100
AcDbVisualStyle
  2
Shaded
 70
    27
177
     3
291
     0
 70
    58
 90
        2
176
     1
 90
        2
176
     1
 90
        1
176
     1
 90
        2
176
     1
 40
0.6
176
     1
 40
30.0
176
     1
 62
     7
420
 16777215
176
     1
 90
        0
176
     1
 90
        4
176
     1
 62
     7
176
     1
 62
   257
176
     1
 90
        1
176
     1
 90
        1
176
     1
 40
1.0
176
     1
 90
        8
176
     1
 62
   257
176
     1
 40
1.0
176
     1
 90
        1
176
     1
 90
        6
176
     1
 90
        2
176
     1
 62
     8
420
  7895160
176
     1
 90
        3
176
     1
 90
        0
176
     1
 90
        0
176
     1
290
     0
176
     1
 90
        5
176
     1
 40
0.0
176
     1
 90
        0
176
     1
290
     0
176
     1
290
     1
176
     1
290
     1
176
     1
290
     0
176
     1
290
     0
176
     1
290
     0
176
     1
290
     0
176
     1
290
     0
176
     1
290
     0
176
     1
 90
       50
176
     1
 40
0.0
176
     1
 40
1.0
176
     1
 90
        0
176
     1
 62
    18
176
     1
 90
       50
176
     1
 90
        3
176
     1
 62
     5
420
      255
176
     1
290
     0
176
     1
 90
       50
176
     1
 90
       50
176
     1
 90
       50
176
     1
290
     0
176
     1
 90
       50
176
     1
 62
   256
176
     0
 40
1.0
176
     0
 90
        2
176
     1
  1
strokes_ogs.tif
176
     1
290
     0
176
     1
 40
1.0
176
     1
 40
1.0
176
     1
1001
ACAD
1000
AcDbSavedByObjectVersion
1070
     0
  0
VISUALSTYLE
  5
3D
102
{ACAD_REACTORS
330
29
102
}
330
29
100
AcDbVisualStyle
  2
Shaded with edges
 70
    26
177
     3
291
     0
 70
    58
 90
        2
176
     1
 90
        2
176
     1
 90
        1
176
     1
 90
        2
176
     1
 40
0.6
176
     1
 40
30.0
176
     1
 62
     7
420
 16777215
176
     1
 90
        1
176
     1
 90
        2
176
     1
 62
     7
176
     1
 62
   257
176
     1
 90
        2
176
     1
 90
        1
176
     1
 40
1.0
176
     1
 90
        8
176
     1
 62
   257
176
     1
 40
1.0
176
     1
 90
        1
176
     1
 90
        6
176
     1
 90
        2
176
     1
 62
     7
176
     1
 90
        3
176
     1
 90
        0
176
     1
 90
        0
176
     1
290
     0
176
     1
 90
        5
176
     1
 40
0.0
176
     1
 90
        0
176
     1
290
     0
176
     1
290
     1
176
     1
290
     1
176
     1
290
     0
176
     1
290
     0
176
     1
290
     0
176
     1
290
     0
176
     1
290
     0
176
     1
290
     0
176
     1
 90
       50
176
     1
 40
0.0
176
     1
 40
1.0
176
     1
 90
        0
176
     1
 62
    18
176
     1
 90
       50
176
     1
 90
        3
176
     1
 62
     5
420
      255
176
     1
290
     0
176
     1
 90
       50
176
     1
 90
       50
176
     1
 90
       50
176
     1
290
     0
176
     1
 90
       50
176
     1
 62
   256
176
     0
 40
1.0
176
     0
 90
        2
176
     1
  1
strokes_ogs.tif
176
     1
290
     0
176
     1
 40
1.0
176
     1
 40
1.0
176
     1
1001
ACAD
1000
AcDbSavedByObjectVersion
1070
     0
  0
VISUALSTYLE
  5
3A
102
{ACAD_REACTORS
330
29
102
}
330
29
100
AcDbVisualStyle
  2
Shades of Gray
 70
    23
177
     3
291
     0
 70
    58
 90
        2
176
     1
 90
        2
176
     1
 90
        3
176
     1
 90
        0
176
     1
 40
0.6
176
     1
 40
30.0
176
     1
 62
     7
420
 16777215
176
     1
 90
        2
176
     1
 90
        2
176
     1
 62
     7
176
     1
 62
     7
176
     1
 90
        1
176
     1
 90
        1
176
     1
 40
40.0
176
     1
 90
        8
176
     1
 62
     7
176
     1
 40
1.0
176
     1
 90
        1
176
     1
 90
        6
176
     1
 90
        2
176
     1
 62
     7
176
     1
 90
        3
176
     1
 90
        0
176
     1
 90
        0
176
     1
290
     0
176
     1
 90
        1
176
     1
 40
0.0
176
     1
 90
        0
176
     1
290
     0
176
     1
290
     1
176
     1
290
     1
176
     1
290
     0
176
     1
290
     0
176
     1
290
     0
176
     1
290
     0
176
     1
290
     0
176
     1
290
     0
176
     1
 90
       50
176
     1
 40
0.0
176
     1
 40
1.0
176
     1
 90
        0
176
     1
 62
    18
176
     1
 90
       50
176
     1
 90
        3
176
     1
 62
     5
420
      255
176
     1
290
     0
176
     1
 90
       50
176
     1
 90
       50
176
     1
 90
       50
176
     1
290
     0
176
     1
 90
       50
176
     1
 62
   256
176
     0
 40
1.0
176
     0
 90
        2
176
     1
  1
strokes_ogs.tif
176
     1
290
     0
176
     1
 40
1.0
176
     1
 40
1.0
176
     1
1001
ACAD
1000
AcDbSavedByObjectVersion
1070
     0
  0
VISUALSTYLE
  5
3B
102
{ACAD_REACTORS
330
29
102
}
330
29
100
AcDbVisualStyle
  2
Sketchy
 70
    24
177
     3
291
     0
 70
    58
 90
        1
176
     1
 90
        2
176
     1
 90
        2
176
     1
 90
        0
176
     1
 40
0.6
176
     1
 40
30.0
176
     1
 62
     7
420
 16777215
176
     1
 90
        2
176
     1
 90
        2
176
     1
 62
     7
176
     1
 62
     7
176
     1
 90
        1
176
     1
 90
        1
176
     1
 40
40.0
176
     1
 90
       11
176
     1
 62
     7
176
     1
 40
1.0
176
     1
 90
        1
176
     1
 90
        6
176
     1
 90
        2
176
     1
 62
     7
176
     1
 90
        6
176
     1
 90
        0
176
     1
 90
        0
176
     1
290
     0
176
     1
 90
        1
176
     1
 40
0.0
176
     1
 90
        0
176
     1
290
     0
176
     1
290
     1
176
     1
290
     1
176
     1
290
     0
176
     1
290
     0
176
     1
290
     0
176
     1
290
     0
176
     1
290
     0
176
     1
290
     0
176
     1
 90
       50
176
     1
 40
0.0
176
     1
 40
1.0
176
     1
 90
        0
176
     1
 62
    18
176
     1
 90
       50
176
     1
 90
        3
176
     1
 62
     5
420
      255
176
     1
290
     0
176
     1
 90
       50
176
     1
 90
       50
176
     1
 90
       50
176
     1
290
     0
176
     1
 90
       50
176
     1
 62
   256
176
     0
 40
1.0
176
     0
 90
        2
176
     1
  1
strokes_ogs.tif
176
     1
290
     0
176
     1
 40
1.0
176
     1
 40
1.0
176
     1
1001
ACAD
1000
AcDbSavedByObjectVersion
1070
     0
  0
VISUALSTYLE
  5
36
102
{ACAD_REACTORS
330
29
102
}
330
29
100
AcDbVisualStyle
  2
Thicken
 70
    13
177
     3
291
     1
 70
    58
 90
        2
176
     1
 90
        2
176
     1
 90
        0
176
     1
 90
        0
176
     1
 40
0.6
176
     1
 40
30.0
176
     1
 62
     7
420
 16777215
176
     1
 90
        1
176
     1
 90
        4
176
     1
 62
     7
176
     1
 62
   257
176
     1
 90
        1
176
     1
 90
        1
176
     1
 40
1.0
176
     1
 90
       12
176
     1
 62
     7
176
     1
 40
1.0
176
     1
 90
        1
176
     1
 90
        6
176
     1
 90
        2
176
     1
 62
     7
176
     1
 90
        5
176
     1
 90
        0
176
     1
 90
        0
176
     1
290
     0
176
     1
 90
        1
176
     1
 40
0.0
176
     1
 90
        0
176
     1
290
     0
176
     1
290
     1
176
     1
290
     1
176
     1
290
     0
176
     1
290
     0
176
     1
290
     0
176
     1
290
     0
176
     1
290
     0
176
     1
290
     0
176
     1
 90
       50
176
     1
 40
0.0
176
     1
 40
1.0
176
     1
 90
        0
176
     1
 62
    18
176
     1
 90
       50
176
     1
 90
        3
176
     1
 62
     5
420
      255
176
     1
290
     0
176
     1
 90
       50
176
     1
 90
       50
176
     1
 90
       50
176
     1
290
     0
176
     1
 90
       50
176
     1
 62
   256
176
     0
 40
1.0
176
     0
 90
        2
176
     1
  1
strokes_ogs.tif
176
     1
290
     0
176
     1
 40
1.0
176
     1
 40
1.0
176
     1
1001
ACAD
1000
AcDbSavedByObjectVersion
1070
     0
  0
VISUALSTYLE
  5
30
102
{ACAD_REACTORS
330
29
102
}
330
29
100
AcDbVisualStyle
  2
Wireframe
 70
     5
177
     3
291
     0
 70
    58
 90
        0
176
     1
 90
        2
176
     1
 90
        0
176
     1
 90
        0
176
     1
 40
0.6
176
     1
 40
30.0
176
     1
 62
     7
420
 16777215
176
     1
 90
        1
176
     1
 90
        4
176
     1
 62
     7
176
     1
 62
   257
176
     1
 90
        1
176
     1
 90
        1
176
     1
 40
1.0
176
     1
 90
        0
176
     1
 62
   257
176
     1
 40
1.0
176
     1
 90
        1
176
     1
 90
        6
176
     1
 90
        2
176
     1
 62
     7
176
     1
 90
        3
176
     1
 90
        0
176
     1
 90
        0
176
     1
290
     0
176
     1
 90
        1
176
     1
 40
0.0
176
     1
 90
        0
176
     1
290
     0
176
     1
290
     1
176
     1
290
     1
176
     1
290
     0
176
     1
290
     0
176
     1
290
     0
176
     1
290
     0
176
     1
290
     0
176
     1
290
     0
176
     1
 90
       50
176
     1
 40
0.0
176
     1
 40
1.0
176
     1
 90
        0
176
     1
 62
    18
176
     1
 90
       50
176
     1
 90
        3
176
     1
 62
     5
420
      255
176
     1
290
     0
176
     1
 90
       50
176
     1
 90
       50
176
     1
 90
       50
176
     1
290
     0
176
     1
 90
       50
176
     1
 62
   256
176
     0
 40
1.0
176
     0
 90
        2
176
     1
  1
strokes_ogs.tif
176
     1
290
     0
176
     1
 40
1.0
176
     1
 40
1.0
176
     1
1001
ACAD
1000
AcDbSavedByObjectVersion
1070
     0
  0
VISUALSTYLE
  5
3C
102
{ACAD_REACTORS
330
29
102
}
330
29
100
AcDbVisualStyle
  2
X-Ray
 70
    25
177
     3
291
     0
 70
    58
 90
        2
176
     1
 90
        2
176
     1
 90
        1
176
     1
 90
        1
176
     1
 40
0.5
176
     1
 40
30.0
176
     1
 62
     7
420
 16777215
176
     1
 90
        1
176
     1
 90
        0
176
     1
 62
     7
176
     1
 62
   257
176
     1
 90
        1
176
     1
 90
        1
176
     1
 40
1.0
176
     1
 90
        8
176
     1
 62
     7
176
     1
 40
1.0
176
     1
 90
        1
176
     1
 90
        6
176
     1
 90
        2
176
     1
 62
     7
176
     1
 90
        3
176
     1
 90
        0
176
     1
 90
        0
176
     1
290
     0
176
     1
 90
       13
176
     1
 40
0.0
176
     1
 90
        0
176
     1
290
     0
176
     1
290
     1
176
     1
290
     1
176
     1
290
     0
176
     1
290
     0
176
     1
290
     0
176
     1
290
     0
176
     1
290
     0
176
     1
290
     0
176
     1
 90
       50
176
     1
 40
0.0
176
     1
 40
1.0
176
     1
 90
        0
176
     1
 62
    18
176
     1
 90
       50
176
     1
 90
        3
176
     1
 62
     5
420
      255
176
     1
290
     0
176
     1
 90
       50
176
     1
 90
       50
176
     1
 90
       50
176
     1
290
     0
176
     1
 90
       50
176
     1
 62
   256
176
     0
 40
1.0
176
     0
 90
        2
176
     1
  1
strokes_ogs.tif
176
     1
290
     0
176
     1
 40
1.0
176
     1
 40
1.0
176
     1
1001
ACAD
1000
AcDbSavedByObjectVersion
1070
     0
  0
DICTIONARYVAR
  5
112
102
{ACAD_REACTORS
330
10D
102
}
330
10D
100
DictionaryVariables
280
     0
  1
1:1
  0
DICTIONARYVAR
  5
10F
102
{ACAD_REACTORS
330
10D
102
}
330
10D
100
DictionaryVariables
280
     0
  1
STANDARD
  0
DICTIONARYVAR
  5
10E
102
{ACAD_REACTORS
330
10D
102
}
330
10D
100
DictionaryVariables
280
     0
  1
STANDARD
  0
DICTIONARYVAR
  5
110
102
{ACAD_REACTORS
330
10D
102
}
330
10D
100
DictionaryVariables
280
     0
  1
Imperial24
  0
DICTIONARYVAR
  5
111
102
{ACAD_REACTORS
330
10D
102
}
330
10D
100
DictionaryVariables
280
     0
  1
Imperial24
  0
DICTIONARY
  5
1C0
102
{ACAD_REACTORS
330
1BE
102
}
330
1BE
100
AcDbDictionary
281
     1
  0
DICTIONARY
  5
1BF
102
{ACAD_REACTORS
330
1BE
102
}
330
1BE
100
AcDbDictionary
281
     1
  3
140700520482064
350
1B9
  3
140700520482080
350
1BA
  3
140700520482096
350
1BB
  3
140700520482112
350
1BC
  3
140700520482128
350
1BD
  0
DICTIONARY
  5
1C3
330
6B
100
AcDbDictionary
280
     1
281
     1
  3
ACAD_XREC_ROUNDTRIP
360
1C4
  0
DICTIONARY
  5
1A
330
19
100
AcDbDictionary
280
     1
281
     1
  3
BUMPTILE
360
1C
  3
DIFFUSETILE
360
1B
  3
OPACITYTILE
360
1F
  3
REFLECTIONTILE
360
1E
  3
REFRACTIONTILE
360
20
  3
SPECULARTILE
360
1D
  0
DICTIONARY
  5
12
330
11
100
AcDbDictionary
280
     1
281
     1
  3
BUMPTILE
360
14
  3
DIFFUSETILE
360
13
  3
OPACITYTILE
360
17
  3
REFLECTIONTILE
360
16
  3
REFRACTIONTILE
360
18
  3
SPECULARTILE
360
15
  0
DICTIONARY
  5
22
330
21
100
AcDbDictionary
280
     1
281
     1
  3
BUMPTILE
360
24
  3
DIFFUSETILE
360
23
  3
OPACITYTILE
360
27
  3
REFLECTIONTILE
360
26
  3
REFRACTIONTILE
360
28
  3
SPECULARTILE
360
25
  0
DICTIONARY
  5
1C1
330
69
100
AcDbDictionary
280
     1
281
     1
  3
ACAD_XREC_ROUNDTRIP
360
1C2
  0
DICTIONARY
  5
113
330
65
100
AcDbDictionary
280
     1
281
     1
  3
ACAD_ROUNDTRIP_2008_TABLESTYLE_CELLSTYLEMAP
360
1B7
  0
XRECORD
  5
1B9
102
{ACAD_REACTORS
330
1BF
102
}
330
1BF
100
AcDbXrecord
280
     1
  1
AcDb_Thumbnail_Schema
102
{ATTRRECORD
341
1BA
  2
AcDbDs::TreatedAsObjectData
280
     1
291
     1
102
ATTRRECORD}
102
{ATTRRECORD
341
1BB
  2
AcDbDs::Legacy
280
     1
291
     1
102
ATTRRECORD}
  2
AcDbDs::ID
280
    10
 91
        8
102
{ATTRRECORD
341
1BC
  2
AcDs:Indexable
280
     1
291
     1
102
ATTRRECORD}
102
{ATTRRECORD
341
1BD
  2
AcDbDs::HandleAttribute
280
     7
282
     1
102
ATTRRECORD}
  2
Thumbnail_Data
280
    15
 91
        0
  0
XRECORD
  5
1BA
102
{ACAD_REACTORS
330
1BF
102
}
330
1BF
100
AcDbXrecord
280
     1
  1
AcDbDs::TreatedAsObjectDataSchema
  2
AcDbDs::TreatedAsObjectData
280
     1
 91
        0
  0
XRECORD
  5
1BB
102
{ACAD_REACTORS
330
1BF
102
}
330
1BF
100
AcDbXrecord
280
     1
  1
AcDbDs::LegacySchema
  2
AcDbDs::Legacy
280
     1
 91
        0
  0
XRECORD
  5
1BC
102
{ACAD_REACTORS
330
1BF
102
}
330
1BF
100
AcDbXrecord
280
     1
  1
AcDbDs::IndexedPropertySchema
  2
AcDs:Indexable
280
     1
 91
        0
  0
XRECORD
  5
1BD
102
{ACAD_REACTORS
330
1BF
102
}
330
1BF
100
AcDbXrecord
280
     1
  1
AcDbDs::HandleAttributeSchema
  2
AcDbDs::HandleAttribute
280
     7
 91
        1
284
     1
  0
XRECORD
  5
1C4
102
{ACAD_REACTORS
330
1C3
102
}
330
1C3
100
AcDbXrecord
280
     1
102
DISPLAYNAME
  1
Imperial24
102
FLAGS
 90
        0
  0
XRECORD
  5
1C
102
{ACAD_REACTORS
330
1A
102
}
330
1A
100
AcDbXrecord
280
     1
270
     1
271
     1
  0
XRECORD
  5
1B
102
{ACAD_REACTORS
330
1A
102
}
330
1A
100
AcDbXrecord
280
     1
270
     1
271
     1
  0
XRECORD
  5
1F
102
{ACAD_REACTORS
330
1A
102
}
330
1A
100
AcDbXrecord
280
     1
270
     1
271
     1
  0
XRECORD
  5
1E
102
{ACAD_REACTORS
330
1A
102
}
330
1A
100
AcDbXrecord
280
     1
270
     1
271
     1
  0
XRECORD
  5
20
102
{ACAD_REACTORS
330
1A
102
}
330
1A
100
AcDbXrecord
280
     1
270
     1
271
     1
  0
XRECORD
  5
1D
102
{ACAD_REACTORS
330
1A
102
}
330
1A
100
AcDbXrecord
280
     1
270
     1
271
     1
  0
XRECORD
  5
14
102
{ACAD_REACTORS
330
12
102
}
330
12
100
AcDbXrecord
280
     1
270
     1
271
     1
  0
XRECORD
  5
13
102
{ACAD_REACTORS
330
12
102
}
330
12
100
AcDbXrecord
280
     1
270
     1
271
     1
  0
XRECORD
  5
17
102
{ACAD_REACTORS
330
12
102
}
330
12
100
AcDbXrecord
280
     1
270
     1
271
     1
  0
XRECORD
  5
16
102
{ACAD_REACTORS
330
12
102
}
330
12
100
AcDbXrecord
280
     1
270
     1
271
     1
  0
XRECORD
  5
18
102
{ACAD_REACTORS
330
12
102
}
330
12
100
AcDbXrecord
280
     1
270
     1
271
     1
  0
XRECORD
  5
15
102
{ACAD_REACTORS
330
12
102
}
330
12
100
AcDbXrecord
280
     1
270
     1
271
     1
  0
XRECORD
  5
24
102
{ACAD_REACTORS
330
22
102
}
330
22
100
AcDbXrecord
280
     1
270
     1
271
     1
  0
XRECORD
  5
23
102
{ACAD_REACTORS
330
22
102
}
330
22
100
AcDbXrecord
280
     1
270
     1
271
     1
  0
XRECORD
  5
27
102
{ACAD_REACTORS
330
22
102
}
330
22
100
AcDbXrecord
280
     1
270
     1
271
     1
  0
XRECORD
  5
26
102
{ACAD_REACTORS
330
22
102
}
330
22
100
AcDbXrecord
280
     1
270
     1
271
     1
  0
XRECORD
  5
28
102
{ACAD_REACTORS
330
22
102
}
330
22
100
AcDbXrecord
280
     1
270
     1
271
     1
  0
XRECORD
  5
25
102
{ACAD_REACTORS
330
22
102
}
330
22
100
AcDbXrecord
280
     1
270
     1
271
     1
  0
XRECORD
  5
1C2
102
{ACAD_REACTORS
330
1C1
102
}
330
1C1
100
AcDbXrecord
280
     1
102
DISPLAYNAME
  1
Imperial24
102
FLAGS
 90
        0
  0
CELLSTYLEMAP
  5
1B7
102
{ACAD_REACTORS
330
113
102
}
330
113
100
AcDbCellStyleMap
 90
        3
300
CELLSTYLE
  1
TABLEFORMAT_BEGIN
 90
        5
170
     1
 91
        0
 92
    32768
 62
   257
 93
        1
300
CONTENTFORMAT
  1
CONTENTFORMAT_BEGIN
 90
        0
 91
        0
 92
      512
 93
        0
300

 40
0.0
140
1.0
 94
        5
 62
     0
340
55
144
0.25
309
CONTENTFORMAT_END
171
     1
301
MARGIN
  1
CELLMARGIN_BEGIN
 40
0.06
 40
0.06
 40
0.06
 40
0.06
 40
0.18
 40
0.18
309
CELLMARGIN_END
 94
        6
 95
        1
302
GRIDFORMAT
  1
GRIDFORMAT_BEGIN
 90
        0
 91
        1
 62
     0
 92
       -2
340
0
 93
        0
 40
0.045
309
GRIDFORMAT_END
 95
        2
302
GRIDFORMAT
  1
GRIDFORMAT_BEGIN
 90
        0
 91
        1
 62
     0
 92
       -2
340
0
 93
        0
 40
0.045
309
GRIDFORMAT_END
 95
        4
302
GRIDFORMAT
  1
GRIDFORMAT_BEGIN
 90
        0
 91
        1
 62
     0
 92
       -2
340
0
 93
        0
 40
0.045
309
GRIDFORMAT_END
 95
        8
302
GRIDFORMAT
  1
GRIDFORMAT_BEGIN
 90
        0
 91
        1
 62
     0
 92
       -2
340
0
 93
        0
 40
0.045
309
GRIDFORMAT_END
 95
       16
302
GRIDFORMAT
  1
GRIDFORMAT_BEGIN
 90
        0
 91
        1
 62
     0
 92
       -2
340
0
 93
        0
 40
0.045
309
GRIDFORMAT_END
 95
       32
302
GRIDFORMAT
  1
GRIDFORMAT_BEGIN
 90
        0
 91
        1
 62
     0
 92
       -2
340
0
 93
        0
 40
0.045
309
GRIDFORMAT_END
309
TABLEFORMAT_END
  1
CELLSTYLE_BEGIN
 90
        1
 91
        1
300
_TITLE
309
CELLSTYLE_END
300
CELLSTYLE
  1
TABLEFORMAT_BEGIN
 90
        5
170
     1
 91
        0
 92
        0
 62
   257
 93
        1
300
CONTENTFORMAT
  1
CONTENTFORMAT_BEGIN
 90
        0
 91
        0
 92
      512
 93
        0
300

 40
0.0
140
1.0
 94
        5
 62
     0
340
55
144
0.18
309
CONTENTFORMAT_END
171
     1
301
MARGIN
  1
CELLMARGIN_BEGIN
 40
0.06
 40
0.06
 40
0.06
 40
0.06
 40
0.18
 40
0.18
309
CELLMARGIN_END
 94
        6
 95
        1
302
GRIDFORMAT
  1
GRIDFORMAT_BEGIN
 90
        0
 91
        1
 62
     0
 92
       -2
340
0
 93
        0
 40
0.045
309
GRIDFORMAT_END
 95
        2
302
GRIDFORMAT
  1
GRIDFORMAT_BEGIN
 90
        0
 91
        1
 62
     0
 92
       -2
340
0
 93
        0
 40
0.045
309
GRIDFORMAT_END
 95
        4
302
GRIDFORMAT
  1
GRIDFORMAT_BEGIN
 90
        0
 91
        1
 62
     0
 92
       -2
340
0
 93
        0
 40
0.045
309
GRIDFORMAT_END
 95
        8
302
GRIDFORMAT
  1
GRIDFORMAT_BEGIN
 90
        0
 91
        1
 62
     0
 92
       -2
340
0
 93
        0
 40
0.045
309
GRIDFORMAT_END
 95
       16
302
GRIDFORMAT
  1
GRIDFORMAT_BEGIN
 90
        0
 91
        1
 62
     0
 92
       -2
340
0
 93
        0
 40
0.045
309
GRIDFORMAT_END
 95
       32
302
GRIDFORMAT
  1
GRIDFORMAT_BEGIN
 90
        0
 91
        1
 62
     0
 92
       -2
340
0
 93
        0
 40
0.045
309
GRIDFORMAT_END
309
TABLEFORMAT_END
  1
CELLSTYLE_BEGIN
 90
        2
 91
        1
300
_HEADER
309
CELLSTYLE_END
300
CELLSTYLE
  1
TABLEFORMAT_BEGIN
 90
        5
170
     1
 91
        0
 92
        0
 62
   257
 93
        1
300
CONTENTFORMAT
  1
CONTENTFORMAT_BEGIN
 90
        0
 91
        0
 92
      512
 93
        0
300

 40
0.0
140
1.0
 94
        2
 62
     0
340
55
144
0.18
309
CONTENTFORMAT_END
171
     1
301
MARGIN
  1
CELLMARGIN_BEGIN
 40
0.06
 40
0.06
 40
0.06
 40
0.06
 40
0.18
 40
0.18
309
CELLMARGIN_END
 94
        6
 95
        1
302
GRIDFORMAT
  1
GRIDFORMAT_BEGIN
 90
        0
 91
        1
 62
     0
 92
       -2
340
0
 93
        0
 40
0.045
309
GRIDFORMAT_END
 95
        2
302
GRIDFORMAT
  1
GRIDFORMAT_BEGIN
 90
        0
 91
        1
 62
     0
 92
       -2
340
0
 93
        0
 40
0.045
309
GRIDFORMAT_END
 95
        4
302
GRIDFORMAT
  1
GRIDFORMAT_BEGIN
 90
        0
 91
        1
 62
     0
 92
       -2
340
0
 93
        0
 40
0.045
309
GRIDFORMAT_END
 95
        8
302
GRIDFORMAT
  1
GRIDFORMAT_BEGIN
 90
        0
 91
        1
 62
     0
 92
       -2
340
0
 93
        0
 40
0.045
309
GRIDFORMAT_END
 95
       16
302
GRIDFORMAT
  1
GRIDFORMAT_BEGIN
 90
        0
 91
        1
 62
     0
 92
       -2
340
0
 93
        0
 40
0.045
309
GRIDFORMAT_END
 95
       32
302
GRIDFORMAT
  1
GRIDFORMAT_BEGIN
 90
        0
 91
        1
 62
     0
 92
       -2
340
0
 93
        0
 40
0.045
309
GRIDFORMAT_END
309
TABLEFORMAT_END
  1
CELLSTYLE_BEGIN
 90
        3
 91
        2
300
_DATA
309
CELLSTYLE_END
  0
ENDSEC
  0
SECTION
  2
ACDSDATA
 70
     2
 71
     8
  0
ACDSSCHEMA
 90
        0
  1
AcDb_Thumbnail_Schema
  2
AcDbDs::ID
280
    10
 91
        8
  2
Thumbnail_Data
280
    15
 91
        0
101
ACDSRECORD
 95
        0
 90
        1
  2
AcDbDs::TreatedAsObjectData
280
     1
291
     1
101
ACDSRECORD
 95
        0
 90
        2
  2
AcDbDs::Legacy
280
     1
291
     1
101
ACDSRECORD
  1
AcDbDs::ID
 90
        3
  2
AcDs:Indexable
280
     1
291
     1
101
ACDSRECORD
  1
AcDbDs::ID
 90
        4
  2
AcDbDs::HandleAttribute
280
     7
282
     1
  0
ACDSSCHEMA
 90
        1
  1
AcDbDs::TreatedAsObjectDataSchema
  2
AcDbDs::TreatedAsObjectData
280
     1
 91
        0
  0
ACDSSCHEMA
 90
        2
  1
AcDbDs::LegacySchema
  2
AcDbDs::Legacy
280
     1
 91
        0
  0
ACDSSCHEMA
 90
        3
  1
AcDbDs::IndexedPropertySchema
  2
AcDs:Indexable
280
     1
 91
        0
  0
ACDSSCHEMA
 90
        4
  1
AcDbDs::HandleAttributeSchema
  2
AcDbDs::HandleAttribute
280
     7
 91
        1
284
     1
  0
ACDSRECORD
 90
        0
  2
AcDbDs::ID
280
    10
320
73
  2
Thumbnail_Data
280
    15
 94
     1348
310
89504E470D0A1A0A0000000D4948445200000100000000BF08030000002647F24000000300504C5445212830FFFFFF2128300000000000000000000000000000000000000000000000000000330000660000990000CC0000FF0033000033330033660033990033CC0033FF0066000066330066660066990066CC0066FF0099
310
000099330099660099990099CC0099FF00CC0000CC3300CC6600CC9900CCCC00CCFF00FF0000FF3300FF6600FF9900FFCC00FFFF3300003300333300663300993300CC3300FF3333003333333333663333993333CC3333FF3366003366333366663366993366CC3366FF3399003399333399663399993399CC3399FF33CC00
310
33CC3333CC6633CC9933CCCC33CCFF33FF0033FF3333FF6633FF9933FFCC33FFFF6600006600336600666600996600CC6600FF6633006633336633666633996633CC6633FF6666006666336666666666996666CC6666FF6699006699336699666699996699CC6699FF66CC0066CC3366CC6666CC9966CCCC66CCFF66FF0066
310
FF3366FF6666FF9966FFCC66FFFF9900009900339900669900999900CC9900FF9933009933339933669933999933CC9933FF9966009966339966669966999966CC9966FF9999009999339999669999999999CC9999FF99CC0099CC3399CC6699CC9999CCCC99CCFF99FF0099FF3399FF6699FF9999FFCC99FFFFCC0000CC00
310
33CC0066CC0099CC00CCCC00FFCC3300CC3333CC3366CC3399CC33CCCC33FFCC6600CC6633CC6666CC6699CC66CCCC66FFCC9900CC9933CC9966CC9999CC99CCCC99FFCCCC00CCCC33CCCC66CCCC99CCCCCCCCCCFFCCFF00CCFF33CCFF66CCFF99CCFFCCCCFFFFFF0000FF0033FF0066FF0099FF00CCFF00FFFF3300FF3333
310
FF3366FF3399FF33CCFF33FFFF6600FF6633FF6666FF6699FF66CCFF66FFFF9900FF9933FF9966FF9999FF99CCFF99FFFFCC00FFCC33FFCC66FFCC99FFCCCCFFCCFFFFFF00FFFF33FFFF66FFFF99FFFFCCFFFFFF0000000D0D0D1A1A1A2828283535354343435050505D5D5D6B6B6B787878868686939393A1A1A1AEAEAEBB
310
BBBBC9C9C9D6D6D6E4E4E4F1F1F1FFFFFF0000000000000000000000000000000000000000000000000000000000002E4550F1000001FF4944415478DAEDDCDB52AC30100550FEFF7FFBDD9AD27200757080249D64AD27CBE340EFCD45C6635C160000000000000000000000000000588B879AFB8A64E9BF27ABB5AF254F07
310
DB499E4727E2FAA1DA6C61BFB51415FC3EC4E3938FCFC7A5F3E2EB75F1F9C11F3B8AC6F15FFE4B2CEB8377F296F2B991833D658BFFFD15A78ED6EE0BE3FA1C85F2FF63B613A3BE1DE7C41C771510EFEF396E3F9AA7C66875061C268C7373B46920EEBF7544ED595AE47FF1D2586629E00F4B4F05E47A18AFDFC0A5FC717F88
310
CAC7E3E203FEEF51A3A306A2C8CBA39BAB20D7E5DF60ACD90B489ABFDE600A98BC80B4F96B8DA680C90B489CBFCE700A58E66E20777E05149F2F7B7E05149E307F7E05149DB187FC0A98BE808253F6915F013179FE7283CE5E4037F94B8DAA8065EE067ACAAF8002D3F695BF48015DDD040B14103D3D0794F87589E8E90C28
310
52C0ECDF053A6A20267F16F6767899BA81B237EBD9FF5B20FF37C3186217C9878BAC6741C5C1225D090D264AD441B351B6B5B7FA65E5E66B27A3FAFBE5D5AE322D9F7D2E6ABE63D5F0FE4CDB6C305A5DF7C78F07BBD5CD375FE1EB15B5196FC33F87BA3EE5CF2DE4FBF301051F1DA3B31F45DE1C6288F8E7AFD761E29F4B33
310
56FCB79F93C68BBF0975B46C6EC8F8AB60070B27878DFF0CF7EA0C183AFE71C0E1E3EFDE2CDCB8801E0000000000000000000000000080D97D00B092B56D78F49A4E0000000049454E44AE426082
  0
ENDSEC
  0
EOF
