<?xml version="1.0" standalone="no"?>
 <!DOCTYPE svg PUBLIC "-//W3C//DTD SVG 1.1//EN" 
 "http://www.w3.org/Graphics/SVG/1.1/DTD/svg11.dtd"> 
<svg
  xmlns:svg="http://www.w3.org/2000/svg"
  xmlns="http://www.w3.org/2000/svg"
  xmlns:xlink="http://www.w3.org/1999/xlink"
  version="1.1"
  width="317.9064mm" height="132.7912mm" viewBox="0.0000 0.0000 317.9064 132.7912">
<title>SVG Image created as metallali-User_Eco1.svg date 2025/05/02 19:31:42 </title>
  <desc>Image generated by PCBNEW </desc>
<g style="fill:#000000; fill-opacity:1.0000;stroke:#000000; stroke-opacity:1.0000;
stroke-linecap:round; stroke-linejoin:round;"
 transform="translate(0 0) scale(1 1)">
<path style="fill:none; 
stroke:#000000; stroke-width:0.1200; stroke-opacity:1; 
stroke-linecap:round; stroke-linejoin:round;fill:none"
d="M 51.8739,15.5234
46.9434,33.9243
28.5425,28.9938
33.4730,10.5929
Z" /> 
<path style="fill:none; 
stroke:#000000; stroke-width:0.1200; stroke-opacity:1; 
stroke-linecap:round; stroke-linejoin:round;fill:none"
d="M 262.5391,71.0564
244.1382,75.9869
239.2077,57.5860
257.6086,52.6555
Z" /> 
<path style="fill:none; 
stroke:#000000; stroke-width:0.1200; stroke-opacity:1; 
stroke-linecap:round; stroke-linejoin:round;fill:none"
d="M 127.9427,26.0450
123.0122,44.4459
104.6113,39.5154
109.5418,21.1145
Z" /> 
<path style="fill:none; 
stroke:#000000; stroke-width:0.1200; stroke-opacity:1; 
stroke-linecap:round; stroke-linejoin:round;fill:none"
d="M 110.7744,16.5143
105.8439,34.9152
87.4430,29.9847
92.3735,11.5838
Z" /> 
<path style="fill:none; 
stroke:#000000; stroke-width:0.1200; stroke-opacity:1; 
stroke-linecap:round; stroke-linejoin:round;fill:none"
d="M 231.8120,29.9847
213.4111,34.9152
208.4806,16.5143
226.8815,11.5838
Z" /> 
<path style="fill:none; 
stroke:#000000; stroke-width:0.1200; stroke-opacity:1; 
stroke-linecap:round; stroke-linejoin:round;fill:none"
d="M 219.5742,57.9163
201.1733,62.8468
196.2428,44.4459
214.6437,39.5154
Z" /> 
<path style="fill:none; 
stroke:#000000; stroke-width:0.1200; stroke-opacity:1; 
stroke-linecap:round; stroke-linejoin:round;fill:none"
d="M 123.0122,44.4459
118.0817,62.8468
99.6808,57.9163
104.6113,39.5154
Z" /> 
<path style="fill:none; 
stroke:#000000; stroke-width:0.1200; stroke-opacity:1; 
stroke-linecap:round; stroke-linejoin:round;fill:none"
d="M 214.6437,39.5154
196.2428,44.4459
191.3123,26.0450
209.7132,21.1145
Z" /> 
<path style="fill:none; 
stroke:#000000; stroke-width:0.1200; stroke-opacity:1; 
stroke-linecap:round; stroke-linejoin:round;fill:none"
d="M 272.3116,33.9243
253.9107,38.8548
248.9802,20.4539
267.3811,15.5234
Z" /> 
<path style="fill:none; 
stroke:#000000; stroke-width:0.1200; stroke-opacity:1; 
stroke-linecap:round; stroke-linejoin:round;fill:none"
d="M 118.0817,62.8468
113.1512,81.2477
94.7503,76.3172
99.6808,57.9163
Z" /> 
<path style="fill:none; 
stroke:#000000; stroke-width:0.1200; stroke-opacity:1; 
stroke-linecap:round; stroke-linejoin:round;fill:none"
d="M 135.2499,72.3775
130.3194,90.7784
111.9186,85.8479
116.8491,67.4470
Z" /> 
<path style="fill:none; 
stroke:#000000; stroke-width:0.1200; stroke-opacity:1; 
stroke-linecap:round; stroke-linejoin:round;fill:none"
d="M 59.5114,42.2224
54.5809,60.6233
36.1800,55.6928
41.1105,37.2919
Z" /> 
<path style="fill:none; 
stroke:#000000; stroke-width:0.1200; stroke-opacity:1; 
stroke-linecap:round; stroke-linejoin:round;fill:none"
d="M 306.4064,69.1632
288.0055,74.0937
283.0750,55.6928
301.4758,50.7623
Z" /> 
<path style="fill:none; 
stroke:#000000; stroke-width:0.1200; stroke-opacity:1; 
stroke-linecap:round; stroke-linejoin:round;fill:none"
d="M 257.6086,52.6555
239.2077,57.5860
234.2772,39.1851
252.6781,34.2546
Z" /> 
<path style="fill:none; 
stroke:#000000; stroke-width:0.1200; stroke-opacity:1; 
stroke-linecap:round; stroke-linejoin:round;fill:none"
d="M 283.0750,55.6928
264.6741,60.6233
259.7436,42.2224
278.1445,37.2919
Z" /> 
<path style="fill:none; 
stroke:#000000; stroke-width:0.1200; stroke-opacity:1; 
stroke-linecap:round; stroke-linejoin:round;fill:none"
d="M 290.8010,102.9277
272.4001,107.8582
267.4696,89.4573
285.8705,84.5268
Z" /> 
<path style="fill:none; 
stroke:#000000; stroke-width:0.1200; stroke-opacity:1; 
stroke-linecap:round; stroke-linejoin:round;fill:none"
d="M 84.9778,39.1851
80.0473,57.5860
61.6464,52.6555
66.5769,34.2546
Z" /> 
<path style="fill:none; 
stroke:#000000; stroke-width:0.1200; stroke-opacity:1; 
stroke-linecap:round; stroke-linejoin:round;fill:none"
d="M 145.1110,35.5757
140.1805,53.9766
121.7796,49.0461
126.7101,30.6452
Z" /> 
<path style="fill:none; 
stroke:#000000; stroke-width:0.1200; stroke-opacity:1; 
stroke-linecap:round; stroke-linejoin:round;fill:none"
d="M 218.2930,105.4871
201.0279,113.5380
192.9770,96.2729
210.2421,88.2220
Z" /> 
<path style="fill:none; 
stroke:#000000; stroke-width:0.1200; stroke-opacity:1; 
stroke-linecap:round; stroke-linejoin:round;fill:none"
d="M 102.7181,85.8826
97.7876,104.2835
79.3867,99.3530
84.3172,80.9521
Z" /> 
<path style="fill:none; 
stroke:#000000; stroke-width:0.1200; stroke-opacity:1; 
stroke-linecap:round; stroke-linejoin:round;fill:none"
d="M 51.7854,89.4573
46.8549,107.8582
28.4540,102.9277
33.3845,84.5268
Z" /> 
<path style="fill:none; 
stroke:#000000; stroke-width:0.1200; stroke-opacity:1; 
stroke-linecap:round; stroke-linejoin:round;fill:none"
d="M 252.6781,34.2546
234.2772,39.1851
229.3467,20.7842
247.7476,15.8537
Z" /> 
<path style="fill:none; 
stroke:#000000; stroke-width:0.1200; stroke-opacity:1; 
stroke-linecap:round; stroke-linejoin:round;fill:none"
d="M 41.1105,37.2919
36.1800,55.6928
17.7792,50.7623
22.7097,32.3614
Z" /> 
<path style="fill:none; 
stroke:#000000; stroke-width:0.1200; stroke-opacity:1; 
stroke-linecap:round; stroke-linejoin:round;fill:none"
d="M 80.0473,57.5860
75.1168,75.9869
56.7159,71.0564
61.6464,52.6555
Z" /> 
<path style="fill:none; 
stroke:#000000; stroke-width:0.1200; stroke-opacity:1; 
stroke-linecap:round; stroke-linejoin:round;fill:none"
d="M 100.9134,53.3161
95.9829,71.7169
77.5820,66.7864
82.5125,48.3856
Z" /> 
<path style="fill:none; 
stroke:#000000; stroke-width:0.1200; stroke-opacity:1; 
stroke-linecap:round; stroke-linejoin:round;fill:none"
d="M 309.2019,97.9971
290.8010,102.9277
285.8705,84.5268
304.2714,79.5963
Z" /> 
<path style="fill:none; 
stroke:#000000; stroke-width:0.1200; stroke-opacity:1; 
stroke-linecap:round; stroke-linejoin:round;fill:none"
d="M 241.6730,66.7864
223.2721,71.7169
218.3416,53.3161
236.7425,48.3856
Z" /> 
<path style="fill:none; 
stroke:#000000; stroke-width:0.1200; stroke-opacity:1; 
stroke-linecap:round; stroke-linejoin:round;fill:none"
d="M 140.1805,53.9766
135.2499,72.3775
116.8491,67.4470
121.7796,49.0461
Z" /> 
<path style="fill:none; 
stroke:#000000; stroke-width:0.1200; stroke-opacity:1; 
stroke-linecap:round; stroke-linejoin:round;fill:none"
d="M 224.5047,76.3172
206.1038,81.2477
201.1733,62.8468
219.5742,57.9163
Z" /> 
<path style="fill:none; 
stroke:#000000; stroke-width:0.1200; stroke-opacity:1; 
stroke-linecap:round; stroke-linejoin:round;fill:none"
d="M 89.9083,20.7842
84.9778,39.1851
66.5769,34.2546
71.5074,15.8537
Z" /> 
<path style="fill:none; 
stroke:#000000; stroke-width:0.1200; stroke-opacity:1; 
stroke-linecap:round; stroke-linejoin:round;fill:none"
d="M 70.2748,20.4539
65.3443,38.8548
46.9434,33.9243
51.8739,15.5234
Z" /> 
<path style="fill:none; 
stroke:#000000; stroke-width:0.1200; stroke-opacity:1; 
stroke-linecap:round; stroke-linejoin:round;fill:none"
d="M 36.1800,55.6928
31.2495,74.0937
12.8486,69.1632
17.7792,50.7623
Z" /> 
<path style="fill:none; 
stroke:#000000; stroke-width:0.1200; stroke-opacity:1; 
stroke-linecap:round; stroke-linejoin:round;fill:none"
d="M 148.0091,112.9210
135.7640,127.5141
121.1709,115.2690
133.4160,100.6759
Z" /> 
<path style="fill:none; 
stroke:#000000; stroke-width:0.1200; stroke-opacity:1; 
stroke-linecap:round; stroke-linejoin:round;fill:none"
d="M 33.3845,84.5268
28.4540,102.9277
10.0531,97.9971
14.9836,79.5963
Z" /> 
<path style="fill:none; 
stroke:#000000; stroke-width:0.1200; stroke-opacity:1; 
stroke-linecap:round; stroke-linejoin:round;fill:none"
d="M 239.8683,99.3530
221.4674,104.2835
216.5369,85.8826
234.9378,80.9521
Z" /> 
<path style="fill:none; 
stroke:#000000; stroke-width:0.1200; stroke-opacity:1; 
stroke-linecap:round; stroke-linejoin:round;fill:none"
d="M 301.4758,50.7623
283.0750,55.6928
278.1445,37.2919
296.5453,32.3614
Z" /> 
<path style="fill:none; 
stroke:#000000; stroke-width:0.1200; stroke-opacity:1; 
stroke-linecap:round; stroke-linejoin:round;fill:none"
d="M 105.8439,34.9152
100.9134,53.3161
82.5125,48.3856
87.4430,29.9847
Z" /> 
<path style="fill:none; 
stroke:#000000; stroke-width:0.1200; stroke-opacity:1; 
stroke-linecap:round; stroke-linejoin:round;fill:none"
d="M 54.5809,60.6233
49.6504,79.0242
31.2495,74.0937
36.1800,55.6928
Z" /> 
<path style="fill:none; 
stroke:#000000; stroke-width:0.1200; stroke-opacity:1; 
stroke-linecap:round; stroke-linejoin:round;fill:none"
d="M 207.3364,85.8479
188.9356,90.7784
184.0051,72.3775
202.4059,67.4470
Z" /> 
<path style="fill:none; 
stroke:#000000; stroke-width:0.1200; stroke-opacity:1; 
stroke-linecap:round; stroke-linejoin:round;fill:none"
d="M 288.0055,74.0937
269.6046,79.0242
264.6741,60.6233
283.0750,55.6928
Z" /> 
<path style="fill:none; 
stroke:#000000; stroke-width:0.1200; stroke-opacity:1; 
stroke-linecap:round; stroke-linejoin:round;fill:none"
d="M 202.4059,67.4470
184.0051,72.3775
179.0745,53.9766
197.4754,49.0461
Z" /> 
<path style="fill:none; 
stroke:#000000; stroke-width:0.1200; stroke-opacity:1; 
stroke-linecap:round; stroke-linejoin:round;fill:none"
d="M 126.2780,96.2729
118.2271,113.5380
100.9620,105.4871
109.0129,88.2220
Z" /> 
<path style="fill:none; 
stroke:#000000; stroke-width:0.1200; stroke-opacity:1; 
stroke-linecap:round; stroke-linejoin:round;fill:none"
d="M 290.7125,28.9938
272.3116,33.9243
267.3811,15.5234
285.7820,10.5929
Z" /> 
<path style="fill:none; 
stroke:#000000; stroke-width:0.1200; stroke-opacity:1; 
stroke-linecap:round; stroke-linejoin:round;fill:none"
d="M 198.0841,115.2690
183.4910,127.5141
171.2459,112.9210
185.8390,100.6759
Z" /> 
<path style="fill:none; 
stroke:#000000; stroke-width:0.1200; stroke-opacity:1; 
stroke-linecap:round; stroke-linejoin:round;fill:none"
d="M 236.7425,48.3856
218.3416,53.3161
213.4111,34.9152
231.8120,29.9847
Z" /> 
<path style="fill:none; 
stroke:#000000; stroke-width:0.1200; stroke-opacity:1; 
stroke-linecap:round; stroke-linejoin:round;fill:none"
d="M 197.4754,49.0461
179.0745,53.9766
174.1440,35.5757
192.5449,30.6452
Z" /> 
<path style="fill:none; 
stroke:#000000; stroke-width:0.0500; stroke-opacity:1; 
stroke-linecap:round; stroke-linejoin:round;fill:none"
d="M 298.7350,7.7250
317.9050,102.0750
266.6050,116.6050
248.9350,110.3150
221.9750,114.2150
184.2350,132.7850
164.4650,128.5850
152.4850,128.5850
130.3250,132.4850
97.3750,114.5150
66.5950,109.8650
45.3350,115.5550
0.0250,102.8350
19.2750,11.6150
42.5550,2.1850
154.8350,18.9950
165.7150,18.6950
279.9950,0.0250
Z" /> 
</g> 
</svg>
