<?xml version="1.0" standalone="no"?>
 <!DOCTYPE svg PUBLIC "-//W3C//DTD SVG 1.1//EN" 
 "http://www.w3.org/Graphics/SVG/1.1/DTD/svg11.dtd"> 
<svg
  xmlns:svg="http://www.w3.org/2000/svg"
  xmlns="http://www.w3.org/2000/svg"
  xmlns:xlink="http://www.w3.org/1999/xlink"
  version="1.1"
  width="356.7684mm" height="151.7904mm" viewBox="0.0000 0.0000 356.7684 151.7904">
<title>SVG Image created as plates-brd.svg date 2025/05/04 01:49:21 </title>
  <desc>Image generated by PCBNEW </desc>
<g style="fill:#000000; fill-opacity:1.0000;stroke:#000000; stroke-opacity:1.0000;
stroke-linecap:round; stroke-linejoin:round;"
 transform="translate(0 0) scale(1 1)">
</g>
<g style="fill:none; 
stroke:#000000; stroke-width:0.0500; stroke-opacity:1; 
stroke-linecap:round; stroke-linejoin:round;">
<path d="M305.4517 18.7498 A1.6000 1.6000 0.0 0 0 303.4921 17.6185" />
<path d="M212.9088 104.3344
L219.6073 118.6994
" />
<path d="M314.2554 39.3870
L297.4001 43.9033
" />
<path d="M320.7314 57.3737
L316.2150 40.5183
" />
<path d="M307.2611 80.7051
L324.1165 76.1888
" />
<path d="M325.2479 74.2292
L320.7314 57.3737
" />
<path d="M252.6479 87.9777
L237.3380 92.0799
" />
<path d="M265.4577 22.8793
L250.1478 26.9815
" />
<path d="M242.2685 110.4808
L257.5784 106.3786
" />
<path d="M236.8724 110.6485
L230.1739 96.2835
" />
<path d="M290.4057 85.2215
L307.2611 80.7051
" />
<path d="M279.4133 50.3793
L283.9297 67.2347
" />
<path d="M274.7118 45.0521
L291.5672 40.5357
" />
<path d="M203.8689 108.3158
L191.7272 118.5040
" />
<path d="M221.7336 119.4733
L236.0985 112.7747
" />
<path d="M264.9393 82.1842
L280.2492 78.0820
" />
<path d="M236.2066 94.0395
L240.3089 109.3495
" />
<path d="M303.4921 17.6185
L286.6367 22.1348
" />
<path d="M287.1393 97.6142
L291.2416 112.9242
" />
<path d="M216.3112 120.6548
L206.1231 108.5130
" />
<path d="M310.0566 109.5391
L326.9120 105.0227
" />
<path d="M191.5300 120.7581
L201.7181 132.8999
" />
<path d="M293.2012 114.0555
L310.0566 109.5391
" />
<path d="M258.7098 104.4190
L254.6075 89.1090
" />
<path d="M321.9815 86.6219
L305.1261 91.1382
" />
<path d="M203.9723 133.0971
L216.1140 122.9089
" />
<path d="M228.0476 95.5096
L213.6827 102.2082
" />
<path d="M283.9297 67.2347
L288.4461 84.0902
" />
<path d="M297.4001 43.9033
L280.5447 48.4197
" />
<path d="M244.5916 18.6094
L229.2817 22.7116
" />
<path d="M244.0732 77.9142
L259.3831 73.8120
" />
<path d="M328.0434 103.0631
L323.9411 87.7532
" />
<path d="M309.5540 34.0598
L305.4517 18.7498
" />
<path d="M210.2550 37.6708
L194.9451 41.7730
" />
<path d="M193.8137 43.7326
L198.3301 60.5880
" />
<path d="M291.5672 40.5357
L308.4226 36.0194
" />
<path d="M286.6367 22.1348
L269.7813 26.6512
" />
<path d="M198.3301 60.5880
L203.2607 78.9889
" />
<path d="M305.1261 91.1382
L288.2707 95.6546
" />
<path d="M203.2607 78.9889
L207.7771 95.8444
" />
<path d="M198.4004 23.6949 A4.9998 4.9998 0.0 0 0 201.3797 22.7105" />
<path d="M58.1332 3.5681
L65.5378 0.6344
" />
<path d="M284.0098 130.9758
L260.4231 126.0747
" />
<path d="M103.8368,126.9148 C100.7355,125.3698 97.3431,126.0747 97.3431,126.0747" />
<path d="M38.2277,13.6254 C38.8783,11.1971 41.2155,10.2711 41.2155,10.2711" />
<path d="M41.2155 10.2711
L58.1332 3.5681
" />
<path d="M260.4231 126.0747 A10.0002 10.0002 0.0 0 0 253.9294 126.9148" />
<path d="M143.5605,13.1944 C149.9735,17.9524 156.3865,22.7105 156.3865,22.7105" />
<path d="M73.7564,130.9758 C71.2596,131.4947 68.8192,130.7544 68.8192,130.7544" />
<path d="M65.5378,0.6344 C67.0758,0.0250 68.6737,0.4532 68.6737,0.4532" />
<path d="M334.3405 116.9850
L288.9470 130.7544
" />
<path d="M68.6737,0.4532 C82.8368,4.2481 96.9999,8.0431 96.9999,8.0431" />
<path d="M68.8192,130.7544 C46.1225,123.8697 23.4257,116.9850 23.4257,116.9850" />
<path d="M156.1070,151.7833 C153.7539,151.7833 151.6478,150.7340 151.6478,150.7340" />
<path d="M253.9294 126.9148
L206.1184 150.7340
" />
<path d="M178.8831 151.7833
L156.1070 151.7833
" />
<path d="M330.7064 31.8333
L356.3711 93.5734
" />
<path d="M250.3815 4.3896 A5.0000 5.0000 0.0 0 0 246.9203 4.0659" />
<path d="M35.4087,24.1459 C36.8182,18.8857 38.2277,13.6254 38.2277,13.6254" />
<path d="M319.5385 13.6254
L322.3575 24.1459
" />
<path d="M33.0686,27.1880 C34.8708,26.1533 35.4087,24.1459 35.4087,24.1459" />
<path d="M250.3815 4.3896
L257.3051 7.7194
" />
<path d="M257.3051 7.7195 A5.0000 5.0000 0.0 0 0 260.7663 8.0431" />
<path d="M27.0598,31.8333 C27.7125,30.2630 29.1873,29.4164 29.1873,29.4164" />
<path d="M97.3431,126.0747 C85.5498,128.5253 73.7564,130.9758 73.7564,130.9758" />
<path d="M292.2284 0.6343
L299.6330 3.5681
" />
<path d="M151.6478,150.7340 C127.7423,138.8244 103.8368,126.9148 103.8368,126.9148" />
<path d="M299.6330 3.5681
L316.5506 10.2711
" />
<path d="M100.4611,7.7194 C103.9229,6.0545 107.3847,4.3896 107.3847,4.3896" />
<path d="M334.3405 116.9851 A5.0001 5.0001 0.0 0 0 336.2042 115.9434" />
<path d="M215.8908 12.3802
L246.9203 4.0659
" />
<path d="M201.3797 22.7105
L214.2057 13.1944
" />
<path d="M215.8908 12.3802 A5.0002 5.0002 0.0 0 0 214.2057 13.1944" />
<path d="M29.1873,29.4164 C31.1279,28.3022 33.0686,27.1880 33.0686,27.1880" />
<path d="M23.4257,116.9850 C22.3801,116.6679 21.5620,115.9434 21.5620,115.9434" />
<path d="M201.6592 151.7833
L178.8831 151.7833
" />
<path d="M1.3951,93.5734 C14.2274,62.7034 27.0598,31.8333 27.0598,31.8333" />
<path d="M130.8613 87.4450
L115.5514 83.3428
" />
<path d="M260.7663 8.0431
L289.0925 0.4532
" />
<path d="M2.6970,99.2357 C0.0250,96.8693 1.3951,93.5734 1.3951,93.5734" />
<path d="M284.0098 130.9758 A10.0000 10.0000 0.0 0 0 288.9470 130.7544" />
<path d="M319.5385 13.6254 A4.9999 4.9999 0.0 0 0 316.5506 10.2711" />
<path d="M330.7064 31.8333 A5.0000 5.0000 0.0 0 0 328.5789 29.4164" />
<path d="M21.5620,115.9434 C12.1295,107.5896 2.6970,99.2357 2.6970,99.2357" />
<path d="M355.0692 99.2357
L336.2042 115.9434
" />
<path d="M322.3575 24.1459 A5.0000 5.0000 0.0 0 0 324.6976 27.1880" />
<path d="M324.6976 27.1880
L328.5789 29.4164
" />
<path d="M355.0692 99.2357 A5.0001 5.0001 0.0 0 0 356.3711 93.5734" />
<path d="M201.6592 151.7833 A10.0000 10.0000 0.0 0 0 206.1184 150.7340" />
<path d="M292.2284 0.6343 A4.9998 4.9998 0.0 0 0 289.0925 0.4532" />
<path d="M96.9999,8.0431 C98.7905,8.5229 100.4611,7.7194 100.4611,7.7194" />
<path d="M107.3847,4.3896 C109.0553,3.5861 110.8459,4.0659 110.8459,4.0659" />
<path d="M110.8459,4.0659 C126.3606,8.2231 141.8754,12.3802 141.8754,12.3802" />
<path d="M141.8754,12.3802 C142.7955,12.6268 143.5605,13.1944 143.5605,13.1944" />
<path d="M144.8574 104.3344
L138.1589 118.6994
" />
<path d="M120.8938 110.6485
L127.5923 96.2835
" />
<path d="M129.7186 95.5096
L144.0835 102.2082
" />
<path d="M156.3865,22.7105 C157.7135,23.6950 159.3658,23.6950 159.3658,23.6950" />
<path d="M136.0326 119.4733
L121.6677 112.7747
" />
<path d="M121.5596 94.0395
L117.4573 109.3495
" />
<path d="M105.1183 87.9777
L120.4282 92.0799
" />
<path d="M66.1990 40.5357
L49.3436 36.0194
" />
<path d="M159.4361 60.5880
L154.5055 78.9889
" />
<path d="M92.8269 82.1842
L77.5170 78.0820
" />
<path d="M76.3856 76.1224
L80.9020 59.2669
" />
<path d="M67.3605 85.2215
L50.5051 80.7051
" />
<path d="M32.5183 74.2292
L37.0348 57.3737
" />
<path d="M60.3661 43.9033
L77.2215 48.4197
" />
<path d="M153.8973 108.3158
L166.0390 118.5040
" />
<path d="M54.2741 17.6185
L71.1295 22.1348
" />
<path d="M154.5055 78.9889
L149.9891 95.8444
" />
<path d="M99.0564 104.4190
L103.1587 89.1090
" />
<path d="M73.8365 67.2347
L69.3201 84.0902
" />
<path d="M50.5051 80.7051
L33.6497 76.1888
" />
<path d="M64.5650 114.0555
L47.7096 109.5391
" />
<path d="M113.6930 77.9142
L98.3831 73.8120
" />
<path d="M70.6269 97.6142
L66.5246 112.9242
" />
<path d="M113.1746 18.6094
L128.4845 22.7116
" />
<path d="M166.2362 120.7581
L156.0481 132.8999
" />
<path d="M47.7096 109.5391
L30.8542 105.0227
" />
<path d="M29.7228 103.0631
L33.8251 87.7532
" />
<path d="M52.6401 91.1382
L69.4955 95.6546
" />
<path d="M141.4550 120.6548
L151.6431 108.5130
" />
<path d="M37.0348 57.3737
L41.5512 40.5183
" />
<path d="M147.5112 37.6708
L162.8211 41.7730
" />
<path d="M83.0544 45.0521
L66.1990 40.5357
" />
<path d="M35.7847 86.6219
L52.6401 91.1382
" />
<path d="M78.3529 50.3793
L73.8365 67.2347
" />
<path d="M153.7939 133.0971
L141.6522 122.9089
" />
<path d="M43.5108 39.3870
L60.3661 43.9033
" />
<path d="M48.2122 34.0598
L52.3145 18.7498
" />
<path d="M115.4977 110.4808
L100.1878 106.3786
" />
<path d="M71.1295 22.1348
L87.9849 26.6512
" />
<path d="M92.3085 22.8793
L107.6184 26.9815
" />
<path d="M148.0295 96.9757
L132.7197 92.8735
" />
<path d="M163.9525 43.7326
L159.4361 60.5880
" />
<path d="M130.3429 28.1401
L145.6528 32.2423
" />
<path d="M89.9445 25.5199
L90.3489 24.0106
" />
<path d="M273.5804 47.0117
L276.8642 59.2669
" />
<path d="M84.1858 47.0117
L80.9020 59.2669
" />
<path d="M210.9820 34.2019
L211.3864 35.7112
" />
<path d="M228.1503 24.6712
L228.5547 26.1805
" />
<path d="M146.7842 34.2019
L146.3798 35.7112
" />
<path d="M225.7735 89.4046
L226.1779 90.9139
" />
<path d="M129.6159 24.6712
L129.2115 26.1805
" />
<path d="M267.4173 24.0106
L267.8217 25.5199
" />
<path d="M242.9418 79.8738
L243.7603 82.9287
" />
<path d="M131.9927 89.4046
L131.5883 90.9139
" />
<path d="M246.5512 19.7407
L248.1882 25.8502
" />
<path d="M96.4235 74.9433
L94.7865 81.0528
" />
<path d="M111.2150 19.7407
L109.5780 25.8502
" />
<path d="M114.8244 79.8738
L114.4200 81.3832
" />
<path d="M261.3427 74.9433
L262.9797 81.0529
" />
<path d="M308.4226 36.0193 A1.5999 1.5999 0.0 0 0 309.5540 34.0598" />
<path d="M226.9049 87.4450
L243.7603 82.9286
" />
<path d="M227.4233 28.1401
L212.1134 32.2423
" />
<path d="M209.7367 96.9757
L225.0465 92.8735
" />
<path d="M281.3806 76.1224
L276.8642 59.2669
" />
<path d="M213.6827 102.2082 A1.6000 1.6000 0.0 0 0 212.9088 104.3344" />
<path d="M236.0985 112.7748 A1.6001 1.6001 0.0 0 0 236.8724 110.6485" />
<path d="M206.1231 108.5130 A1.6000 1.6000 0.0 0 0 203.8689 108.3158" />
<path d="M248.1882 25.8502 A1.5999 1.5999 0.0 0 0 250.1478 26.9815" />
<path d="M257.5784 106.3785 A1.5999 1.5999 0.0 0 0 258.7098 104.4190" />
<path d="M267.4173 24.0106 A1.6000 1.6000 0.0 0 0 265.4577 22.8793" />
<path d="M246.5512 19.7407 A1.6000 1.6000 0.0 0 0 244.5916 18.6094" />
<path d="M201.7182 132.8999 A1.6000 1.6000 0.0 0 0 203.9723 133.0971" />
<path d="M254.6075 89.1090 A1.6000 1.6000 0.0 0 0 252.6479 87.9777" />
<path d="M210.2550 37.6707 A1.5999 1.5999 0.0 0 0 211.3864 35.7112" />
<path d="M267.8217 25.5199 A1.5999 1.5999 0.0 0 0 269.7813 26.6512" />
<path d="M229.2817 22.7116 A1.6000 1.6000 0.0 0 0 228.1503 24.6712" />
<path d="M194.9451 41.7731 A1.5999 1.5999 0.0 0 0 193.8137 43.7326" />
<path d="M237.3380 92.0800 A1.5999 1.5999 0.0 0 0 236.2066 94.0395" />
<path d="M219.6073 118.6994 A1.6001 1.6001 0.0 0 0 221.7336 119.4733" />
<path d="M240.3089 109.3495 A1.5999 1.5999 0.0 0 0 242.2685 110.4808" />
<path d="M227.4233 28.1400 A1.5999 1.5999 0.0 0 0 228.5547 26.1805" />
<path d="M212.1134 32.2423 A1.6000 1.6000 0.0 0 0 210.9820 34.2019" />
<path d="M230.1739 96.2835 A1.5999 1.5999 0.0 0 0 228.0476 95.5096" />
<path d="M216.1140 122.9089 A1.6001 1.6001 0.0 0 0 216.3112 120.6548" />
<path d="M191.7272 118.5040 A1.5999 1.5999 0.0 0 0 191.5300 120.7581" />
<path d="M326.9120 105.0227 A1.6000 1.6000 0.0 0 0 328.0434 103.0631" />
<path d="M226.9049 87.4450 A1.6000 1.6000 0.0 0 0 225.7735 89.4046" />
<path d="M225.0465 92.8734 A1.5999 1.5999 0.0 0 0 226.1779 90.9139" />
<path d="M291.2416 112.9242 A1.5999 1.5999 0.0 0 0 293.2012 114.0555" />
<path d="M323.9411 87.7532 A1.6000 1.6000 0.0 0 0 321.9815 86.6219" />
<path d="M316.2150 40.5183 A1.6000 1.6000 0.0 0 0 314.2554 39.3870" />
<path d="M280.2492 78.0819 A1.5999 1.5999 0.0 0 0 281.3806 76.1224" />
<path d="M207.7771 95.8444 A1.5999 1.5999 0.0 0 0 209.7367 96.9757" />
<path d="M261.3427 74.9433 A1.6000 1.6000 0.0 0 0 259.3831 73.8120" />
<path d="M274.7118 45.0522 A1.5999 1.5999 0.0 0 0 273.5804 47.0117" />
<path d="M262.9797 81.0529 A1.5999 1.5999 0.0 0 0 264.9393 82.1842" />
<path d="M244.0732 77.9143 A1.6000 1.6000 0.0 0 0 242.9418 79.8738" />
<path d="M288.2707 95.6547 A1.5999 1.5999 0.0 0 0 287.1393 97.6142" />
<path d="M288.4461 84.0902 A1.5999 1.5999 0.0 0 0 290.4057 85.2215" />
<path d="M324.1165 76.1888 A1.6000 1.6000 0.0 0 0 325.2479 74.2292" />
<path d="M114.4199 81.3832 A1.6000 1.6000 0.0 0 0 115.5514 83.3428" />
<path d="M76.3856 76.1224 A1.6001 1.6001 0.0 0 0 77.5170 78.0820" />
<path d="M78.3529 50.3793 A1.6000 1.6000 0.0 0 0 77.2215 48.4197" />
<path d="M129.6159 24.6712 A1.6000 1.6000 0.0 0 0 128.4845 22.7116" />
<path d="M92.3085 22.8793 A1.6000 1.6000 0.0 0 0 90.3489 24.0106" />
<path d="M107.6184 26.9816 A1.6001 1.6001 0.0 0 0 109.5780 25.8502" />
<path d="M280.5447 48.4198 A1.5999 1.5999 0.0 0 0 279.4133 50.3793" />
<path d="M114.8244 79.8738 A1.6000 1.6000 0.0 0 0 113.6930 77.9142" />
<path d="M131.9927 89.4046 A1.6000 1.6000 0.0 0 0 130.8613 87.4450" />
<path d="M113.1746 18.6094 A1.6000 1.6000 0.0 0 0 111.2150 19.7407" />
<path d="M163.9525 43.7326 A1.6000 1.6000 0.0 0 0 162.8211 41.7730" />
<path d="M129.2115 26.1805 A1.5999 1.5999 0.0 0 0 130.3429 28.1401" />
<path d="M92.8269 82.1842 A1.6001 1.6001 0.0 0 0 94.7865 81.0528" />
<path d="M131.5883 90.9139 A1.5999 1.5999 0.0 0 0 132.7197 92.8735" />
<path d="M84.1858 47.0117 A1.6000 1.6000 0.0 0 0 83.0544 45.0521" />
<path d="M87.9849 26.6512 A1.6001 1.6001 0.0 0 0 89.9445 25.5199" />
<path d="M48.2122 34.0598 A1.6001 1.6001 0.0 0 0 49.3436 36.0194" />
<path d="M146.7842 34.2019 A1.6000 1.6000 0.0 0 0 145.6528 32.2423" />
<path d="M146.3798 35.7112 A1.5999 1.5999 0.0 0 0 147.5112 37.6708" />
<path d="M98.3831 73.8120 A1.6000 1.6000 0.0 0 0 96.4235 74.9433" />
<path d="M54.2741 17.6185 A1.6000 1.6000 0.0 0 0 52.3145 18.7498" />
<path d="M148.0295 96.9758 A1.6001 1.6001 0.0 0 0 149.9891 95.8444" />
<path d="M67.3605 85.2215 A1.6001 1.6001 0.0 0 0 69.3201 84.0902" />
<path d="M43.5108 39.3870 A1.6000 1.6000 0.0 0 0 41.5512 40.5183" />
<path d="M32.5183 74.2292 A1.6000 1.6000 0.0 0 0 33.6497 76.1888" />
<path d="M64.5650 114.0555 A1.6001 1.6001 0.0 0 0 66.5246 112.9242" />
<path d="M166.2362 120.7581 A1.6001 1.6001 0.0 0 0 166.0390 118.5040" />
<path d="M70.6269 97.6142 A1.6000 1.6000 0.0 0 0 69.4955 95.6546" />
<path d="M129.7186 95.5097 A1.5999 1.5999 0.0 0 0 127.5923 96.2835" />
<path d="M105.1183 87.9777 A1.6000 1.6000 0.0 0 0 103.1587 89.1090" />
<path d="M136.0326 119.4733 A1.6001 1.6001 0.0 0 0 138.1589 118.6994" />
<path d="M29.7228 103.0631 A1.6001 1.6001 0.0 0 0 30.8542 105.0227" />
<path d="M121.5596 94.0395 A1.6000 1.6000 0.0 0 0 120.4282 92.0799" />
<path d="M153.7939 133.0971 A1.6001 1.6001 0.0 0 0 156.0481 132.8999" />
<path d="M153.8973 108.3158 A1.6000 1.6000 0.0 0 0 151.6431 108.5130" />
<path d="M120.8938 110.6485 A1.5999 1.5999 0.0 0 0 121.6677 112.7747" />
<path d="M99.0565 104.4190 A1.6001 1.6001 0.0 0 0 100.1878 106.3786" />
<path d="M35.7847 86.6219 A1.6000 1.6000 0.0 0 0 33.8251 87.7532" />
<path d="M144.8574 104.3344 A1.6000 1.6000 0.0 0 0 144.0835 102.2082" />
<path d="M115.4977 110.4809 A1.6001 1.6001 0.0 0 0 117.4573 109.3495" />
<path d="M141.4550 120.6548 A1.5999 1.5999 0.0 0 0 141.6522 122.9089" />
<path d="M173.5636 27.1501
L173.5636 25.2950
" />
<path d="M165.8811 102.7943
L165.8811 61.6386
" />
<path d="M191.8811 61.6386
L191.8811 102.7943
" />
<path d="M190.2811 104.3943
L167.4811 104.3943
" />
<path d="M190.2811 104.3943 A1.6001 1.6001 0.0 0 0 191.8811 102.7943" />
<path d="M159.3658 23.6950
L171.9636 23.6950
" />
<path d="M184.1986 25.2950
L184.1986 27.1501
" />
<path d="M185.7986 23.6950 A1.5999 1.5999 0.0 0 0 184.1986 25.2950" />
<path d="M165.8811 102.7943 A1.6000 1.6000 0.0 0 0 167.4811 104.3943" />
<path d="M185.7986 23.6950
L198.4004 23.6950
" />
<path d="M173.5636 25.2950 A1.6001 1.6001 0.0 0 0 171.9636 23.6950" />
<circle cx="109.7036" cy="9.4543" r="2.1500" /> 
<circle cx="155.3136" cy="146.1743" r="2.1500" /> 
<circle cx="202.4486" cy="146.1743" r="2.1500" /> 
<circle cx="71.4636" cy="125.6743" r="2.1500" /> 
<circle cx="286.2986" cy="125.6743" r="2.1500" /> 
<circle cx="248.0586" cy="9.4543" r="2.1500" /> 
<circle cx="6.5136" cy="95.3743" r="2.1500" /> 
<circle cx="155.5836" cy="28.5743" r="2.1500" /> 
<circle cx="314.2686" cy="15.2443" r="2.1500" /> 
<circle cx="351.2486" cy="95.3743" r="2.1500" /> 
<path d="M215.8908 12.3802
L246.9203 4.0659
" />
<path d="M355.0692 99.2357
L336.2042 115.9434
" />
<path d="M141.8754,12.3802 C142.7955,12.6268 143.5605,13.1944 143.5605,13.1944" />
<path d="M23.4257,116.9850 C22.3801,116.6679 21.5620,115.9434 21.5620,115.9434" />
<path d="M260.7663 8.0431
L289.0925 0.4532
" />
<path d="M33.0686,27.1880 C34.8708,26.1533 35.4087,24.1459 35.4087,24.1459" />
<path d="M29.1873,29.4164 C31.1279,28.3022 33.0686,27.1880 33.0686,27.1880" />
<path d="M284.0098 130.9758 A9.9998 9.9998 0.0 0 0 288.9470 130.7544" />
<path d="M319.5386 13.6254 A5.0001 5.0001 0.0 0 0 316.5506 10.2711" />
<path d="M156.3865,22.7105 C157.7135,23.6950 159.3658,23.6950 159.3658,23.6950" />
<path d="M151.6478,150.7340 C127.7423,138.8244 103.8368,126.9148 103.8368,126.9148" />
<path d="M257.3051 7.7194 A4.9999 4.9999 0.0 0 0 260.7663 8.0431" />
<path d="M58.1332 3.5681
L65.5378 0.6344
" />
<path d="M68.8192,130.7544 C46.1225,123.8697 23.4257,116.9850 23.4257,116.9850" />
<path d="M100.4611,7.7194 C103.9229,6.0545 107.3847,4.3896 107.3847,4.3896" />
<path d="M73.7564,130.9758 C71.2596,131.4947 68.8192,130.7544 68.8192,130.7544" />
<path d="M156.1070,151.7833 C153.7539,151.7833 151.6478,150.7340 151.6478,150.7340" />
<path d="M35.4087,24.1459 C36.8182,18.8857 38.2277,13.6254 38.2277,13.6254" />
<path d="M292.2284 0.6343 A4.9996 4.9996 0.0 0 0 289.0925 0.4532" />
<path d="M284.0098 130.9758
L260.4231 126.0747
" />
<path d="M330.7064 31.8333 A5.0000 5.0000 0.0 0 0 328.5789 29.4164" />
<path d="M260.4231 126.0747 A10.0000 10.0000 0.0 0 0 253.9294 126.9148" />
<path d="M334.3405 116.9850
L288.9470 130.7544
" />
<path d="M96.9999,8.0431 C98.7905,8.5229 100.4611,7.7194 100.4611,7.7194" />
<path d="M1.3951,93.5734 C14.2274,62.7034 27.0598,31.8333 27.0598,31.8333" />
<path d="M201.6592 151.7833 A9.9995 9.9995 0.0 0 0 206.1184 150.7340" />
<path d="M27.0598,31.8333 C27.7125,30.2630 29.1873,29.4164 29.1873,29.4164" />
<path d="M250.3815 4.3896 A5.0000 5.0000 0.0 0 0 246.9203 4.0659" />
<path d="M103.8368,126.9148 C100.7355,125.3698 97.3431,126.0747 97.3431,126.0747" />
<path d="M253.9294 126.9148
L206.1184 150.7340
" />
<path d="M38.2277,13.6254 C38.8783,11.1971 41.2155,10.2711 41.2155,10.2711" />
<path d="M107.3847,4.3896 C109.0553,3.5861 110.8459,4.0659 110.8459,4.0659" />
<circle cx="43.4936" cy="15.2443" r="2.1500" /> 
<path d="M201.3797 22.7105
L214.2057 13.1944
" />
<path d="M2.6970,99.2357 C0.0250,96.8693 1.3951,93.5734 1.3951,93.5734" />
<circle cx="202.1786" cy="28.5743" r="2.1500" /> 
<path d="M292.2284 0.6343
L299.6330 3.5681
" />
<path d="M330.7064 31.8333
L356.3711 93.5734
" />
<path d="M201.6592 151.7833
L178.8831 151.7833
" />
<path d="M143.5605,13.1944 C149.9735,17.9524 156.3865,22.7105 156.3865,22.7105" />
<path d="M322.3574 24.1460 A5.0000 5.0000 0.0 0 0 324.6976 27.1880" />
<path d="M355.0692 99.2358 A4.9999 4.9999 0.0 0 0 356.3711 93.5734" />
<path d="M334.3405 116.9851 A4.9999 4.9999 0.0 0 0 336.2042 115.9434" />
<path d="M65.5378,0.6344 C67.0758,0.0250 68.6737,0.4532 68.6737,0.4532" />
<path d="M110.8459,4.0659 C126.3606,8.2231 141.8754,12.3802 141.8754,12.3802" />
<path d="M299.6330 3.5681
L316.5506 10.2711
" />
<path d="M41.2155 10.2711
L58.1332 3.5681
" />
<path d="M21.5620,115.9434 C12.1295,107.5896 2.6970,99.2357 2.6970,99.2357" />
<path d="M250.3815 4.3896
L257.3051 7.7194
" />
<path d="M324.6976 27.1880
L328.5789 29.4164
" />
<path d="M68.6737,0.4532 C82.8368,4.2481 96.9999,8.0431 96.9999,8.0431" />
<path d="M97.3431,126.0747 C85.5498,128.5253 73.7564,130.9758 73.7564,130.9758" />
<path d="M319.5385 13.6254
L322.3575 24.1459
" />
<path d="M215.8908 12.3802 A5.0005 5.0005 0.0 0 0 214.2057 13.1944" />
<path d="M198.4004 23.6950 A4.9996 4.9996 0.0 0 0 201.3797 22.7105" />
<path d="M178.8831 151.7833
L156.1070 151.7833
" />
<path d="M171.7893 38.1525 A35.0000 35.0000 0.0 0 0 173.5636 27.1501" />
<path d="M191.8811 61.6386 A35.0001 35.0001 0.0 0 0 190.1068 50.6362" />
<path d="M184.1986 27.1501 A34.9999 34.9999 0.0 0 0 185.9729 38.1525" />
<path d="M167.6554 50.6362 A34.9999 34.9999 0.0 0 0 165.8811 61.6386" />
<path d="M185.9729 38.1525
L190.1068 50.6362
" />
<path d="M171.7893 38.1525
L167.6554 50.6362
" />
</g> 
</svg>
