<?xml version="1.0" standalone="no"?>
 <!DOCTYPE svg PUBLIC "-//W3C//DTD SVG 1.1//EN" 
 "http://www.w3.org/Graphics/SVG/1.1/DTD/svg11.dtd"> 
<svg
  xmlns:svg="http://www.w3.org/2000/svg"
  xmlns="http://www.w3.org/2000/svg"
  xmlns:xlink="http://www.w3.org/1999/xlink"
  version="1.1"
  width="356.7684mm" height="151.7904mm" viewBox="0.0000 0.0000 356.7684 151.7904">
<title>SVG Image created as plates-brd.svg date 2025/05/04 02:17:45 </title>
  <desc>Image generated by PCBNEW </desc>
<g style="fill:#000000; fill-opacity:1.0000;stroke:#000000; stroke-opacity:1.0000;
stroke-linecap:round; stroke-linejoin:round;"
 transform="translate(0 0) scale(1 1)">
</g>
<g style="fill:none; 
stroke:#000000; stroke-width:0.0500; stroke-opacity:1; 
stroke-linecap:round; stroke-linejoin:round;">
<path d="M310.2314 106.2312
L306.9315 93.9156
" />
<path d="M323.3522 89.5157 A2.1250 2.1250 0.0 0 0 320.7496 88.0131" />
<path d="M308.4341 91.3130
L320.7496 88.0131
" />
<path d="M317.4234 57.1989
L305.1079 60.4989
" />
<path d="M286.4619 25.4428 A2.1250 2.1250 0.0 0 0 283.8593 23.9402" />
<path d="M221.4867 77.3664 A2.1250 2.1250 0.0 0 0 218.8841 75.8638" />
<path d="M206.5686 79.1637
L218.8841 75.8638
" />
<path d="M286.4619 25.4428
L289.7618 37.7584
" />
<path d="M302.5053 58.9963 A2.1250 2.1250 0.0 0 0 305.1079 60.4989" />
<path d="M315.6261 42.2808
L318.9260 54.5964
" />
<path d="M282.3071 49.0086 A2.1250 2.1250 0.0 0 0 280.8045 51.6112" />
<path d="M297.2252 47.2113
L300.5251 59.5269
" />
<path d="M282.3071 49.0086
L294.6226 45.7087
" />
<path d="M284.1044 63.9268
L280.8045 51.6112
" />
<path d="M307.4358 77.3972 A2.1250 2.1250 0.0 0 0 310.0384 78.8998" />
<path d="M302.1557 65.6122 A2.1250 2.1250 0.0 0 0 299.5531 64.1096" />
<path d="M289.0349 82.3277 A2.1250 2.1250 0.0 0 0 291.6375 83.8303" />
<path d="M325.1495 104.4338 A2.1250 2.1250 0.0 0 0 326.6521 101.8313" />
<path d="M300.7080 44.0781 A2.1250 2.1250 0.0 0 0 299.2054 46.6807" />
<path d="M322.3539 75.5998
L310.0384 78.8998
" />
<path d="M305.6385 62.4790
L317.9540 59.1791
" />
<path d="M303.9530 80.5303 A2.1250 2.1250 0.0 0 0 305.4556 77.9278" />
<path d="M322.3539 75.5998 A2.1250 2.1250 0.0 0 0 323.8565 72.9973" />
<path d="M307.4358 77.3972
L304.1359 65.0816
" />
<path d="M273.3411 42.1583
L270.0412 29.8427
" />
<path d="M323.3522 89.5157
L326.6521 101.8313
" />
<path d="M271.5438 27.2401 A2.1250 2.1250 0.0 0 0 270.0412 29.8427" />
<path d="M317.4234 57.1989 A2.1250 2.1250 0.0 0 0 318.9260 54.5964" />
<path d="M156.3865,22.7105 C157.7135,23.6950 159.3658,23.6950 159.3658,23.6950" />
<path d="M143.5605,13.1944 C149.9735,17.9524 156.3865,22.7105 156.3865,22.7105" />
<path d="M107.3847,4.3896 C109.0553,3.5861 110.8459,4.0659 110.8459,4.0659" />
<path d="M96.9999,8.0431 C98.7905,8.5229 100.4611,7.7194 100.4611,7.7194" />
<path d="M65.5378,0.6344 C67.0758,0.0250 68.6737,0.4532 68.6737,0.4532" />
<path d="M38.2277,13.6254 C38.8783,11.1971 41.2155,10.2711 41.2155,10.2711" />
<path d="M68.8192,130.7544 C46.1225,123.8697 23.4257,116.9850 23.4257,116.9850" />
<path d="M41.2155 10.2711
L58.1332 3.5681
" />
<path d="M35.4087,24.1459 C36.8182,18.8857 38.2277,13.6254 38.2277,13.6254" />
<path d="M73.7564,130.9758 C71.2596,131.4947 68.8192,130.7544 68.8192,130.7544" />
<path d="M201.6592 151.7833 A10.0000 10.0000 0.0 0 0 206.1184 150.7340" />
<path d="M284.0098 130.9758
L260.4230 126.0747
" />
<path d="M355.0692 99.2357 A5.0000 5.0000 0.0 0 0 356.3711 93.5734" />
<path d="M292.2283 0.6344
L299.6330 3.5681
" />
<path d="M198.4004 23.6950 A5.0000 5.0000 0.0 0 0 201.3797 22.7105" />
<path d="M21.5620,115.9434 C12.1295,107.5896 2.6970,99.2357 2.6970,99.2357" />
<path d="M319.5385 13.6254
L322.3575 24.1459
" />
<path d="M29.1873,29.4164 C31.1279,28.3022 33.0686,27.1880 33.0686,27.1880" />
<path d="M334.3405 116.9850
L288.9470 130.7544
" />
<path d="M284.0098 130.9758 A10.0000 10.0000 0.0 0 0 288.9470 130.7544" />
<path d="M215.8908 12.3802 A5.0000 5.0000 0.0 0 0 214.2057 13.1944" />
<path d="M330.7064 31.8333
L356.3711 93.5734
" />
<path d="M250.3815 4.3896
L257.3051 7.7194
" />
<path d="M305.6385 62.4790 A2.1250 2.1250 0.0 0 0 304.1359 65.0816" />
<path d="M1.3951,93.5734 C14.2274,62.7034 27.0598,31.8333 27.0598,31.8333" />
<path d="M97.3431,126.0747 C85.5498,128.5253 73.7564,130.9758 73.7564,130.9758" />
<path d="M27.0598,31.8333 C27.7125,30.2630 29.1873,29.4164 29.1873,29.4164" />
<path d="M156.1070,151.7833 C153.7539,151.7833 151.6478,150.7340 151.6478,150.7340" />
<path d="M178.8831 151.7833
L156.1070 151.7833
" />
<path d="M215.8908 12.3802
L246.9203 4.0659
" />
<path d="M201.6592 151.7833
L178.8831 151.7833
" />
<path d="M299.6330 3.5681
L316.5506 10.2711
" />
<path d="M334.3405 116.9850 A5.0000 5.0000 0.0 0 0 336.2042 115.9434" />
<path d="M253.9294 126.9148
L206.1184 150.7340
" />
<path d="M297.2252 47.2113 A2.1250 2.1250 0.0 0 0 294.6226 45.7087" />
<path d="M230.5913 45.9520 A2.1250 2.1250 0.0 0 0 232.0939 43.3495" />
<path d="M230.5913 45.9520
L218.2758 49.2520
" />
<path d="M319.5385 13.6254 A5.0000 5.0000 0.0 0 0 316.5506 10.2711" />
<path d="M255.8233 58.3050 A2.1250 2.1250 0.0 0 0 253.2207 56.8024" />
<path d="M288.2592 40.3609
L275.9437 43.6609
" />
<path d="M257.6206 73.2231 A2.1250 2.1250 0.0 0 0 259.1232 70.6206" />
<path d="M228.7940 31.0339
L232.0939 43.3495
" />
<path d="M228.7940 31.0339 A2.1250 2.1250 0.0 0 0 226.1914 29.5313" />
<path d="M215.6732 47.7494
L212.3733 35.4338
" />
<path d="M235.5218 64.3529
L223.2063 67.6529
" />
<path d="M218.8064 51.2321
L231.1219 47.9322
" />
<path d="M201.6381 60.7628 A2.1250 2.1250 0.0 0 0 200.1355 63.3654" />
<path d="M208.3659 94.0819 A2.1250 2.1250 0.0 0 0 210.9685 95.5845" />
<path d="M216.5562 58.9655 A2.1250 2.1250 0.0 0 0 213.9536 57.4629" />
<path d="M213.4230 55.4827
L201.1075 58.7827
" />
<path d="M225.5342 84.5512
L222.2343 72.2356
" />
<path d="M201.3797 22.7105
L214.2057 13.1944
" />
<path d="M223.2840 92.2845 A2.1250 2.1250 0.0 0 0 224.7866 89.6820" />
<path d="M330.7064 31.8333 A5.0000 5.0000 0.0 0 0 328.5789 29.4164" />
<path d="M198.5049 57.2801 A2.1250 2.1250 0.0 0 0 201.1075 58.7827" />
<path d="M225.5342 84.5512 A2.1250 2.1250 0.0 0 0 228.1368 86.0538" />
<path d="M216.5562 58.9655
L219.8561 71.2811
" />
<path d="M218.3535 73.8836 A2.1250 2.1250 0.0 0 0 219.8561 71.2811" />
<path d="M218.8064 51.2321 A2.1250 2.1250 0.0 0 0 217.3038 53.8347" />
<path d="M206.5686 79.1637 A2.1250 2.1250 0.0 0 0 205.0660 81.7663" />
<path d="M203.4354 75.6810 A2.1250 2.1250 0.0 0 0 206.0380 77.1836" />
<path d="M292.2284 0.6344 A5.0000 5.0000 0.0 0 0 289.0925 0.4532" />
<path d="M240.9052 60.1023 A2.1250 2.1250 0.0 0 0 239.4026 62.7049" />
<path d="M291.7420 37.2278 A2.1250 2.1250 0.0 0 0 294.3446 38.7304" />
<path d="M306.6601 35.4304
L294.3446 38.7304
" />
<path d="M304.8628 20.5123
L308.1627 32.8279
" />
<path d="M240.9052 60.1023
L253.2207 56.8024
" />
<path d="M304.8628 20.5123 A2.1250 2.1250 0.0 0 0 302.2602 19.0097" />
<path d="M33.0686,27.1880 C34.8708,26.1533 35.4087,24.1459 35.4087,24.1459" />
<path d="M289.9447 22.3096 A2.1250 2.1250 0.0 0 0 288.4421 24.9122" />
<path d="M268.6257 40.6912
L256.3102 43.9912
" />
<path d="M240.8978 107.5870 A2.1250 2.1250 0.0 0 0 243.5004 109.0896" />
<path d="M266.8284 25.7731 A2.1250 2.1250 0.0 0 0 264.2258 24.2705" />
<path d="M251.9103 27.5704 A2.1250 2.1250 0.0 0 0 250.4077 30.1730" />
<path d="M278.4867 77.4930 A2.1250 2.1250 0.0 0 0 279.9893 74.8905" />
<path d="M253.7076 42.4886 A2.1250 2.1250 0.0 0 0 256.3102 43.9912" />
<path d="M276.6894 62.5749
L279.9893 74.8905
" />
<path d="M287.2376 67.4095
L299.5531 64.1096
" />
<path d="M271.7589 44.1740 A2.1250 2.1250 0.0 0 0 269.1563 42.6714" />
<path d="M278.4867 77.4930
L266.1712 80.7930
" />
<path d="M251.9103 27.5704
L264.2258 24.2705
" />
<path d="M220.6037 66.1503
L217.3038 53.8347
" />
<path d="M291.7420 37.2278
L288.4421 24.9122
" />
<path d="M253.7076 42.4886
L250.4077 30.1730
" />
<path d="M273.5562 59.0921 A2.1250 2.1250 0.0 0 0 275.0588 56.4896" />
<path d="M141.8754,12.3802 C142.7955,12.6268 143.5605,13.1944 143.5605,13.1944" />
<path d="M260.7663 8.0431
L289.0925 0.4532
" />
<path d="M273.5562 59.0921
L261.2407 62.3921
" />
<path d="M322.3575 24.1459 A5.0000 5.0000 0.0 0 0 324.6976 27.1880" />
<path d="M271.7589 44.1740
L275.0588 56.4896
" />
<path d="M58.1332 3.5681
L65.5378 0.6344
" />
<path d="M289.9447 22.3096
L302.2602 19.0097
" />
<path d="M258.6381 60.8895 A2.1250 2.1250 0.0 0 0 261.2407 62.3921" />
<path d="M306.6601 35.4304 A2.1250 2.1250 0.0 0 0 308.1627 32.8279" />
<path d="M258.6381 60.8895
L255.3382 48.5739
" />
<path d="M263.5686 79.2904
L260.2687 66.9748
" />
<path d="M261.7713 64.3722
L274.0868 61.0723
" />
<path d="M256.8408 45.9713 A2.1250 2.1250 0.0 0 0 255.3382 48.5739" />
<path d="M254.0186 90.8715
L257.3185 103.1871
" />
<path d="M239.1005 92.6688
L251.4160 89.3689
" />
<path d="M239.1005 92.6688 A2.1250 2.1250 0.0 0 0 237.5979 95.2714" />
<path d="M219.8812 116.8614
L214.4928 105.3060
" />
<path d="M219.8812 116.8614 A2.1250 2.1250 0.0 0 0 222.7052 117.8893" />
<path d="M234.2606 112.5008
L222.7052 117.8893
" />
<path d="M234.2606 112.5008 A2.1250 2.1250 0.0 0 0 235.2884 109.6769" />
<path d="M229.9000 98.1215
L235.2884 109.6769
" />
<path d="M215.5206 102.4820
L227.0760 97.0936
" />
<path d="M206.3342 110.3592
L214.5297 120.1263
" />
<path d="M214.2678 123.1200 A2.1250 2.1250 0.0 0 0 214.5297 120.1263" />
<path d="M245.9623 21.5032 A2.1250 2.1250 0.0 0 0 243.3597 20.0006" />
<path d="M254.0186 90.8715 A2.1250 2.1250 0.0 0 0 251.4160 89.3689" />
<path d="M284.1044 63.9268 A2.1250 2.1250 0.0 0 0 286.7070 65.4294" />
<path d="M257.6206 73.2231
L245.3051 76.5231
" />
<path d="M245.9623 21.5032
L249.2622 33.8188
" />
<path d="M252.6901 54.8222
L240.3746 58.1222
" />
<path d="M229.9000 98.1215 A2.1250 2.1250 0.0 0 0 227.0760 97.0936" />
<path d="M68.6737,0.4532 C82.8368,4.2481 96.9999,8.0431 96.9999,8.0431" />
<path d="M231.0442 23.3005 A2.1250 2.1250 0.0 0 0 229.5416 25.9031" />
<path d="M237.7720 56.6196 A2.1250 2.1250 0.0 0 0 240.3746 58.1222" />
<path d="M100.4611,7.7194 C103.9229,6.0545 107.3847,4.3896 107.3847,4.3896" />
<path d="M255.8233 58.3050
L259.1232 70.6206
" />
<path d="M203.4354 75.6810
L200.1355 63.3654
" />
<path d="M206.3342 110.3592 A2.1250 2.1250 0.0 0 0 203.3404 110.0973" />
<path d="M250.8928 39.9041
L254.1927 52.2197
" />
<path d="M306.7486 109.3643 A2.1250 2.1250 0.0 0 0 308.2512 106.7618" />
<path d="M208.3659 94.0819
L205.0660 81.7663
" />
<path d="M215.5206 102.4820 A2.1250 2.1250 0.0 0 0 214.4928 105.3060" />
<path d="M299.0225 62.1294
L286.7070 65.4294
" />
<path d="M235.9747 41.7014 A2.1250 2.1250 0.0 0 0 234.4721 44.3040" />
<path d="M232.8415 38.2187
L229.5416 25.9031
" />
<path d="M302.1557 65.6122
L305.4556 77.9278
" />
<path d="M67.8215 22.3096
L55.5060 19.0097
" />
<path d="M101.4560 43.9912 A2.1250 2.1250 0.0 0 0 104.0586 42.4886" />
<path d="M89.1405 40.6912
L101.4560 43.9912
" />
<path d="M105.8559 27.5704
L93.5404 24.2705
" />
<path d="M95.9949 64.3722
L83.6794 61.0723
" />
<path d="M94.1976 79.2904
L97.4975 66.9748
" />
<path d="M118.6657 92.6688
L106.3502 89.3689
" />
<path d="M123.5056 112.5008
L135.0610 117.8893
" />
<path d="M96.5255 62.3921 A2.1250 2.1250 0.0 0 0 99.1281 60.8895" />
<path d="M97.4975 66.9748 A2.1250 2.1250 0.0 0 0 95.9949 64.3722" />
<path d="M91.5950 80.7930 A2.1250 2.1250 0.0 0 0 94.1976 79.2904" />
<path d="M103.7476 90.8715
L100.4477 103.1871
" />
<path d="M120.1683 95.2714 A2.1250 2.1250 0.0 0 0 118.6657 92.6688" />
<path d="M100.9254 45.9713
L88.6099 42.6714
" />
<path d="M101.9503 105.7896
L114.2658 109.0896
" />
<path d="M304.9513 94.4462
L308.2512 106.7618
" />
<path d="M143.4984 123.1200
L153.2654 131.3156
" />
<path d="M240.8978 107.5870
L237.5979 95.2714
" />
<path d="M23.4257,116.9850 C22.3801,116.6679 21.5620,115.9434 21.5620,115.9434" />
<path d="M143.2734 105.3060 A2.1250 2.1250 0.0 0 0 142.2456 102.4820" />
<path d="M164.4547 121.2866 A2.1250 2.1250 0.0 0 0 164.1928 118.2929" />
<path d="M201.5070 131.0537 A2.1250 2.1250 0.0 0 0 204.5008 131.3156" />
<path d="M261.7713 64.3722 A2.1250 2.1250 0.0 0 0 260.2687 66.9748" />
<path d="M102.4280 48.5739 A2.1250 2.1250 0.0 0 0 100.9254 45.9713" />
<path d="M220.6037 66.1503 A2.1250 2.1250 0.0 0 0 223.2063 67.6529" />
<path d="M81.0768 62.5749
L77.7769 74.8905
" />
<path d="M77.7769 74.8905 A2.1250 2.1250 0.0 0 0 79.2795 77.4930" />
<path d="M108.5040 33.8188 A2.1250 2.1250 0.0 0 0 110.0066 36.4213" />
<path d="M126.7220 23.3005
L114.4065 20.0006
" />
<path d="M117.3916 58.1222 A2.1250 2.1250 0.0 0 0 119.9942 56.6196" />
<path d="M116.8610 60.1023
L104.5455 56.8024
" />
<path d="M99.1281 60.8895
L102.4280 48.5739
" />
<path d="M109.4760 38.4015 A2.1250 2.1250 0.0 0 0 106.8734 39.9041" />
<path d="M235.9747 41.7014
L248.2902 38.4015
" />
<path d="M306.7486 109.3643
L294.4331 112.6643
" />
<path d="M201.5070 131.0537
L193.3114 121.2866
" />
<path d="M98.6430 70.6206 A2.1250 2.1250 0.0 0 0 100.1456 73.2231" />
<path d="M84.2100 59.0921
L96.5255 62.3921
" />
<path d="M131.5748 29.5313 A2.1250 2.1250 0.0 0 0 128.9722 31.0339" />
<path d="M119.9942 56.6196
L123.2941 44.3040
" />
<path d="M101.9429 58.3050
L98.6430 70.6206
" />
<path d="M193.5734 118.2929 A2.1250 2.1250 0.0 0 0 193.3115 121.2866" />
<path d="M238.6550 67.8357
L241.9549 80.1513
" />
<path d="M86.0073 44.1740
L82.7074 56.4896
" />
<path d="M143.2364 120.1263 A2.1250 2.1250 0.0 0 0 143.4984 123.1200" />
<path d="M288.2592 40.3609 A2.1250 2.1250 0.0 0 0 289.7618 37.7584" />
<path d="M139.4904 49.2520 A2.1250 2.1250 0.0 0 0 142.0930 47.7494" />
<path d="M143.8903 32.8312
L131.5748 29.5313
" />
<path d="M276.6894 62.5749 A2.1250 2.1250 0.0 0 0 274.0868 61.0723" />
<path d="M128.2246 25.9031 A2.1250 2.1250 0.0 0 0 126.7220 23.3005" />
<path d="M290.0332 96.2435
L302.3487 92.9436
" />
<path d="M142.2456 102.4820
L130.6902 97.0936
" />
<path d="M115.0637 75.0205
L118.3636 62.7049
" />
<path d="M127.1749 45.9520
L139.4904 49.2520
" />
<path d="M252.6901 54.8222 A2.1250 2.1250 0.0 0 0 254.1927 52.2197" />
<path d="M355.0692 99.2357
L336.2042 115.9434
" />
<path d="M128.9722 31.0339
L125.6723 43.3495
" />
<path d="M250.8928 39.9041 A2.1250 2.1250 0.0 0 0 248.2902 38.4015" />
<path d="M235.5218 64.3529 A2.1250 2.1250 0.0 0 0 237.0244 61.7504" />
<path d="M255.8159 105.7896
L243.5004 109.0896
" />
<path d="M114.4065 20.0006 A2.1250 2.1250 0.0 0 0 111.8039 21.5032" />
<path d="M240.4523 82.7538 A2.1250 2.1250 0.0 0 0 241.9549 80.1513" />
<path d="M52.9034 20.5123
L49.6035 32.8279
" />
<path d="M266.8284 25.7731
L270.1283 38.0887
" />
<path d="M66.0242 37.2278
L69.3241 24.9122
" />
<path d="M135.0610 117.8893 A2.1250 2.1250 0.0 0 0 137.8850 116.8614" />
<path d="M114.2658 109.0896 A2.1250 2.1250 0.0 0 0 116.8684 107.5870" />
<path d="M154.4258 110.0973 A2.1250 2.1250 0.0 0 0 151.4320 110.3592" />
<path d="M79.2795 77.4930
L91.5950 80.7930
" />
<path d="M198.5049 57.2801
L195.2050 44.9645
" />
<path d="M196.7076 42.3619
L209.0231 39.0620
" />
<path d="M242.7025 75.0205
L239.4026 62.7049
" />
<path d="M83.6794 61.0723 A2.1250 2.1250 0.0 0 0 81.0768 62.5749" />
<path d="M320.5566 60.6817
L323.8565 72.9973
" />
<path d="M90.9378 25.7731
L87.6379 38.0887
" />
<path d="M51.1061 35.4304
L63.4216 38.7304
" />
<path d="M214.2678 123.1200
L204.5008 131.3156
" />
<path d="M69.3241 24.9122 A2.1250 2.1250 0.0 0 0 67.8215 22.3096" />
<path d="M145.3929 35.4338 A2.1250 2.1250 0.0 0 0 143.8903 32.8312" />
<path d="M55.5060 19.0097 A2.1250 2.1250 0.0 0 0 52.9034 20.5123" />
<path d="M134.5599 67.6529 A2.1250 2.1250 0.0 0 0 137.1625 66.1503" />
<path d="M120.7418 61.7504 A2.1250 2.1250 0.0 0 0 122.2444 64.3529" />
<path d="M121.7138 66.3331 A2.1250 2.1250 0.0 0 0 119.1112 67.8357" />
<path d="M303.9530 80.5303
L291.6375 83.8303
" />
<path d="M137.8850 116.8614
L143.2734 105.3060
" />
<path d="M126.6443 47.9322 A2.1250 2.1250 0.0 0 0 124.0417 49.4348" />
<path d="M118.3636 62.7049 A2.1250 2.1250 0.0 0 0 116.8610 60.1023" />
<path d="M124.0417 49.4348
L120.7418 61.7504
" />
<path d="M138.9598 51.2321
L126.6443 47.9322
" />
<path d="M111.8039 21.5032
L108.5040 33.8188
" />
<path d="M140.4624 53.8347 A2.1250 2.1250 0.0 0 0 138.9598 51.2321" />
<path d="M115.8113 80.1513 A2.1250 2.1250 0.0 0 0 117.3139 82.7538" />
<path d="M117.3139 82.7538
L129.6294 86.0538
" />
<path d="M137.1625 66.1503
L140.4624 53.8347
" />
<path d="M129.6294 86.0538 A2.1250 2.1250 0.0 0 0 132.2320 84.5512" />
<path d="M255.8159 105.7896 A2.1250 2.1250 0.0 0 0 257.3185 103.1871" />
<path d="M223.2840 92.2845
L210.9685 95.5845
" />
<path d="M201.6381 60.7628
L213.9536 57.4629
" />
<path d="M127.8662 98.1215
L122.4778 109.6769
" />
<path d="M148.7431 39.0620 A2.1250 2.1250 0.0 0 0 146.1405 40.5646" />
<path d="M146.7977 95.5845 A2.1250 2.1250 0.0 0 0 149.4003 94.0819" />
<path d="M105.0761 54.8222
L117.3916 58.1222
" />
<path d="M271.5438 27.2401
L283.8593 23.9402
" />
<path d="M152.7002 81.7663 A2.1250 2.1250 0.0 0 0 151.1976 79.1637" />
<path d="M63.4216 38.7304 A2.1250 2.1250 0.0 0 0 66.0242 37.2278" />
<path d="M156.1281 60.7628
L143.8126 57.4629
" />
<path d="M315.6261 42.2808 A2.1250 2.1250 0.0 0 0 313.0235 40.7782" />
<path d="M146.1405 40.5646
L142.8406 52.8802
" />
<path d="M149.4003 94.0819
L152.7002 81.7663
" />
<path d="M325.1495 104.4338
L312.8340 107.7338
" />
<path d="M144.3432 55.4827
L156.6587 58.7827
" />
<path d="M242.7025 75.0205 A2.1250 2.1250 0.0 0 0 245.3051 76.5231" />
<path d="M159.2613 57.2801
L162.5612 44.9645
" />
<path d="M320.5566 60.6817 A2.1250 2.1250 0.0 0 0 317.9540 59.1791" />
<path d="M49.6035 32.8279 A2.1250 2.1250 0.0 0 0 51.1061 35.4304" />
<path d="M151.4320 110.3592
L143.2364 120.1263
" />
<path d="M136.2795 77.3664
L132.9796 89.6820
" />
<path d="M310.2314 106.2312 A2.1250 2.1250 0.0 0 0 312.8340 107.7338" />
<path d="M161.0586 42.3619
L148.7431 39.0620
" />
<path d="M151.7282 77.1836 A2.1250 2.1250 0.0 0 0 154.3308 75.6810" />
<path d="M142.8406 52.8802 A2.1250 2.1250 0.0 0 0 144.3432 55.4827" />
<path d="M106.8734 39.9041
L103.5735 52.2197
" />
<path d="M132.2320 84.5512
L135.5319 72.2356
" />
<path d="M196.7076 42.3619 A2.1250 2.1250 0.0 0 0 195.2050 44.9645" />
<path d="M122.2444 64.3529
L134.5599 67.6529
" />
<path d="M134.4822 92.2845
L146.7977 95.5845
" />
<path d="M135.5319 72.2356 A2.1250 2.1250 0.0 0 0 134.0293 69.6330" />
<path d="M93.5404 24.2705 A2.1250 2.1250 0.0 0 0 90.9378 25.7731" />
<path d="M211.6257 40.5646 A2.1250 2.1250 0.0 0 0 209.0231 39.0620" />
<path d="M137.9101 71.2811 A2.1250 2.1250 0.0 0 0 139.4127 73.8836" />
<path d="M138.8821 75.8638 A2.1250 2.1250 0.0 0 0 136.2795 77.3664" />
<path d="M289.0349 82.3277
L285.7350 70.0121
" />
<path d="M141.2100 58.9655
L137.9101 71.2811
" />
<path d="M156.2592 131.0537
L164.4547 121.2866
" />
<path d="M162.5612 44.9645 A2.1250 2.1250 0.0 0 0 161.0586 42.3619" />
<path d="M211.6257 40.5646
L214.9256 52.8802
" />
<path d="M132.9796 89.6820 A2.1250 2.1250 0.0 0 0 134.4822 92.2845" />
<path d="M143.8126 57.4629 A2.1250 2.1250 0.0 0 0 141.2100 58.9655" />
<path d="M110.0066 36.4213
L122.3221 39.7213
" />
<path d="M134.0293 69.6330
L121.7138 66.3331
" />
<path d="M142.0930 47.7494
L145.3929 35.4338
" />
<path d="M157.6307 63.3654 A2.1250 2.1250 0.0 0 0 156.1281 60.7628" />
<path d="M81.8225 43.6609 A2.1250 2.1250 0.0 0 0 84.4251 42.1583" />
<path d="M122.3221 39.7213 A2.1250 2.1250 0.0 0 0 124.9247 38.2187" />
<path d="M69.5070 40.3609
L81.8225 43.6609
" />
<path d="M68.0044 37.7584 A2.1250 2.1250 0.0 0 0 69.5070 40.3609" />
<path d="M73.9069 23.9402 A2.1250 2.1250 0.0 0 0 71.3043 25.4428" />
<path d="M100.1456 73.2231
L112.4611 76.5231
" />
<path d="M84.4251 42.1583
L87.7250 29.8427
" />
<path d="M123.2941 44.3040 A2.1250 2.1250 0.0 0 0 121.7915 41.7014" />
<path d="M103.8368,126.9148 C100.7355,125.3698 97.3431,126.0747 97.3431,126.0747" />
<path d="M304.9513 94.4462 A2.1250 2.1250 0.0 0 0 302.3487 92.9436" />
<path d="M40.3428 57.1989
L52.6583 60.4989
" />
<path d="M2.6970,99.2357 C0.0250,96.8693 1.3951,93.5734 1.3951,93.5734" />
<path d="M42.1401 42.2808
L38.8402 54.5964
" />
<path d="M104.0586 42.4886
L107.3585 30.1730
" />
<path d="M60.5410 47.2113
L57.2411 59.5269
" />
<path d="M122.4778 109.6769 A2.1250 2.1250 0.0 0 0 123.5056 112.5008" />
<path d="M104.5455 56.8024 A2.1250 2.1250 0.0 0 0 101.9429 58.3050" />
<path d="M50.3304 77.3972
L53.6303 65.0816
" />
<path d="M112.4611 76.5231 A2.1250 2.1250 0.0 0 0 115.0637 75.0205" />
<path d="M52.1277 62.4790
L39.8122 59.1791
" />
<path d="M290.0332 96.2435 A2.1250 2.1250 0.0 0 0 288.5306 98.8461" />
<path d="M250.3815 4.3896 A5.0000 5.0000 0.0 0 0 246.9203 4.0659" />
<path d="M215.6732 47.7494 A2.1250 2.1250 0.0 0 0 218.2758 49.2520" />
<path d="M221.4867 77.3664
L224.7866 89.6820
" />
<path d="M71.3043 25.4428
L68.0044 37.7584
" />
<path d="M52.6583 60.4989 A2.1250 2.1250 0.0 0 0 55.2609 58.9963" />
<path d="M273.3411 42.1583 A2.1250 2.1250 0.0 0 0 275.9437 43.6609" />
<path d="M39.8122 59.1791 A2.1250 2.1250 0.0 0 0 37.2096 60.6817" />
<path d="M151.6478,150.7340 C127.7423,138.8244 103.8368,126.9148 103.8368,126.9148" />
<path d="M73.6618 63.9268
L76.9617 51.6112
" />
<path d="M213.8759 32.8312 A2.1250 2.1250 0.0 0 0 212.3733 35.4338" />
<path d="M287.2376 67.4095 A2.1250 2.1250 0.0 0 0 285.7350 70.0121" />
<path d="M87.6379 38.0887 A2.1250 2.1250 0.0 0 0 89.1405 40.6912" />
<path d="M110.8459,4.0659 C126.3606,8.2231 141.8754,12.3802 141.8754,12.3802" />
<path d="M71.0592 65.4294 A2.1250 2.1250 0.0 0 0 73.6618 63.9268" />
<path d="M58.7437 62.1294
L71.0592 65.4294
" />
<path d="M88.6099 42.6714 A2.1250 2.1250 0.0 0 0 86.0073 44.1740" />
<path d="M139.4127 73.8836
L151.7282 77.1836
" />
<path d="M35.4123 75.5998
L47.7278 78.8998
" />
<path d="M76.9617 51.6112 A2.1250 2.1250 0.0 0 0 75.4591 49.0086" />
<path d="M57.2411 59.5269 A2.1250 2.1250 0.0 0 0 58.7437 62.1294" />
<path d="M263.5686 79.2904 A2.1250 2.1250 0.0 0 0 266.1712 80.7930" />
<path d="M33.9097 72.9973 A2.1250 2.1250 0.0 0 0 35.4123 75.5998" />
<path d="M57.0582 44.0781
L44.7427 40.7782
" />
<path d="M55.2609 58.9963
L58.5608 46.6807
" />
<path d="M86.2224 27.2401
L73.9069 23.9402
" />
<path d="M218.3535 73.8836
L206.0380 77.1836
" />
<path d="M121.7915 41.7014
L109.4760 38.4015
" />
<path d="M193.5734 118.2929
L203.3404 110.0973
" />
<path d="M103.5735 52.2197 A2.1250 2.1250 0.0 0 0 105.0761 54.8222" />
<path d="M53.6303 65.0816 A2.1250 2.1250 0.0 0 0 52.1277 62.4790" />
<path d="M130.6902 97.0936 A2.1250 2.1250 0.0 0 0 127.8662 98.1215" />
<path d="M58.5608 46.6807 A2.1250 2.1250 0.0 0 0 57.0582 44.0781" />
<path d="M38.8402 54.5964 A2.1250 2.1250 0.0 0 0 40.3428 57.1989" />
<path d="M107.3585 30.1730 A2.1250 2.1250 0.0 0 0 105.8559 27.5704" />
<path d="M44.7427 40.7782 A2.1250 2.1250 0.0 0 0 42.1401 42.2808" />
<path d="M153.2654 131.3156 A2.1250 2.1250 0.0 0 0 156.2592 131.0537" />
<path d="M291.8305 111.1617 A2.1250 2.1250 0.0 0 0 294.4331 112.6643" />
<path d="M87.7250 29.8427 A2.1250 2.1250 0.0 0 0 86.2224 27.2401" />
<path d="M247.7596 36.4213 A2.1250 2.1250 0.0 0 0 249.2622 33.8188" />
<path d="M53.8132 80.5303
L66.1287 83.8303
" />
<path d="M223.7369 69.6330 A2.1250 2.1250 0.0 0 0 222.2343 72.2356" />
<path d="M300.7080 44.0781
L313.0235 40.7782
" />
<path d="M58.2131 64.1096 A2.1250 2.1250 0.0 0 0 55.6105 65.6122" />
<path d="M70.5286 67.4095
L58.2131 64.1096
" />
<path d="M68.7313 82.3277
L72.0312 70.0121
" />
<path d="M55.6105 65.6122
L52.3106 77.9278
" />
<path d="M100.4477 103.1871 A2.1250 2.1250 0.0 0 0 101.9503 105.7896" />
<path d="M238.6550 67.8357 A2.1250 2.1250 0.0 0 0 236.0524 66.3331" />
<path d="M47.5348 106.2312
L50.8347 93.9156
" />
<path d="M72.0312 70.0121 A2.1250 2.1250 0.0 0 0 70.5286 67.4095" />
<path d="M232.8415 38.2187 A2.1250 2.1250 0.0 0 0 235.4441 39.7213" />
<path d="M247.7596 36.4213
L235.4441 39.7213
" />
<path d="M291.8305 111.1617
L288.5306 98.8461
" />
<path d="M257.3051 7.7194 A5.0000 5.0000 0.0 0 0 260.7663 8.0431" />
<path d="M268.6257 40.6912 A2.1250 2.1250 0.0 0 0 270.1283 38.0887" />
<path d="M52.8149 94.4462
L49.5150 106.7618
" />
<path d="M47.7278 78.8998 A2.1250 2.1250 0.0 0 0 50.3304 77.3972" />
<path d="M302.5053 58.9963
L299.2054 46.6807
" />
<path d="M308.4341 91.3130 A2.1250 2.1250 0.0 0 0 306.9315 93.9156" />
<path d="M124.9247 38.2187
L128.2246 25.9031
" />
<path d="M32.6167 104.4338
L44.9322 107.7338
" />
<path d="M50.8347 93.9156 A2.1250 2.1250 0.0 0 0 49.3321 91.3130" />
<path d="M44.9322 107.7338 A2.1250 2.1250 0.0 0 0 47.5348 106.2312" />
<path d="M223.7369 69.6330
L236.0524 66.3331
" />
<path d="M34.4140 89.5157
L31.1141 101.8313
" />
<path d="M164.1928 118.2929
L154.4258 110.0973
" />
<path d="M154.3308 75.6810
L157.6307 63.3654
" />
<path d="M151.1976 79.1637
L138.8821 75.8638
" />
<path d="M37.0166 88.0131 A2.1250 2.1250 0.0 0 0 34.4140 89.5157" />
<path d="M260.4231 126.0747 A10.0000 10.0000 0.0 0 0 253.9294 126.9148" />
<path d="M52.3106 77.9278 A2.1250 2.1250 0.0 0 0 53.8132 80.5303" />
<path d="M237.7720 56.6196
L234.4721 44.3040
" />
<path d="M51.0176 109.3643
L63.3331 112.6643
" />
<path d="M256.8408 45.9713
L269.1563 42.6714
" />
<path d="M213.4230 55.4827 A2.1250 2.1250 0.0 0 0 214.9256 52.8802" />
<path d="M67.7330 96.2435
L55.4175 92.9436
" />
<path d="M82.7074 56.4896 A2.1250 2.1250 0.0 0 0 84.2100 59.0921" />
<path d="M213.8759 32.8312
L226.1914 29.5313
" />
<path d="M37.2096 60.6817
L33.9097 72.9973
" />
<path d="M299.0225 62.1294 A2.1250 2.1250 0.0 0 0 300.5251 59.5269" />
<path d="M63.1436 45.7087 A2.1250 2.1250 0.0 0 0 60.5410 47.2113" />
<path d="M116.8684 107.5870
L120.1683 95.2714
" />
<path d="M231.0442 23.3005
L243.3597 20.0006
" />
<path d="M66.1287 83.8303 A2.1250 2.1250 0.0 0 0 68.7313 82.3277" />
<path d="M240.4523 82.7538
L228.1368 86.0538
" />
<path d="M31.1141 101.8313 A2.1250 2.1250 0.0 0 0 32.6167 104.4338" />
<path d="M49.3321 91.3130
L37.0166 88.0131
" />
<path d="M106.3502 89.3689 A2.1250 2.1250 0.0 0 0 103.7476 90.8715" />
<path d="M324.6976 27.1880
L328.5789 29.4164
" />
<path d="M233.7245 49.4348 A2.1250 2.1250 0.0 0 0 231.1219 47.9322" />
<path d="M156.6587 58.7827 A2.1250 2.1250 0.0 0 0 159.2613 57.2801" />
<path d="M233.7245 49.4348
L237.0244 61.7504
" />
<path d="M65.9357 111.1617
L69.2356 98.8461
" />
<path d="M75.4591 49.0086
L63.1436 45.7087
" />
<path d="M119.1112 67.8357
L115.8113 80.1513
" />
<path d="M49.5150 106.7618 A2.1250 2.1250 0.0 0 0 51.0176 109.3643" />
<path d="M55.4175 92.9436 A2.1250 2.1250 0.0 0 0 52.8149 94.4462" />
<path d="M69.2356 98.8461 A2.1250 2.1250 0.0 0 0 67.7330 96.2435" />
<path d="M63.3331 112.6643 A2.1250 2.1250 0.0 0 0 65.9357 111.1617" />
<path d="M125.6723 43.3495 A2.1250 2.1250 0.0 0 0 127.1749 45.9520" />
<path d="M198.4004 23.6950 A4.9999 4.9999 0.0 0 0 201.3797 22.7105" />
<path d="M334.3405 116.9850
L288.9470 130.7544
" />
<path d="M292.2284 0.6343 A4.9999 4.9999 0.0 0 0 289.0925 0.4532" />
<path d="M68.6737,0.4532 C82.8368,4.2481 96.9999,8.0431 96.9999,8.0431" />
<path d="M156.1070,151.7833 C153.7539,151.7833 151.6478,150.7340 151.6478,150.7340" />
<path d="M143.5605,13.1944 C149.9735,17.9524 156.3865,22.7105 156.3865,22.7105" />
<path d="M2.6970,99.2357 C0.0250,96.8693 1.3951,93.5734 1.3951,93.5734" />
<path d="M319.5385 13.6254
L322.3575 24.1459
" />
<path d="M250.3815 4.3896
L257.3051 7.7194
" />
<path d="M103.8368,126.9148 C100.7355,125.3698 97.3431,126.0747 97.3431,126.0747" />
<path d="M299.6330 3.5681
L316.5506 10.2711
" />
<path d="M201.3797 22.7105
L214.2057 13.1944
" />
<path d="M58.1332 3.5681
L65.5378 0.6344
" />
<path d="M292.2283 0.6344
L299.6330 3.5681
" />
<path d="M27.0598,31.8333 C27.7125,30.2630 29.1873,29.4164 29.1873,29.4164" />
<path d="M215.8908 12.3802
L246.9203 4.0659
" />
<path d="M156.3865,22.7105 C157.7135,23.6950 159.3658,23.6950 159.3658,23.6950" />
<path d="M21.5620,115.9434 C12.1295,107.5896 2.6970,99.2357 2.6970,99.2357" />
<path d="M257.3051 7.7194 A4.9998 4.9998 0.0 0 0 260.7663 8.0431" />
<path d="M355.0692 99.2358 A5.0000 5.0000 0.0 0 0 356.3711 93.5734" />
<path d="M141.8754,12.3802 C142.7955,12.6268 143.5605,13.1944 143.5605,13.1944" />
<circle cx="202.1786" cy="28.5743" r="2.1500" /> 
<circle cx="351.2486" cy="95.3743" r="2.1500" /> 
<circle cx="6.5136" cy="95.3743" r="2.1500" /> 
<circle cx="71.4636" cy="125.6743" r="2.1500" /> 
<circle cx="43.4936" cy="15.2443" r="2.1500" /> 
<circle cx="155.3136" cy="146.1743" r="2.1500" /> 
<circle cx="109.7036" cy="9.4543" r="2.1500" /> 
<path d="M284.0098 130.9758 A9.9998 9.9998 0.0 0 0 288.9470 130.7544" />
<path d="M65.5378,0.6344 C67.0758,0.0250 68.6737,0.4532 68.6737,0.4532" />
<path d="M41.2155 10.2711
L58.1332 3.5681
" />
<path d="M201.6592 151.7833 A9.9996 9.9996 0.0 0 0 206.1184 150.7340" />
<path d="M334.3405 116.9850 A4.9997 4.9997 0.0 0 0 336.2042 115.9434" />
<path d="M107.3847,4.3896 C109.0553,3.5861 110.8459,4.0659 110.8459,4.0659" />
<path d="M151.6478,150.7340 C127.7423,138.8244 103.8368,126.9148 103.8368,126.9148" />
<path d="M68.8192,130.7544 C46.1225,123.8697 23.4257,116.9850 23.4257,116.9850" />
<path d="M355.0692 99.2357
L336.2042 115.9434
" />
<path d="M260.7663 8.0431
L289.0925 0.4532
" />
<path d="M33.0686,27.1880 C34.8708,26.1533 35.4087,24.1459 35.4087,24.1459" />
<path d="M319.5385 13.6254 A5.0000 5.0000 0.0 0 0 316.5506 10.2711" />
<path d="M201.6592 151.7833
L178.8831 151.7833
" />
<path d="M260.4230 126.0747 A9.9999 9.9999 0.0 0 0 253.9294 126.9148" />
<path d="M178.8831 151.7833
L156.1070 151.7833
" />
<path d="M35.4087,24.1459 C36.8182,18.8857 38.2277,13.6254 38.2277,13.6254" />
<path d="M29.1873,29.4164 C31.1279,28.3022 33.0686,27.1880 33.0686,27.1880" />
<circle cx="202.4486" cy="146.1743" r="2.1500" /> 
<path d="M253.9294 126.9148
L206.1184 150.7340
" />
<path d="M322.3575 24.1459 A4.9999 4.9999 0.0 0 0 324.6976 27.1880" />
<path d="M110.8459,4.0659 C126.3606,8.2231 141.8754,12.3802 141.8754,12.3802" />
<circle cx="286.2986" cy="125.6743" r="2.1500" /> 
<path d="M324.6976 27.1880
L328.5789 29.4164
" />
<path d="M250.3815 4.3896 A5.0001 5.0001 0.0 0 0 246.9203 4.0659" />
<path d="M73.7564,130.9758 C71.2596,131.4947 68.8192,130.7544 68.8192,130.7544" />
<path d="M96.9999,8.0431 C98.7905,8.5229 100.4611,7.7194 100.4611,7.7194" />
<circle cx="314.2686" cy="15.2443" r="2.1500" /> 
<path d="M23.4257,116.9850 C22.3801,116.6679 21.5620,115.9434 21.5620,115.9434" />
<path d="M1.3951,93.5734 C14.2274,62.7034 27.0598,31.8333 27.0598,31.8333" />
<path d="M215.8908 12.3803 A5.0001 5.0001 0.0 0 0 214.2057 13.1944" />
<circle cx="248.0586" cy="9.4543" r="2.1500" /> 
<path d="M38.2277,13.6254 C38.8783,11.1971 41.2155,10.2711 41.2155,10.2711" />
<circle cx="155.5836" cy="28.5743" r="2.1500" /> 
<path d="M97.3431,126.0747 C85.5498,128.5253 73.7564,130.9758 73.7564,130.9758" />
<path d="M284.0098 130.9758
L260.4230 126.0747
" />
<path d="M330.7064 31.8333
L356.3711 93.5734
" />
<path d="M330.7064 31.8333 A5.0001 5.0001 0.0 0 0 328.5789 29.4164" />
<path d="M100.4611,7.7194 C103.9229,6.0545 107.3847,4.3896 107.3847,4.3896" />
<path d="M173.5636 32.1943
L173.5636 25.2950
" />
<path d="M185.7986 23.6950
L198.4004 23.6950
" />
<path d="M159.3658 23.6950
L171.9636 23.6950
" />
<path d="M184.1986 25.2950
L184.1986 32.1943
" />
<path d="M173.5636 25.2950 A1.6000 1.6000 0.0 0 0 171.9636 23.6950" />
<path d="M185.7986 23.6950 A1.6000 1.6000 0.0 0 0 184.1986 25.2950" />
<path d="M175.1636 33.7943
L182.5986 33.7943
" />
<path d="M173.5636 32.1943 A1.6000 1.6000 0.0 0 0 175.1636 33.7943" />
<path d="M182.5986 33.7943 A1.6000 1.6000 0.0 0 0 184.1986 32.1943" />
</g> 
</svg>
